<?xml version="1.0" encoding="UTF-8"?>
<svg id="Ebene_1" xmlns="http://www.w3.org/2000/svg" xmlns:xlink="http://www.w3.org/1999/xlink" version="1.1" viewBox="0 0 1190.55 841.89">
  <!-- Generator: Adobe Illustrator 29.0.1, SVG Export Plug-In . SVG Version: 2.1.0 Build 192)  -->
  <defs>
    <style>
      .st0 {
        stroke: #5f5f5f;
      }

      .st0, .st1, .st2, .st3, .st4, .st5, .st6 {
        fill: none;
      }

      .st0, .st1, .st2, .st4, .st5, .st6 {
        stroke-linecap: round;
        stroke-linejoin: round;
      }

      .st0, .st2 {
        stroke-width: .51px;
      }

      .st7, .st8, .st9 {
        fill-rule: evenodd;
      }

      .st7, .st10 {
        fill: #fff;
      }

      .st8 {
        fill: #bcbcbc;
      }

      .st11 {
        font-size: 10.89px;
      }

      .st11, .st9 {
        fill: #382f73;
      }

      .st11, .st10 {
        font-family: Copperplate, Copperplate;
      }

      .st12 {
        clip-path: url(#clippath-1);
      }

      .st13 {
        clip-path: url(#clippath-3);
      }

      .st14 {
        clip-path: url(#clippath-4);
      }

      .st15 {
        clip-path: url(#clippath-2);
      }

      .st16 {
        clip-path: url(#clippath-6);
      }

      .st17 {
        clip-path: url(#clippath-5);
      }

      .st1, .st2 {
        stroke: #a6a6a6;
      }

      .st1, .st5, .st6 {
        stroke-width: .37px;
      }

      .st3 {
        clip-rule: evenodd;
      }

      .st4 {
        stroke-width: .71px;
      }

      .st4, .st6 {
        stroke: #00010f;
      }

      .st5 {
        stroke: #382f73;
      }

      .st10 {
        font-size: 4px;
      }

      .st18 {
        clip-path: url(#clippath);
      }
    </style>
    <clipPath id="clippath">
      <polyline class="st3" points="41 41 1150 41 1150 801 41 801 41 41"/>
    </clipPath>
    <clipPath id="clippath-1">
      <polyline class="st3" points="42.72 799.45 42.72 42.55 1148.29 42.55 1148.29 799.45 42.72 799.45"/>
    </clipPath>
    <clipPath id="clippath-2">
      <polyline class="st3" points="42.72 799.45 42.72 42.55 1148.29 42.55 1148.29 799.45 42.72 799.45"/>
    </clipPath>
    <clipPath id="clippath-3">
      <polyline class="st3" points="42.72 799.45 42.72 42.55 1148.29 42.55 1148.29 799.45 42.72 799.45"/>
    </clipPath>
    <clipPath id="clippath-4">
      <polyline class="st3" points="42.72 799.45 42.72 42.55 1148.29 42.55 1148.29 799.45 42.72 799.45"/>
    </clipPath>
    <clipPath id="clippath-5">
      <polyline class="st3" points="42.72 799.45 42.72 42.55 1148.29 42.55 1148.29 799.45 42.72 799.45"/>
    </clipPath>
    <clipPath id="clippath-6">
      <polyline class="st3" points="42.72 799.45 42.72 42.55 1148.29 42.55 1148.29 799.45 42.72 799.45"/>
    </clipPath>
  </defs>
  <text class="st10" transform="translate(41.98 795.73)"><tspan x="0" y="0">G</tspan></text>
  <text class="st10" transform="translate(44.87 795.73)"><tspan x="0" y="0">S</tspan></text>
  <text class="st10" transform="translate(47.54 795.73)"><tspan x="0" y="0">E</tspan></text>
  <text class="st10" transform="translate(50.21 795.73)"><tspan x="0" y="0">d</tspan></text>
  <text class="st10" transform="translate(52.65 795.73)"><tspan x="0" y="0">u</tspan></text>
  <text class="st10" transform="translate(55.32 795.73)"><tspan x="0" y="0">c</tspan></text>
  <text class="st10" transform="translate(57.54 795.73)"><tspan x="0" y="0">a</tspan></text>
  <text class="st10" transform="translate(59.77 795.73)"><tspan x="0" y="0">t</tspan></text>
  <text class="st10" transform="translate(61.77 795.73)"><tspan x="0" y="0">i</tspan></text>
  <text class="st10" transform="translate(63.1 795.73)"><tspan x="0" y="0">o</tspan></text>
  <text class="st10" transform="translate(65.54 795.73)"><tspan x="0" y="0">n</tspan></text>
  <text class="st10" transform="translate(68.21 795.73)"><tspan x="0" y="0">a</tspan></text>
  <text class="st10" transform="translate(70.44 795.73)"><tspan x="0" y="0">l</tspan></text>
  <text class="st10" transform="translate(72.66 795.73)"><tspan x="0" y="0">V</tspan></text>
  <text class="st10" transform="translate(75.33 795.73)"><tspan x="0" y="0">e</tspan></text>
  <text class="st10" transform="translate(77.55 795.73)"><tspan x="0" y="0">r</tspan></text>
  <text class="st10" transform="translate(80 795.73)"><tspan x="0" y="0">s</tspan></text>
  <text class="st10" transform="translate(82.22 795.73)"><tspan x="0" y="0">i</tspan></text>
  <text class="st10" transform="translate(83.55 795.73)"><tspan x="0" y="0">o</tspan></text>
  <text class="st10" transform="translate(86 795.73)"><tspan x="0" y="0">n</tspan></text>
  <g class="st18">
    <line class="st6" x1="80.18" y1="484.75" x2="143.9" y2="402.4"/>
    <line class="st6" x1="153.41" y1="404.85" x2="89.69" y2="487.21"/>
    <line class="st6" x1="99.2" y1="489.66" x2="162.92" y2="407.31"/>
    <line class="st6" x1="172.43" y1="409.76" x2="108.7" y2="492.11"/>
    <line class="st6" x1="118.21" y1="494.56" x2="181.94" y2="412.21"/>
    <line class="st6" x1="191.45" y1="414.66" x2="127.72" y2="497.02"/>
    <line class="st6" x1="137.23" y1="499.47" x2="200.96" y2="417.12"/>
    <line class="st6" x1="210.47" y1="419.57" x2="146.74" y2="501.92"/>
    <line class="st6" x1="156.25" y1="504.37" x2="219.98" y2="422.02"/>
    <line class="st6" x1="229.49" y1="424.47" x2="165.76" y2="506.83"/>
    <line class="st6" x1="175.27" y1="509.28" x2="239" y2="426.93"/>
    <line class="st6" x1="248.51" y1="429.38" x2="184.78" y2="511.73"/>
    <line class="st6" x1="194.29" y1="514.19" x2="258.02" y2="431.83"/>
    <line class="st6" x1="267.52" y1="434.29" x2="203.8" y2="516.64"/>
    <line class="st6" x1="213.31" y1="519.09" x2="277.03" y2="436.74"/>
    <line class="st6" x1="286.54" y1="439.19" x2="222.82" y2="521.54"/>
    <line class="st6" x1="143.9" y1="402.4" x2="286.54" y2="439.19"/>
    <line class="st6" x1="84.43" y1="479.26" x2="227.06" y2="516.05"/>
    <line class="st6" x1="222.82" y1="521.54" x2="80.18" y2="484.75"/>
    <line class="st6" x1="92.92" y1="468.28" x2="235.56" y2="505.08"/>
    <line class="st6" x1="231.31" y1="510.57" x2="88.67" y2="473.77"/>
    <line class="st6" x1="101.42" y1="457.3" x2="244.06" y2="494.09"/>
    <line class="st6" x1="239.81" y1="499.58" x2="97.17" y2="462.79"/>
    <line class="st6" x1="109.92" y1="446.32" x2="252.56" y2="483.12"/>
    <line class="st6" x1="248.31" y1="488.6" x2="105.67" y2="451.81"/>
    <line class="st6" x1="118.41" y1="435.34" x2="261.05" y2="472.13"/>
    <line class="st6" x1="256.8" y1="477.62" x2="114.16" y2="440.83"/>
    <line class="st6" x1="126.91" y1="424.36" x2="269.55" y2="461.15"/>
    <line class="st6" x1="265.3" y1="466.64" x2="122.66" y2="429.85"/>
    <line class="st6" x1="135.41" y1="413.38" x2="278.05" y2="450.17"/>
    <line class="st6" x1="273.8" y1="455.66" x2="131.16" y2="418.87"/>
    <line class="st6" x1="282.29" y1="444.68" x2="139.66" y2="407.89"/>
    <polyline class="st8" points="636.13 465.65 641.72 463.01 644.52 469.24 646.78 476.14 648.17 482.91 648.64 489.33 648.17 495.22 646.78 500.38 644.52 504.68 641.52 507.9 637.59 510.17 637.59 510.17 598.31 487.49 636.13 465.65"/>
    <polyline class="st8" points="822.1 511.74 818.06 509.41 815.13 506.26 812.87 501.97 811.48 496.8 811.02 490.92 811.48 484.5 812.87 477.73 815.13 470.83 817.97 464.51 823.17 467.04 861.34 489.08 822.1 511.74"/>
    <polyline class="st8" points="1011.02 482.34 1014.01 489.01 1016.27 495.92 1017.66 502.68 1018.12 509.1 1017.66 514.99 1016.27 520.15 1014.01 524.45 1011 527.68 1007.08 529.94 967.8 507.26 1011.02 482.34"/>
    <polyline class="st8" points="467.7 485.11 467.82 485.51 467.7 486.24 465.11 492.96 461.33 498.34 456.47 502.22 450.67 504.49 444.12 505.08 437.01 503.96 436.32 503.7 436.03 503.39 433.77 499.1 432.38 493.93 431.92 488.05 432.38 481.63 433.77 474.86 436.03 467.96 436.32 467.32 437.01 467.39 444.12 468.89 450.67 471.07 456.47 473.88 461.33 477.22 465.11 481.01 467.7 485.11"/>
    <path class="st7" d="M587.26,453.9l.46,6.42,1.39,6.77,2.26,6.9,3.07,6.83,3.78,6.55.09.12,4.3,5.96,4.85,5.41,5.17,4.58,5.33,3.61,5.33,2.54,5.17,1.38,4.85.19,4.29-.99h0l.09-.02,3.78-2.18.06-.07,3.01-3.22,2.26-4.29,1.38-5.17.47-5.88-.47-6.42-1.38-6.77-2.26-6.9-2.8-6.24-.27-.6-3.78-6.55-4.38-6.07-4.85-5.41-1.42-1.26-3.75-3.32-5.33-3.62-5.33-2.54-5.17-1.38-4.85-.19-4.38,1.01-3.78,2.19-3.07,3.29-2.26,4.29-1.39,5.17-.46,5.88M581.13,450.36l.56-7.06,1.66-6.2,2.71-5.15,3.68-3.95,4.54-2.62,5.26-1.22,5.82.23,6.2,1.66,6.39,3.04,6.39,4.34,6.2,5.5,5.82,6.49,5.26,7.29,4.54,7.86,3.68,8.2,2.71,8.28,1.66,8.12.56,7.7-.56,7.06-1.66,6.2-2.71,5.15-3.68,3.94-4.54,2.62-5.26,1.22-5.82-.23-6.2-1.66-6.39-3.05-6.39-4.34-6.2-5.5-5.82-6.49-5.26-7.29-4.54-7.86-3.68-8.2-2.71-8.28-1.66-8.12-.56-7.71"/>
    <path class="st7" d="M811.48,496.8l1.38,5.17,2.26,4.29,3.07,3.29,3.78,2.19.12.03v-.03l4.18,1.13,4.85-.19,5.17-1.38,5.33-2.54,5.33-3.61,5.17-4.58,4.85-5.41,4.38-6.07.09-.12,3.78-6.55,3.07-6.83,2.26-6.9,1.39-6.77.46-6.42-.46-5.88-1.39-5.17-2.26-4.29-3.07-3.29-3.78-2.18-4.38-1.01-4.85.19-5.16,1.38-5.33,2.54-5.33,3.61-5.17,4.58-4.85,5.41-4.38,6.07-3.78,6.55-3.07,6.83-2.26,6.9-1.38,6.77-.46,6.42.46,5.88M805.44,486.76l1.66-8.12,2.71-8.28,3.68-8.2,4.54-7.86,5.26-7.29,5.82-6.49,6.2-5.5,6.39-4.34,6.4-3.05,6.2-1.66,5.82-.23,5.26,1.22,4.54,2.62,3.68,3.95,2.71,5.15,1.66,6.2.56,7.06-.56,7.7-1.66,8.12-2.71,8.28-3.68,8.2-4.54,7.86-5.26,7.29-5.82,6.49-6.2,5.5-6.4,4.34-6.39,3.04-6.2,1.66-5.82.23-5.26-1.22-4.54-2.62-3.68-3.95-2.71-5.15-1.66-6.2-.56-7.06.56-7.71"/>
    <polyline class="st7" points="861.34 489.08 856.96 495.15 852.11 500.56 846.95 505.14 841.62 508.75 836.29 511.29 831.12 512.68 826.27 512.87 822.1 511.74 861.34 489.08"/>
    <polyline class="st7" points="637.59 510.17 633.29 511.16 628.44 510.97 623.28 509.59 617.95 507.05 612.62 503.43 607.45 498.85 602.61 493.44 598.31 487.49 637.59 510.17"/>
    <path class="st7" d="M956.46,473.5l.46,6.42,1.39,6.77,2.26,6.9,3.07,6.83,3.78,6.55.09.12,4.29,5.96,4.85,5.41,5.16,4.58,5.33,3.61,5.33,2.54,5.17,1.38,4.85.19,4.29-.99.09-.02,3.78-2.18.06-.07,3.01-3.22,2.26-4.29,1.38-5.17.46-5.88-.46-6.42-1.38-6.77-2.26-6.9-2.8-6.24-.27-.6-3.78-6.55-4.38-6.07-4.85-5.41-1.42-1.26-3.74-3.32-5.33-3.62-5.33-2.54-5.16-1.38-4.85-.19-4.38,1.01-3.78,2.19-3.07,3.29-2.26,4.29-1.39,5.17-.46,5.88M950.32,469.96l.56-7.06,1.66-6.2,2.71-5.15,3.68-3.95,4.54-2.62,5.26-1.22,5.82.23,6.2,1.66,6.4,3.04,6.39,4.34,6.2,5.5,5.82,6.49,5.26,7.29,4.54,7.86,3.68,8.2,2.71,8.28,1.66,8.12.56,7.7-.56,7.06-1.66,6.2-2.71,5.15-3.68,3.95-4.54,2.62-5.26,1.22-5.82-.23-6.2-1.66-6.39-3.05-6.4-4.34-6.2-5.5-5.82-6.49-5.26-7.29-4.54-7.86-3.68-8.2-2.71-8.28-1.66-8.12-.56-7.71"/>
    <path class="st7" d="M432.38,493.93l1.38,5.16,2.26,4.29.29.31,2.78,2.98,3.78,2.18,4.38,1.01,4.85-.19,5.17-1.39,5.33-2.54,5.33-3.61,5.17-4.58,4.85-5.41,4.38-6.07,3.78-6.55,3.07-6.83,2.26-6.9,1.39-6.76.46-6.42-.46-5.88-1.39-5.16-2.26-4.29-3.07-3.29-3.78-2.18-4.38-1.01-4.85.19-5.17,1.39-5.33,2.54-3.21,2.18-2.12,1.44-5.17,4.58-4.85,5.41-4.38,6.07-3.78,6.55-2.78,6.19-.29.64-2.26,6.9-1.38,6.76-.47,6.42.47,5.88M425.78,491.59l.56-7.71,1.66-8.12,2.71-8.28,3.68-8.19,4.54-7.86,5.26-7.29,5.82-6.49,6.2-5.5,6.39-4.34,6.39-3.04,6.2-1.66,5.82-.22,5.26,1.21,4.54,2.62,3.68,3.95,2.71,5.15,1.66,6.2.56,7.06-.56,7.71-1.66,8.12-2.71,8.28-3.68,8.2-4.54,7.86-5.26,7.29-5.82,6.49-6.2,5.5-6.39,4.34-6.39,3.05-6.2,1.66-5.82.22-5.26-1.21-4.54-2.62-3.68-3.95-2.71-5.15-1.66-6.2-.56-7.06"/>
    <polyline class="st7" points="982.11 523.21 976.94 518.62 972.1 513.21 967.8 507.26 1006.78 529.77 1002.49 530.76 997.64 530.57 992.47 529.19 987.29 526.72 982.11 523.21"/>
    <polyline class="st9" points="467.7 460.3 469.01 469.67 469.01 478.4 467.82 485.51 467.7 485.11 465.11 481.01 461.33 477.22 456.47 473.88 450.67 471.07 444.12 468.89 437.01 467.39 436.32 467.32 439.1 461.13 442.88 454.58 447.26 448.51 452.11 443.1 457.27 438.51 459.39 437.08 461.33 440.86 465.11 450.6 467.7 460.3"/>
    <polyline class="st9" points="459.39 437.08 462.6 434.9 467.93 432.36 473.1 430.98 477.94 430.79 482.33 431.8 486.11 433.98 489.18 437.27 491.44 441.57 492.82 446.73 493.29 452.62 492.82 459.04 491.44 465.8 489.18 472.71 486.11 479.54 482.33 486.09 478.52 491.36 467.87 485.21 469.01 478.4 469.01 469.67 467.7 460.3 465.11 450.6 461.33 440.86 459.39 437.08"/>
    <polyline class="st9" points="632.45 458.88 629.54 451.96 627.38 444.99 627.02 443.12 628.44 444.38 633.29 449.79 637.67 455.86 641.46 462.41 641.72 463.01 636.13 465.65 636.05 465.53 632.45 458.88"/>
    <polyline class="st9" points="587.73 448.02 589.11 442.85 591.37 438.56 594.44 435.27 598.22 433.08 602.61 432.07 607.45 432.26 612.62 433.64 617.95 436.18 623.28 439.8 627.02 443.12 627.38 444.99 629.54 451.96 632.45 458.88 636.05 465.53 636.13 465.65 598.31 487.49 598.22 487.37 594.44 480.82 591.37 473.99 589.11 467.09 587.73 460.32 587.26 453.9 587.73 448.02"/>
    <polyline class="st9" points="641.52 507.9 641.46 507.96 637.67 510.15 637.59 510.17 641.52 507.9"/>
    <polyline class="st9" points="823.17 467.04 820.66 465.82 820.85 465.53 824.45 458.88 827.37 451.96 828.17 449.36 831.21 445.97 836.37 441.39 841.7 437.77 847.03 435.23 852.2 433.85 857.05 433.66 861.43 434.67 865.21 436.86 868.28 440.14 870.54 444.44 871.92 449.6 872.39 455.49 871.92 461.91 870.54 468.68 868.28 475.58 865.21 482.41 861.43 488.96 861.34 489.08 823.17 467.04"/>
    <polyline class="st9" points="820.85 465.53 820.66 465.82 817.97 464.51 818.2 464 821.98 457.45 826.36 451.38 828.17 449.36 827.37 451.96 824.45 458.88 820.85 465.53"/>
    <polyline class="st9" points="958.6 486.86 957.22 480.09 956.75 473.67 957.22 467.79 958.6 462.62 960.86 458.33 963.93 455.04 967.71 452.86 972.1 451.84 976.94 452.03 982.11 453.42 987.29 455.88 992.47 459.4 996.22 462.72 997.64 463.98 1002.49 469.39 1006.87 475.46 1010.65 482.01 1010.84 482.44 967.8 507.26 967.71 507.14 963.93 500.59 960.86 493.76 958.6 486.86"/>
    <polyline class="st8" points="467.7 486.24 467.87 485.21 478.52 491.36 477.94 492.16 473.1 497.57 467.93 502.15 462.6 505.77 457.27 508.3 452.11 509.69 447.26 509.88 442.88 508.87 439.1 506.68 436.32 503.7 437.01 503.96 444.12 505.08 450.67 504.49 456.47 502.22 461.33 498.34 465.11 492.96 467.7 486.24"/>
    <polyline class="st9" points="983.67 751.39 955.32 751.39 955.32 745.72 983.67 745.72 983.67 751.39"/>
    <polyline class="st9" points="1012.02 751.39 1012.02 745.72 1040.36 745.72 1040.36 751.39 1012.02 751.39"/>
    <polyline class="st9" points="1068.71 751.39 1068.71 745.72 1097.05 745.72 1097.05 751.39 1068.71 751.39"/>
    <line class="st2" x1="753.88" y1="382.24" x2="755.33" y2="382.26"/>
    <line class="st4" x1="781.18" y1="386.79" x2="755.33" y2="382.26"/>
    <line class="st2" x1="778.32" y1="386.52" x2="781.18" y2="386.79"/>
    <line class="st2" x1="775.16" y1="387.8" x2="778.32" y2="386.52"/>
    <line class="st2" x1="771.78" y1="390.58" x2="775.16" y2="387.8"/>
    <line class="st4" x1="755.33" y1="382.26" x2="728.45" y2="380.73"/>
    <line class="st2" x1="752.26" y1="383.79" x2="753.88" y2="382.24"/>
    <line class="st2" x1="750.54" y1="386.86" x2="752.26" y2="383.79"/>
    <line class="st2" x1="768.31" y1="394.78" x2="771.78" y2="390.58"/>
    <line class="st2" x1="728.45" y1="380.8" x2="728.45" y2="380.73"/>
    <line class="st2" x1="728.45" y1="382.44" x2="728.45" y2="380.8"/>
    <line class="st2" x1="728.45" y1="385.61" x2="728.45" y2="382.44"/>
    <line class="st2" x1="748.77" y1="391.36" x2="750.54" y2="386.86"/>
    <line class="st2" x1="764.83" y1="400.28" x2="768.31" y2="394.78"/>
    <line class="st2" x1="703.03" y1="382.24" x2="701.57" y2="382.26"/>
    <line class="st4" x1="728.45" y1="380.73" x2="701.57" y2="382.26"/>
    <line class="st2" x1="728.45" y1="390.21" x2="728.45" y2="385.61"/>
    <line class="st2" x1="747" y1="397.15" x2="748.77" y2="391.36"/>
    <line class="st2" x1="761.46" y1="406.89" x2="764.83" y2="400.28"/>
    <line class="st2" x1="828.17" y1="449.36" x2="827.37" y2="451.96"/>
    <line class="st2" x1="824.45" y1="458.88" x2="820.85" y2="465.53"/>
    <line class="st2" x1="827.37" y1="451.96" x2="824.45" y2="458.88"/>
    <line class="st2" x1="820.85" y1="465.53" x2="820.66" y2="465.82"/>
    <line class="st4" x1="824.61" y1="403.43" x2="805" y2="394.14"/>
    <line class="st4" x1="805" y1="394.14" x2="781.18" y2="386.79"/>
    <line class="st2" x1="800.85" y1="393.47" x2="805" y2="394.14"/>
    <line class="st2" x1="796.26" y1="394.31" x2="800.85" y2="393.47"/>
    <line class="st2" x1="819.61" y1="402.36" x2="824.61" y2="403.43"/>
    <line class="st4" x1="865.37" y1="426.97" x2="824.61" y2="403.43"/>
    <line class="st2" x1="814.07" y1="402.75" x2="819.61" y2="402.36"/>
    <line class="st2" x1="808.18" y1="404.59" x2="814.07" y2="402.75"/>
    <line class="st2" x1="791.36" y1="396.62" x2="796.26" y2="394.31"/>
    <line class="st2" x1="786.31" y1="400.34" x2="791.36" y2="396.62"/>
    <line class="st2" x1="802.1" y1="407.82" x2="808.18" y2="404.59"/>
    <line class="st2" x1="781.27" y1="405.35" x2="786.31" y2="400.34"/>
    <line class="st2" x1="796.02" y1="412.34" x2="802.1" y2="407.82"/>
    <line class="st2" x1="758.29" y1="414.43" x2="761.46" y2="406.89"/>
    <line class="st2" x1="776.37" y1="411.49" x2="781.27" y2="405.35"/>
    <line class="st2" x1="771.78" y1="418.6" x2="776.37" y2="411.49"/>
    <line class="st2" x1="790.12" y1="418.01" x2="796.02" y2="412.34"/>
    <line class="st2" x1="784.59" y1="424.67" x2="790.12" y2="418.01"/>
    <line class="st4" x1="599.54" y1="497.81" x2="594.28" y2="490.52"/>
    <line class="st4" x1="594.28" y1="490.52" x2="589.74" y2="482.66"/>
    <line class="st2" x1="632.45" y1="458.88" x2="636.05" y2="465.53"/>
    <line class="st4" x1="605.35" y1="504.3" x2="599.54" y2="497.81"/>
    <line class="st2" x1="636.05" y1="465.53" x2="636.13" y2="465.65"/>
    <line class="st2" x1="594.44" y1="480.82" x2="598.22" y2="487.37"/>
    <line class="st2" x1="602.61" y1="493.44" x2="607.45" y2="498.85"/>
    <line class="st2" x1="598.22" y1="487.37" x2="602.61" y2="493.44"/>
    <line class="st4" x1="611.56" y1="509.8" x2="605.35" y2="504.3"/>
    <line class="st4" x1="617.95" y1="514.13" x2="611.56" y2="509.8"/>
    <line class="st2" x1="607.45" y1="498.85" x2="612.62" y2="503.43"/>
    <line class="st4" x1="581.13" y1="450.36" x2="581.68" y2="443.3"/>
    <line class="st2" x1="627.02" y1="443.12" x2="627.38" y2="444.99"/>
    <line class="st2" x1="627.38" y1="444.99" x2="629.54" y2="451.96"/>
    <line class="st2" x1="629.54" y1="451.96" x2="632.45" y2="458.88"/>
    <line class="st4" x1="583.35" y1="466.18" x2="581.68" y2="458.06"/>
    <line class="st4" x1="581.68" y1="458.06" x2="581.13" y2="450.36"/>
    <line class="st4" x1="589.74" y1="482.66" x2="586.06" y2="474.46"/>
    <line class="st4" x1="586.06" y1="474.46" x2="583.35" y2="466.18"/>
    <line class="st2" x1="587.73" y1="460.32" x2="589.11" y2="467.09"/>
    <line class="st2" x1="587.26" y1="453.9" x2="587.73" y2="460.32"/>
    <line class="st2" x1="587.73" y1="448.02" x2="587.26" y2="453.9"/>
    <line class="st2" x1="591.37" y1="473.99" x2="594.44" y2="480.82"/>
    <line class="st2" x1="589.11" y1="467.09" x2="591.37" y2="473.99"/>
    <line class="st4" x1="581.68" y1="443.3" x2="583.35" y2="437.09"/>
    <line class="st4" x1="583.35" y1="437.09" x2="586.06" y2="431.94"/>
    <line class="st2" x1="589.11" y1="442.85" x2="587.73" y2="448.02"/>
    <line class="st2" x1="591.37" y1="438.56" x2="589.11" y2="442.85"/>
    <line class="st2" x1="594.44" y1="435.27" x2="591.37" y2="438.56"/>
    <line class="st2" x1="598.22" y1="433.08" x2="594.44" y2="435.27"/>
    <line class="st4" x1="701.57" y1="382.26" x2="675.72" y2="386.79"/>
    <line class="st2" x1="678.58" y1="386.52" x2="675.72" y2="386.79"/>
    <line class="st2" x1="681.74" y1="387.8" x2="678.58" y2="386.52"/>
    <line class="st2" x1="685.12" y1="390.58" x2="681.74" y2="387.8"/>
    <line class="st4" x1="651.9" y1="394.14" x2="632.3" y2="403.43"/>
    <line class="st2" x1="656.05" y1="393.47" x2="651.9" y2="394.14"/>
    <line class="st4" x1="675.72" y1="386.79" x2="651.9" y2="394.14"/>
    <line class="st2" x1="660.64" y1="394.31" x2="656.05" y2="393.47"/>
    <line class="st2" x1="637.3" y1="402.36" x2="632.3" y2="403.43"/>
    <line class="st2" x1="642.83" y1="402.75" x2="637.3" y2="402.36"/>
    <line class="st2" x1="648.72" y1="404.59" x2="642.83" y2="402.75"/>
    <line class="st2" x1="665.54" y1="396.62" x2="660.64" y2="394.31"/>
    <line class="st4" x1="611.56" y1="426.05" x2="617.95" y2="429.1"/>
    <line class="st4" x1="586.06" y1="431.94" x2="589.74" y2="428"/>
    <line class="st4" x1="632.3" y1="403.43" x2="594.28" y2="425.38"/>
    <line class="st4" x1="589.74" y1="428" x2="594.28" y2="425.38"/>
    <line class="st2" x1="602.61" y1="432.07" x2="598.22" y2="433.08"/>
    <line class="st4" x1="594.28" y1="425.38" x2="599.54" y2="424.16"/>
    <line class="st4" x1="599.54" y1="424.16" x2="605.35" y2="424.39"/>
    <line class="st2" x1="607.45" y1="432.26" x2="602.61" y2="432.07"/>
    <line class="st4" x1="605.35" y1="424.39" x2="611.56" y2="426.05"/>
    <line class="st2" x1="612.62" y1="433.64" x2="607.45" y2="432.26"/>
    <line class="st2" x1="617.95" y1="507.05" x2="623.28" y2="509.59"/>
    <line class="st2" x1="612.62" y1="503.43" x2="617.95" y2="507.05"/>
    <line class="st4" x1="624.34" y1="517.18" x2="617.95" y2="514.13"/>
    <line class="st4" x1="630.54" y1="518.84" x2="624.34" y2="517.18"/>
    <line class="st4" x1="636.36" y1="519.07" x2="630.54" y2="518.84"/>
    <line class="st2" x1="689.27" y1="491.58" x2="692.86" y2="489.43"/>
    <line class="st4" x1="701.47" y1="487.81" x2="689.27" y2="491.58"/>
    <line class="st2" x1="623.28" y1="509.59" x2="628.44" y2="510.97"/>
    <line class="st2" x1="628.44" y1="510.97" x2="633.29" y2="511.16"/>
    <line class="st4" x1="641.62" y1="517.85" x2="636.36" y2="519.07"/>
    <line class="st2" x1="633.29" y1="511.16" x2="637.67" y2="510.15"/>
    <line class="st2" x1="637.67" y1="510.15" x2="641.46" y2="507.96"/>
    <line class="st4" x1="689.27" y1="491.58" x2="677.31" y2="497.25"/>
    <line class="st2" x1="641.46" y1="507.96" x2="644.52" y2="504.68"/>
    <line class="st4" x1="646.16" y1="515.23" x2="641.62" y2="517.85"/>
    <line class="st2" x1="692.86" y1="434.77" x2="689.27" y2="426.43"/>
    <line class="st2" x1="628.44" y1="444.38" x2="623.28" y2="439.8"/>
    <line class="st2" x1="617.95" y1="436.18" x2="612.62" y2="433.64"/>
    <line class="st2" x1="623.28" y1="439.8" x2="617.95" y2="436.18"/>
    <line class="st2" x1="637.67" y1="455.86" x2="633.29" y2="449.79"/>
    <line class="st2" x1="633.29" y1="449.79" x2="628.44" y2="444.38"/>
    <line class="st2" x1="641.46" y1="462.41" x2="637.67" y2="455.86"/>
    <line class="st2" x1="644.52" y1="469.24" x2="641.46" y2="462.41"/>
    <line class="st2" x1="681.63" y1="440.09" x2="677.31" y2="432.1"/>
    <line class="st4" x1="641.62" y1="452.71" x2="646.16" y2="460.57"/>
    <line class="st2" x1="704.64" y1="383.79" x2="703.03" y2="382.24"/>
    <line class="st2" x1="706.36" y1="386.86" x2="704.64" y2="383.79"/>
    <line class="st2" x1="708.13" y1="391.36" x2="706.36" y2="386.86"/>
    <line class="st2" x1="711.62" y1="404.06" x2="709.9" y2="397.15"/>
    <line class="st2" x1="709.9" y1="397.15" x2="708.13" y2="391.36"/>
    <line class="st2" x1="728.45" y1="403.1" x2="728.45" y2="396.1"/>
    <line class="st2" x1="728.45" y1="396.1" x2="728.45" y2="390.21"/>
    <line class="st2" x1="688.59" y1="394.78" x2="685.12" y2="390.58"/>
    <line class="st2" x1="692.07" y1="400.28" x2="688.59" y2="394.78"/>
    <line class="st2" x1="695.44" y1="406.89" x2="692.07" y2="400.28"/>
    <line class="st2" x1="713.24" y1="411.87" x2="711.62" y2="404.06"/>
    <line class="st2" x1="654.8" y1="407.82" x2="648.72" y2="404.59"/>
    <line class="st2" x1="670.59" y1="400.34" x2="665.54" y2="396.62"/>
    <line class="st2" x1="675.64" y1="405.35" x2="670.59" y2="400.34"/>
    <line class="st2" x1="685.12" y1="418.6" x2="680.53" y2="411.49"/>
    <line class="st2" x1="680.53" y1="411.49" x2="675.64" y2="405.35"/>
    <line class="st2" x1="689.27" y1="426.43" x2="685.12" y2="418.6"/>
    <line class="st2" x1="701.47" y1="422.67" x2="698.61" y2="414.43"/>
    <line class="st2" x1="698.61" y1="414.43" x2="695.44" y2="406.89"/>
    <line class="st4" x1="617.95" y1="429.1" x2="624.34" y2="433.44"/>
    <line class="st2" x1="666.78" y1="418.01" x2="660.88" y2="412.34"/>
    <line class="st4" x1="624.34" y1="433.44" x2="630.54" y2="438.93"/>
    <line class="st2" x1="660.88" y1="412.34" x2="654.8" y2="407.82"/>
    <line class="st4" x1="630.54" y1="438.93" x2="636.36" y2="445.42"/>
    <line class="st4" x1="636.36" y1="445.42" x2="641.62" y2="452.71"/>
    <line class="st2" x1="677.31" y1="432.1" x2="672.31" y2="424.67"/>
    <line class="st2" x1="672.31" y1="424.67" x2="666.78" y2="418.01"/>
    <line class="st4" x1="728.45" y1="484.72" x2="714.69" y2="485.5"/>
    <line class="st4" x1="742.21" y1="485.5" x2="728.45" y2="484.72"/>
    <line class="st2" x1="728.45" y1="484.72" x2="728.45" y2="483.2"/>
    <line class="st2" x1="742.21" y1="485.5" x2="740.95" y2="483.91"/>
    <line class="st2" x1="740.95" y1="483.91" x2="739.93" y2="480.8"/>
    <line class="st2" x1="701.47" y1="487.81" x2="703.93" y2="486.01"/>
    <line class="st4" x1="714.69" y1="485.5" x2="701.47" y2="487.81"/>
    <line class="st2" x1="703.93" y1="486.01" x2="705.94" y2="482.74"/>
    <line class="st2" x1="714.69" y1="485.5" x2="715.95" y2="483.91"/>
    <line class="st2" x1="715.95" y1="483.91" x2="716.97" y2="480.8"/>
    <line class="st2" x1="728.45" y1="483.2" x2="728.45" y2="480.15"/>
    <line class="st4" x1="681.63" y1="494.75" x2="646.16" y2="515.23"/>
    <line class="st4" x1="649.84" y1="511.29" x2="646.16" y2="515.23"/>
    <line class="st2" x1="692.86" y1="489.43" x2="695.76" y2="485.87"/>
    <line class="st2" x1="681.63" y1="494.75" x2="685.13" y2="490.91"/>
    <line class="st4" x1="652.55" y1="506.14" x2="649.84" y2="511.29"/>
    <line class="st2" x1="685.13" y1="490.91" x2="687.71" y2="485.84"/>
    <line class="st2" x1="728.45" y1="480.15" x2="728.45" y2="475.66"/>
    <line class="st2" x1="728.45" y1="475.66" x2="728.45" y2="469.86"/>
    <line class="st2" x1="728.45" y1="469.86" x2="728.45" y2="462.94"/>
    <line class="st2" x1="739.93" y1="480.8" x2="739.18" y2="476.27"/>
    <line class="st2" x1="716.97" y1="480.8" x2="717.72" y2="476.27"/>
    <line class="st2" x1="717.72" y1="476.27" x2="718.19" y2="470.44"/>
    <line class="st2" x1="718.19" y1="470.44" x2="718.34" y2="463.51"/>
    <line class="st2" x1="695.76" y1="485.87" x2="697.91" y2="481.01"/>
    <line class="st2" x1="705.94" y1="482.74" x2="707.41" y2="478.07"/>
    <line class="st2" x1="697.91" y1="481.01" x2="699.22" y2="474.98"/>
    <line class="st2" x1="699.22" y1="474.98" x2="699.66" y2="467.98"/>
    <line class="st2" x1="707.41" y1="478.07" x2="708.31" y2="472.17"/>
    <line class="st2" x1="708.31" y1="472.17" x2="708.62" y2="465.21"/>
    <line class="st2" x1="644.52" y1="504.68" x2="646.78" y2="500.38"/>
    <line class="st2" x1="646.78" y1="500.38" x2="648.17" y2="495.22"/>
    <line class="st2" x1="648.17" y1="495.22" x2="648.64" y2="489.33"/>
    <line class="st4" x1="654.21" y1="499.94" x2="652.55" y2="506.14"/>
    <line class="st2" x1="687.71" y1="485.84" x2="689.29" y2="479.69"/>
    <line class="st4" x1="654.77" y1="492.87" x2="654.21" y2="499.94"/>
    <line class="st2" x1="689.29" y1="479.69" x2="689.82" y2="472.64"/>
    <line class="st2" x1="728.45" y1="462.94" x2="728.45" y2="455.09"/>
    <line class="st2" x1="728.45" y1="455.09" x2="728.45" y2="446.57"/>
    <line class="st2" x1="718.19" y1="455.68" x2="717.72" y2="447.18"/>
    <line class="st2" x1="718.34" y1="463.51" x2="718.19" y2="455.68"/>
    <line class="st2" x1="699.66" y1="467.98" x2="699.22" y2="460.21"/>
    <line class="st2" x1="699.22" y1="460.21" x2="697.91" y2="451.92"/>
    <line class="st2" x1="708.62" y1="465.21" x2="708.31" y2="457.41"/>
    <line class="st2" x1="708.31" y1="457.41" x2="707.41" y2="448.99"/>
    <line class="st2" x1="648.17" y1="482.91" x2="646.78" y2="476.14"/>
    <line class="st2" x1="648.64" y1="489.33" x2="648.17" y2="482.91"/>
    <line class="st4" x1="652.55" y1="477.05" x2="654.21" y2="485.17"/>
    <line class="st2" x1="689.29" y1="464.92" x2="687.71" y2="456.75"/>
    <line class="st4" x1="654.21" y1="485.17" x2="654.77" y2="492.87"/>
    <line class="st2" x1="689.82" y1="472.64" x2="689.29" y2="464.92"/>
    <line class="st2" x1="728.45" y1="411.01" x2="728.45" y2="403.1"/>
    <line class="st2" x1="745.28" y1="404.06" x2="747" y2="397.15"/>
    <line class="st2" x1="743.66" y1="411.87" x2="745.28" y2="404.06"/>
    <line class="st2" x1="742.21" y1="420.36" x2="743.66" y2="411.87"/>
    <line class="st2" x1="728.45" y1="419.57" x2="728.45" y2="411.01"/>
    <line class="st2" x1="728.45" y1="437.63" x2="728.45" y2="428.54"/>
    <line class="st2" x1="728.45" y1="428.54" x2="728.45" y2="419.57"/>
    <line class="st2" x1="739.93" y1="438.28" x2="740.95" y2="429.25"/>
    <line class="st2" x1="740.95" y1="429.25" x2="742.21" y2="420.36"/>
    <line class="st2" x1="703.93" y1="431.35" x2="701.47" y2="422.67"/>
    <line class="st2" x1="705.94" y1="440.22" x2="703.93" y2="431.35"/>
    <line class="st2" x1="714.69" y1="420.36" x2="713.24" y2="411.87"/>
    <line class="st2" x1="716.97" y1="438.28" x2="715.95" y2="429.25"/>
    <line class="st2" x1="715.95" y1="429.25" x2="714.69" y2="420.36"/>
    <line class="st2" x1="717.72" y1="447.18" x2="716.97" y2="438.28"/>
    <line class="st2" x1="728.45" y1="446.57" x2="728.45" y2="437.63"/>
    <line class="st2" x1="646.78" y1="476.14" x2="644.52" y2="469.24"/>
    <line class="st4" x1="646.16" y1="460.57" x2="649.84" y2="468.77"/>
    <line class="st2" x1="695.76" y1="443.35" x2="692.86" y2="434.77"/>
    <line class="st2" x1="685.13" y1="448.39" x2="681.63" y2="440.09"/>
    <line class="st4" x1="649.84" y1="468.77" x2="652.55" y2="477.05"/>
    <line class="st2" x1="687.71" y1="456.75" x2="685.13" y2="448.39"/>
    <line class="st2" x1="697.91" y1="451.92" x2="695.76" y2="443.35"/>
    <line class="st2" x1="707.41" y1="448.99" x2="705.94" y2="440.22"/>
    <line class="st4" x1="779.59" y1="497.25" x2="767.63" y2="491.58"/>
    <line class="st4" x1="767.63" y1="491.58" x2="755.44" y2="487.81"/>
    <line class="st2" x1="755.44" y1="487.81" x2="752.97" y2="486.01"/>
    <line class="st2" x1="767.63" y1="491.58" x2="764.04" y2="489.43"/>
    <line class="st4" x1="813.5" y1="516.82" x2="775.27" y2="494.75"/>
    <line class="st2" x1="775.27" y1="494.75" x2="771.77" y2="490.91"/>
    <line class="st4" x1="755.44" y1="487.81" x2="742.21" y2="485.5"/>
    <line class="st2" x1="752.97" y1="486.01" x2="750.97" y2="482.74"/>
    <line class="st2" x1="750.97" y1="482.74" x2="749.49" y2="478.07"/>
    <line class="st2" x1="764.04" y1="489.43" x2="761.14" y2="485.87"/>
    <line class="st2" x1="761.14" y1="485.87" x2="759" y2="481.01"/>
    <line class="st2" x1="771.77" y1="490.91" x2="769.19" y2="485.84"/>
    <line class="st2" x1="769.19" y1="485.84" x2="767.61" y2="479.69"/>
    <line class="st2" x1="739.18" y1="476.27" x2="738.72" y2="470.44"/>
    <line class="st2" x1="738.72" y1="470.44" x2="738.56" y2="463.51"/>
    <line class="st2" x1="749.49" y1="478.07" x2="748.59" y2="472.17"/>
    <line class="st2" x1="748.59" y1="472.17" x2="748.28" y2="465.21"/>
    <line class="st2" x1="759" y1="481.01" x2="757.68" y2="474.98"/>
    <line class="st2" x1="757.68" y1="474.98" x2="757.24" y2="467.98"/>
    <line class="st2" x1="767.61" y1="479.69" x2="767.08" y2="472.64"/>
    <line class="st2" x1="757.68" y1="460.21" x2="759" y2="451.92"/>
    <line class="st2" x1="767.08" y1="472.64" x2="767.61" y2="464.92"/>
    <line class="st2" x1="767.61" y1="464.92" x2="769.19" y2="456.75"/>
    <line class="st2" x1="738.72" y1="455.68" x2="739.18" y2="447.18"/>
    <line class="st2" x1="738.56" y1="463.51" x2="738.72" y2="455.68"/>
    <line class="st2" x1="748.28" y1="465.21" x2="748.59" y2="457.41"/>
    <line class="st2" x1="748.59" y1="457.41" x2="749.49" y2="448.99"/>
    <line class="st2" x1="757.24" y1="467.98" x2="757.68" y2="460.21"/>
    <line class="st2" x1="767.63" y1="426.43" x2="771.78" y2="418.6"/>
    <line class="st2" x1="779.59" y1="432.1" x2="784.59" y2="424.67"/>
    <line class="st2" x1="755.44" y1="422.67" x2="758.29" y2="414.43"/>
    <line class="st2" x1="775.27" y1="440.09" x2="779.59" y2="432.1"/>
    <line class="st2" x1="752.97" y1="431.35" x2="755.44" y2="422.67"/>
    <line class="st2" x1="771.77" y1="448.39" x2="775.27" y2="440.09"/>
    <line class="st2" x1="764.04" y1="434.77" x2="767.63" y2="426.43"/>
    <line class="st2" x1="739.18" y1="447.18" x2="739.93" y2="438.28"/>
    <line class="st2" x1="750.97" y1="440.22" x2="752.97" y2="431.35"/>
    <line class="st2" x1="749.49" y1="448.99" x2="750.97" y2="440.22"/>
    <line class="st2" x1="759" y1="451.92" x2="761.14" y2="443.35"/>
    <line class="st2" x1="761.14" y1="443.35" x2="764.04" y2="434.77"/>
    <line class="st2" x1="769.19" y1="456.75" x2="771.77" y2="448.39"/>
    <line class="st2" x1="861.38" y1="489.06" x2="861.34" y2="489.08"/>
    <line class="st4" x1="813.5" y1="516.82" x2="818.03" y2="519.44"/>
    <line class="st4" x1="818.03" y1="519.44" x2="823.29" y2="520.66"/>
    <line class="st4" x1="823.29" y1="520.66" x2="829.11" y2="520.43"/>
    <line class="st4" x1="829.11" y1="520.43" x2="835.31" y2="518.77"/>
    <line class="st4" x1="835.31" y1="518.77" x2="841.7" y2="515.72"/>
    <line class="st4" x1="841.7" y1="515.72" x2="848.1" y2="511.39"/>
    <line class="st4" x1="848.1" y1="511.39" x2="854.3" y2="505.89"/>
    <line class="st4" x1="854.3" y1="505.89" x2="860.11" y2="499.4"/>
    <line class="st4" x1="860.11" y1="499.4" x2="865.37" y2="492.11"/>
    <line class="st4" x1="865.37" y1="492.11" x2="869.91" y2="484.25"/>
    <line class="st4" x1="869.91" y1="484.25" x2="873.59" y2="476.05"/>
    <line class="st4" x1="873.59" y1="476.05" x2="876.31" y2="467.77"/>
    <line class="st4" x1="876.31" y1="467.77" x2="877.97" y2="459.65"/>
    <line class="st4" x1="877.97" y1="459.65" x2="878.53" y2="451.95"/>
    <line class="st4" x1="878.53" y1="451.95" x2="877.97" y2="444.88"/>
    <line class="st4" x1="877.97" y1="444.88" x2="876.31" y2="438.68"/>
    <line class="st4" x1="876.31" y1="438.68" x2="873.59" y2="433.53"/>
    <line class="st4" x1="873.59" y1="433.53" x2="869.91" y2="429.59"/>
    <line class="st4" x1="869.91" y1="429.59" x2="865.37" y2="426.97"/>
    <line class="st2" x1="861.34" y1="489.08" x2="861.43" y2="488.96"/>
    <line class="st2" x1="861.43" y1="488.96" x2="865.21" y2="482.41"/>
    <line class="st2" x1="865.21" y1="482.41" x2="868.28" y2="475.58"/>
    <line class="st2" x1="868.28" y1="475.58" x2="870.54" y2="468.68"/>
    <line class="st2" x1="870.54" y1="468.68" x2="871.92" y2="461.91"/>
    <line class="st2" x1="871.92" y1="461.91" x2="872.39" y2="455.49"/>
    <line class="st2" x1="872.39" y1="455.49" x2="871.92" y2="449.6"/>
    <line class="st2" x1="871.92" y1="449.6" x2="870.54" y2="444.44"/>
    <line class="st2" x1="870.54" y1="444.44" x2="868.28" y2="440.14"/>
    <line class="st2" x1="868.28" y1="440.14" x2="865.21" y2="436.86"/>
    <line class="st2" x1="865.21" y1="436.86" x2="861.43" y2="434.67"/>
    <line class="st2" x1="861.43" y1="434.67" x2="857.05" y2="433.66"/>
    <line class="st2" x1="857.05" y1="433.66" x2="852.2" y2="433.85"/>
    <line class="st2" x1="852.2" y1="433.85" x2="847.03" y2="435.23"/>
    <line class="st2" x1="847.03" y1="435.23" x2="841.7" y2="437.77"/>
    <line class="st2" x1="841.7" y1="437.77" x2="836.37" y2="441.39"/>
    <line class="st2" x1="836.37" y1="441.39" x2="831.21" y2="445.97"/>
    <line class="st2" x1="831.21" y1="445.97" x2="826.36" y2="451.38"/>
    <line class="st2" x1="826.36" y1="451.38" x2="821.98" y2="457.45"/>
    <line class="st2" x1="821.98" y1="457.45" x2="818.2" y2="464"/>
    <line class="st2" x1="818.2" y1="464" x2="815.13" y2="470.83"/>
    <line class="st2" x1="815.13" y1="470.83" x2="812.87" y2="477.73"/>
    <line class="st2" x1="812.87" y1="477.73" x2="811.48" y2="484.5"/>
    <line class="st2" x1="811.48" y1="484.5" x2="811.02" y2="490.92"/>
    <line class="st2" x1="811.02" y1="490.92" x2="811.48" y2="496.8"/>
    <line class="st2" x1="811.48" y1="496.8" x2="812.87" y2="501.97"/>
    <line class="st2" x1="812.87" y1="501.97" x2="815.13" y2="506.26"/>
    <line class="st2" x1="815.13" y1="506.26" x2="818.2" y2="509.55"/>
    <line class="st2" x1="818.2" y1="509.55" x2="821.98" y2="511.74"/>
    <line class="st2" x1="821.98" y1="511.74" x2="822.1" y2="511.76"/>
    <line class="st1" x1="822.1" y1="511.74" x2="818.06" y2="509.41"/>
    <line class="st1" x1="822.1" y1="511.74" x2="822.1" y2="511.76"/>
    <line class="st1" x1="861.34" y1="489.08" x2="822.1" y2="511.74"/>
    <line class="st0" x1="817.97" y1="464.51" x2="823.58" y2="467.24"/>
    <line class="st0" x1="636.13" y1="465.65" x2="641.72" y2="463.01"/>
    <line class="st0" x1="598.31" y1="487.49" x2="636.13" y2="465.65"/>
    <line class="st1" x1="637.59" y1="510.17" x2="598.31" y2="487.49"/>
    <line class="st1" x1="641.52" y1="507.9" x2="637.59" y2="510.17"/>
    <line class="st4" x1="1019.03" y1="530.89" x2="1015.35" y2="534.84"/>
    <line class="st4" x1="1021.75" y1="525.74" x2="1019.03" y2="530.89"/>
    <line class="st4" x1="1015.35" y1="534.84" x2="1089" y2="492.32"/>
    <line class="st4" x1="1023.97" y1="512.48" x2="1023.41" y2="519.54"/>
    <line class="st4" x1="1023.41" y1="519.54" x2="1021.75" y2="525.74"/>
    <line class="st1" x1="1017.66" y1="514.99" x2="1018.12" y2="509.1"/>
    <line class="st1" x1="1016.27" y1="520.15" x2="1017.66" y2="514.99"/>
    <line class="st4" x1="1023.41" y1="504.77" x2="1023.97" y2="512.48"/>
    <line class="st1" x1="1018.12" y1="509.1" x2="1017.66" y2="502.68"/>
    <line class="st4" x1="1021.75" y1="496.65" x2="1023.41" y2="504.77"/>
    <line class="st4" x1="1019.03" y1="488.37" x2="1021.75" y2="496.65"/>
    <line class="st1" x1="1017.66" y1="502.68" x2="1016.27" y2="495.92"/>
    <line class="st4" x1="1015.35" y1="480.17" x2="1019.03" y2="488.37"/>
    <line class="st4" x1="1010.81" y1="537.46" x2="1005.56" y2="538.67"/>
    <line class="st4" x1="1005.56" y1="538.67" x2="999.74" y2="538.44"/>
    <line class="st4" x1="999.74" y1="538.44" x2="993.54" y2="536.78"/>
    <line class="st1" x1="1010.94" y1="527.74" x2="1014.01" y2="524.45"/>
    <line class="st1" x1="1014.01" y1="524.45" x2="1016.27" y2="520.15"/>
    <line class="st4" x1="1015.35" y1="534.84" x2="1010.81" y2="537.46"/>
    <line class="st1" x1="1007.16" y1="529.92" x2="1010.94" y2="527.74"/>
    <line class="st1" x1="997.93" y1="530.74" x2="1002.78" y2="530.93"/>
    <line class="st1" x1="1002.78" y1="530.93" x2="1007.16" y2="529.92"/>
    <line class="st1" x1="1016.27" y1="495.92" x2="1014.01" y2="489.01"/>
    <line class="st1" x1="1014.01" y1="489.01" x2="1010.94" y2="482.18"/>
    <line class="st1" x1="1010.94" y1="482.18" x2="1007.16" y2="475.63"/>
    <line class="st1" x1="1007.16" y1="475.63" x2="1002.78" y2="469.56"/>
    <line class="st4" x1="1010.81" y1="472.31" x2="1015.35" y2="480.17"/>
    <line class="st4" x1="1005.56" y1="465.02" x2="1010.81" y2="472.31"/>
    <line class="st4" x1="999.74" y1="458.53" x2="1005.56" y2="465.02"/>
    <line class="st1" x1="1002.78" y1="469.56" x2="997.93" y2="464.15"/>
    <line class="st4" x1="993.54" y1="453.04" x2="999.74" y2="458.53"/>
    <line class="st4" x1="993.54" y1="536.78" x2="987.14" y2="533.74"/>
    <line class="st4" x1="987.14" y1="533.74" x2="980.75" y2="529.4"/>
    <line class="st4" x1="980.75" y1="529.4" x2="974.55" y2="523.9"/>
    <line class="st4" x1="974.55" y1="523.9" x2="968.73" y2="517.41"/>
    <line class="st1" x1="992.77" y1="529.36" x2="997.93" y2="530.74"/>
    <line class="st1" x1="987.44" y1="526.82" x2="992.77" y2="529.36"/>
    <line class="st1" x1="982.11" y1="523.21" x2="987.44" y2="526.82"/>
    <line class="st1" x1="976.94" y1="518.62" x2="982.11" y2="523.21"/>
    <line class="st1" x1="972.1" y1="513.21" x2="976.94" y2="518.62"/>
    <line class="st1" x1="997.93" y1="464.15" x2="992.77" y2="459.57"/>
    <line class="st1" x1="976.94" y1="452.03" x2="972.1" y2="451.84"/>
    <line class="st1" x1="982.11" y1="453.42" x2="976.94" y2="452.03"/>
    <line class="st1" x1="992.77" y1="459.57" x2="987.44" y2="455.95"/>
    <line class="st4" x1="987.14" y1="448.7" x2="993.54" y2="453.04"/>
    <line class="st1" x1="987.44" y1="455.95" x2="982.11" y2="453.42"/>
    <line class="st4" x1="980.75" y1="445.65" x2="987.14" y2="448.7"/>
    <line class="st4" x1="974.55" y1="443.99" x2="980.75" y2="445.65"/>
    <line class="st1" x1="967.71" y1="507.14" x2="972.1" y2="513.21"/>
    <line class="st4" x1="968.73" y1="517.41" x2="963.47" y2="510.12"/>
    <line class="st1" x1="963.93" y1="500.59" x2="967.71" y2="507.14"/>
    <line class="st4" x1="963.47" y1="510.12" x2="958.94" y2="502.26"/>
    <line class="st4" x1="958.94" y1="502.26" x2="955.25" y2="494.07"/>
    <line class="st1" x1="960.86" y1="493.76" x2="963.93" y2="500.59"/>
    <line class="st1" x1="958.6" y1="486.86" x2="960.86" y2="493.76"/>
    <line class="st1" x1="957.22" y1="480.09" x2="958.6" y2="486.86"/>
    <line class="st4" x1="955.25" y1="494.07" x2="952.54" y2="485.78"/>
    <line class="st4" x1="952.54" y1="485.78" x2="950.88" y2="477.66"/>
    <line class="st4" x1="950.88" y1="477.66" x2="950.32" y2="469.96"/>
    <line class="st1" x1="956.75" y1="473.67" x2="957.22" y2="480.09"/>
    <line class="st4" x1="952.54" y1="456.7" x2="955.25" y2="451.55"/>
    <line class="st4" x1="950.32" y1="469.96" x2="950.88" y2="462.9"/>
    <line class="st4" x1="950.88" y1="462.9" x2="952.54" y2="456.7"/>
    <line class="st1" x1="957.22" y1="467.79" x2="956.75" y2="473.67"/>
    <line class="st1" x1="958.6" y1="462.62" x2="957.22" y2="467.79"/>
    <line class="st1" x1="960.86" y1="458.33" x2="958.6" y2="462.62"/>
    <line class="st1" x1="972.1" y1="451.84" x2="967.71" y2="452.86"/>
    <line class="st4" x1="968.73" y1="443.76" x2="974.55" y2="443.99"/>
    <line class="st4" x1="963.47" y1="444.98" x2="968.73" y2="443.76"/>
    <line class="st1" x1="963.93" y1="455.04" x2="960.86" y2="458.33"/>
    <line class="st4" x1="958.94" y1="447.6" x2="963.47" y2="444.98"/>
    <line class="st4" x1="955.25" y1="451.55" x2="958.94" y2="447.6"/>
    <line class="st1" x1="967.71" y1="452.86" x2="963.93" y2="455.04"/>
    <line class="st4" x1="963.47" y1="444.98" x2="1037.12" y2="402.46"/>
    <line class="st4" x1="1037.12" y1="402.46" x2="1042.38" y2="401.24"/>
    <line class="st4" x1="1042.38" y1="401.24" x2="1048.2" y2="401.47"/>
    <line class="st4" x1="1048.2" y1="401.47" x2="1054.4" y2="403.13"/>
    <line class="st4" x1="1054.4" y1="403.13" x2="1060.79" y2="406.18"/>
    <line class="st4" x1="1060.79" y1="406.18" x2="1067.19" y2="410.52"/>
    <line class="st4" x1="1067.19" y1="410.52" x2="1073.39" y2="416.01"/>
    <line class="st4" x1="1073.39" y1="416.01" x2="1079.2" y2="422.5"/>
    <line class="st4" x1="1079.2" y1="422.5" x2="1084.46" y2="429.79"/>
    <line class="st4" x1="1084.46" y1="429.79" x2="1089" y2="437.65"/>
    <line class="st4" x1="1089" y1="437.65" x2="1092.68" y2="445.85"/>
    <line class="st4" x1="1092.68" y1="445.85" x2="1095.39" y2="454.13"/>
    <line class="st4" x1="1095.39" y1="454.13" x2="1097.05" y2="462.25"/>
    <line class="st4" x1="1097.05" y1="462.25" x2="1097.61" y2="469.96"/>
    <line class="st4" x1="1097.61" y1="469.96" x2="1097.05" y2="477.02"/>
    <line class="st4" x1="1097.05" y1="477.02" x2="1095.39" y2="483.22"/>
    <line class="st4" x1="1095.39" y1="483.22" x2="1092.68" y2="488.37"/>
    <line class="st4" x1="1092.68" y1="488.37" x2="1089" y2="492.32"/>
    <line class="st1" x1="1011" y1="527.68" x2="1007.08" y2="529.94"/>
    <line class="st0" x1="967.8" y1="507.26" x2="1011.02" y2="482.34"/>
    <line class="st1" x1="1007.08" y1="529.94" x2="967.8" y2="507.26"/>
    <line class="st1" x1="856.96" y1="495.15" x2="852.11" y2="500.56"/>
    <line class="st1" x1="861.34" y1="489.08" x2="856.96" y2="495.15"/>
    <line class="st1" x1="852.11" y1="500.56" x2="846.95" y2="505.14"/>
    <line class="st1" x1="841.62" y1="508.75" x2="836.29" y2="511.29"/>
    <line class="st1" x1="846.95" y1="505.14" x2="841.62" y2="508.75"/>
    <line class="st1" x1="836.29" y1="511.29" x2="831.12" y2="512.68"/>
    <line class="st1" x1="831.12" y1="512.68" x2="826.27" y2="512.87"/>
    <line class="st1" x1="826.27" y1="512.87" x2="822.1" y2="511.74"/>
    <line class="st4" x1="375.48" y1="404.47" x2="373.9" y2="413.88"/>
    <line class="st4" x1="373.9" y1="413.88" x2="373.9" y2="424.36"/>
    <line class="st2" x1="373.9" y1="424.36" x2="375.48" y2="435.6"/>
    <line class="st4" x1="388.96" y1="385.29" x2="383.12" y2="389.95"/>
    <line class="st4" x1="383.12" y1="389.95" x2="378.58" y2="396.41"/>
    <line class="st4" x1="378.58" y1="396.41" x2="375.48" y2="404.47"/>
    <line class="st4" x1="395.91" y1="382.57" x2="388.96" y2="385.29"/>
    <line class="st4" x1="403.77" y1="381.87" x2="395.91" y2="382.57"/>
    <line class="st4" x1="412.3" y1="383.21" x2="403.77" y2="381.87"/>
    <line class="st4" x1="421.24" y1="386.55" x2="412.3" y2="383.21"/>
    <line class="st4" x1="486.27" y1="424.09" x2="421.24" y2="386.55"/>
    <line class="st4" x1="434.39" y1="459.29" x2="430.71" y2="467.48"/>
    <line class="st4" x1="430.71" y1="467.48" x2="428" y2="475.77"/>
    <line class="st2" x1="375.48" y1="435.6" x2="378.58" y2="447.24"/>
    <line class="st4" x1="428" y1="475.77" x2="426.34" y2="483.89"/>
    <line class="st4" x1="462.6" y1="427.81" x2="456.21" y2="432.15"/>
    <line class="st4" x1="469" y1="424.77" x2="462.6" y2="427.81"/>
    <line class="st4" x1="456.21" y1="432.15" x2="450.01" y2="437.65"/>
    <line class="st4" x1="444.19" y1="444.14" x2="438.93" y2="451.43"/>
    <line class="st4" x1="450.01" y1="437.65" x2="444.19" y2="444.14"/>
    <line class="st4" x1="438.93" y1="451.43" x2="434.39" y2="459.29"/>
    <line class="st4" x1="475.2" y1="423.11" x2="469" y2="424.77"/>
    <line class="st4" x1="481.01" y1="422.88" x2="475.2" y2="423.11"/>
    <line class="st4" x1="486.27" y1="424.09" x2="481.01" y2="422.88"/>
    <line class="st4" x1="490.81" y1="426.72" x2="486.27" y2="424.09"/>
    <line class="st4" x1="494.49" y1="430.66" x2="490.81" y2="426.72"/>
    <line class="st4" x1="497.21" y1="435.81" x2="494.49" y2="430.66"/>
    <line class="st4" x1="498.87" y1="442.01" x2="497.21" y2="435.81"/>
    <line class="st2" x1="442.88" y1="454.58" x2="439.1" y2="461.13"/>
    <line class="st2" x1="439.1" y1="461.13" x2="436.03" y2="467.96"/>
    <line class="st2" x1="436.03" y1="467.96" x2="433.77" y2="474.86"/>
    <line class="st2" x1="462.6" y1="434.9" x2="457.27" y2="438.51"/>
    <line class="st2" x1="457.27" y1="438.51" x2="452.11" y2="443.1"/>
    <line class="st2" x1="452.11" y1="443.1" x2="447.26" y2="448.51"/>
    <line class="st2" x1="447.26" y1="448.51" x2="442.88" y2="454.58"/>
    <line class="st2" x1="467.93" y1="432.36" x2="462.6" y2="434.9"/>
    <line class="st2" x1="477.94" y1="430.79" x2="473.1" y2="430.98"/>
    <line class="st2" x1="473.1" y1="430.98" x2="467.93" y2="432.36"/>
    <line class="st2" x1="482.33" y1="431.8" x2="477.94" y2="430.79"/>
    <line class="st2" x1="486.11" y1="433.98" x2="482.33" y2="431.8"/>
    <line class="st2" x1="491.44" y1="441.57" x2="489.18" y2="437.27"/>
    <line class="st2" x1="489.18" y1="437.27" x2="486.11" y2="433.98"/>
    <line class="st4" x1="373.9" y1="424.36" x2="373.9" y2="494.21"/>
    <line class="st2" x1="378.58" y1="447.24" x2="383.12" y2="458.94"/>
    <line class="st2" x1="383.12" y1="458.94" x2="388.96" y2="470.33"/>
    <line class="st2" x1="388.96" y1="470.33" x2="395.91" y2="481.09"/>
    <line class="st2" x1="395.91" y1="481.09" x2="403.77" y2="490.87"/>
    <line class="st2" x1="467.7" y1="460.3" x2="465.11" y2="450.6"/>
    <line class="st2" x1="461.33" y1="440.86" x2="459.39" y2="437.08"/>
    <line class="st2" x1="465.11" y1="450.6" x2="461.33" y2="440.86"/>
    <line class="st4" x1="497.21" y1="464.9" x2="498.87" y2="456.78"/>
    <line class="st4" x1="499.43" y1="449.07" x2="498.87" y2="442.01"/>
    <line class="st4" x1="498.87" y1="456.78" x2="499.43" y2="449.07"/>
    <line class="st4" x1="426.34" y1="483.89" x2="425.78" y2="491.59"/>
    <line class="st4" x1="425.78" y1="491.59" x2="426.34" y2="498.65"/>
    <line class="st4" x1="426.34" y1="498.65" x2="428" y2="504.85"/>
    <line class="st2" x1="433.77" y1="474.86" x2="432.38" y2="481.63"/>
    <line class="st2" x1="432.38" y1="481.63" x2="431.92" y2="488.05"/>
    <line class="st2" x1="431.92" y1="488.05" x2="432.38" y2="493.93"/>
    <line class="st2" x1="432.38" y1="493.93" x2="433.77" y2="499.1"/>
    <line class="st2" x1="492.82" y1="446.73" x2="491.44" y2="441.57"/>
    <line class="st2" x1="491.44" y1="465.8" x2="492.82" y2="459.04"/>
    <line class="st2" x1="433.77" y1="499.1" x2="436.03" y2="503.39"/>
    <line class="st2" x1="489.18" y1="472.71" x2="491.44" y2="465.8"/>
    <line class="st2" x1="493.29" y1="452.62" x2="492.82" y2="446.73"/>
    <line class="st2" x1="492.82" y1="459.04" x2="493.29" y2="452.62"/>
    <line class="st2" x1="403.77" y1="490.87" x2="412.3" y2="499.37"/>
    <line class="st2" x1="412.3" y1="499.37" x2="421.24" y2="506.36"/>
    <line class="st2" x1="436.32" y1="503.7" x2="437.01" y2="503.96"/>
    <line class="st2" x1="469.01" y1="469.67" x2="467.7" y2="460.3"/>
    <line class="st2" x1="469.01" y1="478.4" x2="469.01" y2="469.67"/>
    <line class="st2" x1="467.7" y1="486.24" x2="469.01" y2="478.4"/>
    <line class="st2" x1="434.39" y1="513.95" x2="421.24" y2="506.36"/>
    <line class="st2" x1="437.01" y1="503.96" x2="444.12" y2="505.08"/>
    <line class="st2" x1="465.11" y1="492.96" x2="467.7" y2="486.24"/>
    <line class="st2" x1="444.12" y1="505.08" x2="450.67" y2="504.49"/>
    <line class="st4" x1="430.71" y1="510" x2="434.39" y2="513.95"/>
    <line class="st4" x1="428" y1="504.85" x2="430.71" y2="510"/>
    <line class="st4" x1="438.93" y1="516.57" x2="444.19" y2="517.79"/>
    <line class="st4" x1="434.39" y1="513.95" x2="438.93" y2="516.57"/>
    <line class="st4" x1="444.19" y1="517.79" x2="450.01" y2="517.56"/>
    <line class="st2" x1="450.67" y1="504.49" x2="456.47" y2="502.22"/>
    <line class="st2" x1="457.27" y1="508.3" x2="462.6" y2="505.77"/>
    <line class="st4" x1="450.01" y1="517.56" x2="456.21" y2="515.9"/>
    <line class="st2" x1="456.21" y1="515.9" x2="462.6" y2="512.85"/>
    <line class="st2" x1="461.33" y1="498.34" x2="465.11" y2="492.96"/>
    <line class="st2" x1="456.47" y1="502.22" x2="461.33" y2="498.34"/>
    <line class="st4" x1="469" y1="508.52" x2="475.2" y2="503.02"/>
    <line class="st4" x1="462.6" y1="512.85" x2="469" y2="508.52"/>
    <line class="st4" x1="494.49" y1="473.18" x2="497.21" y2="464.9"/>
    <line class="st4" x1="490.81" y1="481.38" x2="494.49" y2="473.18"/>
    <line class="st4" x1="486.27" y1="489.24" x2="490.81" y2="481.38"/>
    <line class="st4" x1="481.01" y1="496.53" x2="486.27" y2="489.24"/>
    <line class="st4" x1="475.2" y1="503.02" x2="481.01" y2="496.53"/>
    <line class="st2" x1="436.03" y1="503.39" x2="439.1" y2="506.68"/>
    <line class="st2" x1="439.1" y1="506.68" x2="442.88" y2="508.87"/>
    <line class="st2" x1="442.88" y1="508.87" x2="447.26" y2="509.88"/>
    <line class="st2" x1="447.26" y1="509.88" x2="452.11" y2="509.69"/>
    <line class="st2" x1="452.11" y1="509.69" x2="457.27" y2="508.3"/>
    <line class="st2" x1="467.93" y1="502.15" x2="473.1" y2="497.57"/>
    <line class="st2" x1="462.6" y1="505.77" x2="467.93" y2="502.15"/>
    <line class="st2" x1="482.33" y1="486.09" x2="486.11" y2="479.54"/>
    <line class="st2" x1="486.11" y1="479.54" x2="489.18" y2="472.71"/>
    <line class="st2" x1="477.94" y1="492.16" x2="482.33" y2="486.09"/>
    <line class="st2" x1="473.1" y1="497.57" x2="477.94" y2="492.16"/>
    <line class="st4" x1="375.48" y1="499.37" x2="378.58" y2="504.3"/>
    <line class="st4" x1="378.58" y1="504.3" x2="383.12" y2="508.84"/>
    <line class="st4" x1="373.9" y1="494.21" x2="375.48" y2="499.37"/>
    <line class="st0" x1="444.12" y1="468.89" x2="450.67" y2="471.07"/>
    <line class="st0" x1="436.32" y1="467.32" x2="437.01" y2="467.39"/>
    <line class="st0" x1="437.01" y1="467.39" x2="444.12" y2="468.89"/>
    <line class="st4" x1="403.77" y1="518.84" x2="412.3" y2="520.63"/>
    <line class="st4" x1="395.91" y1="516.22" x2="403.77" y2="518.84"/>
    <line class="st4" x1="383.12" y1="508.84" x2="388.96" y2="512.85"/>
    <line class="st4" x1="388.96" y1="512.85" x2="395.91" y2="516.22"/>
    <line class="st2" x1="467.7" y1="485.11" x2="467.82" y2="485.51"/>
    <line class="st0" x1="465.11" y1="481.01" x2="467.7" y2="485.11"/>
    <line class="st0" x1="456.47" y1="473.88" x2="461.33" y2="477.22"/>
    <line class="st0" x1="461.33" y1="477.22" x2="465.11" y2="481.01"/>
    <line class="st0" x1="450.67" y1="471.07" x2="456.47" y2="473.88"/>
    <line class="st4" x1="412.3" y1="520.63" x2="421.24" y2="521.54"/>
    <line class="st4" x1="421.24" y1="521.54" x2="430.32" y2="521.54"/>
    <line class="st4" x1="439.26" y1="520.63" x2="447.79" y2="518.84"/>
    <line class="st4" x1="430.32" y1="521.54" x2="439.26" y2="520.63"/>
    <line class="st4" x1="455.65" y1="516.22" x2="462.6" y2="512.85"/>
    <line class="st4" x1="447.79" y1="518.84" x2="455.65" y2="516.22"/>
    <line class="st4" x1="865.37" y1="426.97" x2="860.11" y2="425.75"/>
    <line class="st4" x1="860.11" y1="425.75" x2="854.3" y2="425.98"/>
    <line class="st4" x1="854.3" y1="425.98" x2="848.1" y2="427.64"/>
    <line class="st4" x1="848.1" y1="427.64" x2="841.7" y2="430.69"/>
    <line class="st4" x1="841.7" y1="430.69" x2="835.31" y2="435.02"/>
    <line class="st4" x1="835.31" y1="435.02" x2="829.11" y2="440.52"/>
    <line class="st4" x1="829.11" y1="440.52" x2="823.29" y2="447.01"/>
    <line class="st4" x1="823.29" y1="447.01" x2="818.03" y2="454.3"/>
    <line class="st4" x1="818.03" y1="454.3" x2="813.5" y2="462.16"/>
    <line class="st4" x1="813.5" y1="462.16" x2="809.81" y2="470.36"/>
    <line class="st4" x1="809.81" y1="470.36" x2="807.1" y2="478.64"/>
    <line class="st4" x1="807.1" y1="478.64" x2="805.44" y2="486.76"/>
    <line class="st4" x1="805.44" y1="486.76" x2="804.88" y2="494.47"/>
    <line class="st4" x1="804.88" y1="494.47" x2="805.44" y2="501.52"/>
    <line class="st4" x1="805.44" y1="501.52" x2="807.1" y2="507.73"/>
    <line class="st4" x1="807.1" y1="507.73" x2="809.81" y2="512.88"/>
    <line class="st4" x1="809.81" y1="512.88" x2="813.5" y2="516.82"/>
    <line class="st0" x1="823.17" y1="467.04" x2="861.34" y2="489.08"/>
    <line class="st0" x1="467.7" y1="485.11" x2="478.52" y2="491.36"/>
    <line class="st5" x1="983.67" y1="745.72" x2="983.67" y2="751.39"/>
    <line class="st5" x1="1012.02" y1="745.72" x2="1012.02" y2="751.39"/>
    <line class="st5" x1="1040.36" y1="745.72" x2="1040.36" y2="751.39"/>
    <line class="st5" x1="1068.71" y1="745.72" x2="1068.71" y2="751.39"/>
    <line class="st5" x1="955.32" y1="745.72" x2="1097.05" y2="745.72"/>
    <line class="st5" x1="1097.05" y1="745.72" x2="1097.05" y2="751.39"/>
    <line class="st5" x1="1097.05" y1="751.39" x2="955.32" y2="751.39"/>
    <line class="st5" x1="955.32" y1="751.39" x2="955.32" y2="745.72"/>
    <g class="st12">
      <text class="st11" transform="translate(980.33 758.91)"><tspan x="0" y="0">1</tspan></text>
    </g>
    <g class="st15">
      <text class="st11" transform="translate(1008.67 758.91)"><tspan x="0" y="0">2</tspan></text>
    </g>
    <g class="st13">
      <text class="st11" transform="translate(1037.02 758.91)"><tspan x="0" y="0">3</tspan></text>
    </g>
    <g class="st14">
      <text class="st11" transform="translate(1065.37 758.91)"><tspan x="0" y="0">4</tspan></text>
    </g>
    <g class="st17">
      <text class="st11" transform="translate(1093.71 758.91)"><tspan x="0" y="0">5</tspan></text>
    </g>
    <g class="st16">
      <text class="st11" transform="translate(951.98 758.91)"><tspan x="0" y="0">0</tspan></text>
    </g>
  </g>
</svg>