<?xml version="1.0" encoding="UTF-8"?>
<svg id="Ebene_1" xmlns="http://www.w3.org/2000/svg" version="1.1" viewBox="0 0 1190.55 841.89">
  <!-- Generator: Adobe Illustrator 29.0.1, SVG Export Plug-In . SVG Version: 2.1.0 Build 192)  -->
  <defs>
    <style>
      .st0 {
        fill-rule: evenodd;
      }

      .st0, .st1 {
        fill: #fff;
      }

      .st2 {
        fill: none;
        stroke: #00010f;
        stroke-linecap: round;
        stroke-linejoin: round;
        stroke-width: .71px;
      }

      .st1 {
        font-family: Copperplate, Copperplate;
        font-size: 4px;
      }
    </style>
  </defs>
  <text class="st1" transform="translate(42 795.75)"><tspan x="0" y="0">G</tspan></text>
  <text class="st1" transform="translate(44.89 795.75)"><tspan x="0" y="0">S</tspan></text>
  <text class="st1" transform="translate(47.56 795.75)"><tspan x="0" y="0">E</tspan></text>
  <text class="st1" transform="translate(50.22 795.75)"><tspan x="0" y="0">d</tspan></text>
  <text class="st1" transform="translate(52.67 795.75)"><tspan x="0" y="0">u</tspan></text>
  <text class="st1" transform="translate(55.34 795.75)"><tspan x="0" y="0">c</tspan></text>
  <text class="st1" transform="translate(57.56 795.75)"><tspan x="0" y="0">a</tspan></text>
  <text class="st1" transform="translate(59.78 795.75)"><tspan x="0" y="0">t</tspan></text>
  <text class="st1" transform="translate(61.78 795.75)"><tspan x="0" y="0">i</tspan></text>
  <text class="st1" transform="translate(63.12 795.75)"><tspan x="0" y="0">o</tspan></text>
  <text class="st1" transform="translate(65.56 795.75)"><tspan x="0" y="0">n</tspan></text>
  <text class="st1" transform="translate(68.23 795.75)"><tspan x="0" y="0">a</tspan></text>
  <text class="st1" transform="translate(70.45 795.75)"><tspan x="0" y="0">l</tspan></text>
  <text class="st1" transform="translate(72.68 795.75)"><tspan x="0" y="0">V</tspan></text>
  <text class="st1" transform="translate(75.34 795.75)"><tspan x="0" y="0">e</tspan></text>
  <text class="st1" transform="translate(77.57 795.75)"><tspan x="0" y="0">r</tspan></text>
  <text class="st1" transform="translate(80.01 795.75)"><tspan x="0" y="0">s</tspan></text>
  <text class="st1" transform="translate(82.24 795.75)"><tspan x="0" y="0">i</tspan></text>
  <text class="st1" transform="translate(83.57 795.75)"><tspan x="0" y="0">o</tspan></text>
  <text class="st1" transform="translate(86.01 795.75)"><tspan x="0" y="0">n</tspan></text>
  <g>
    <polyline class="st0" points="251.56 610.32 463.98 335.81 939.45 458.46 727.02 732.96 251.56 610.32"/>
    <line class="st2" x1="251.56" y1="610.32" x2="463.98" y2="335.81"/>
    <line class="st2" x1="463.98" y1="335.81" x2="939.45" y2="458.46"/>
    <line class="st2" x1="939.45" y1="458.46" x2="727.02" y2="732.96"/>
    <line class="st2" x1="727.02" y1="732.96" x2="251.56" y2="610.32"/>
  </g>
</svg>