<?xml version="1.0" encoding="UTF-8"?>
<svg id="Ebene_1" xmlns="http://www.w3.org/2000/svg" version="1.1" viewBox="0 0 1190.55 841.89">
  <!-- Generator: Adobe Illustrator 29.0.1, SVG Export Plug-In . SVG Version: 2.1.0 Build 192)  -->
  <defs>
    <style>
      .st0 {
        stroke: #bfbfbf;
      }

      .st0, .st1 {
        stroke-width: .51px;
      }

      .st0, .st1, .st2, .st3 {
        fill: none;
        stroke-linecap: round;
        stroke-linejoin: round;
      }

      .st4, .st5, .st6 {
        fill-rule: evenodd;
      }

      .st4, .st7 {
        fill: #fff;
      }

      .st5 {
        fill: #bfbfbf;
        opacity: .25;
      }

      .st1 {
        stroke: #dfdfdf;
      }

      .st6 {
        fill: #382f73;
      }

      .st2 {
        stroke: #00010f;
        stroke-width: .71px;
      }

      .st3 {
        stroke: #382f73;
        stroke-width: .37px;
      }

      .st7 {
        font-family: Copperplate, Copperplate;
        font-size: 4px;
      }
    </style>
  </defs>
  <text class="st7" transform="translate(42 795.75)"><tspan x="0" y="0">G</tspan></text>
  <text class="st7" transform="translate(44.89 795.75)"><tspan x="0" y="0">S</tspan></text>
  <text class="st7" transform="translate(47.56 795.75)"><tspan x="0" y="0">E</tspan></text>
  <text class="st7" transform="translate(50.22 795.75)"><tspan x="0" y="0">d</tspan></text>
  <text class="st7" transform="translate(52.67 795.75)"><tspan x="0" y="0">u</tspan></text>
  <text class="st7" transform="translate(55.34 795.75)"><tspan x="0" y="0">c</tspan></text>
  <text class="st7" transform="translate(57.56 795.75)"><tspan x="0" y="0">a</tspan></text>
  <text class="st7" transform="translate(59.78 795.75)"><tspan x="0" y="0">t</tspan></text>
  <text class="st7" transform="translate(61.78 795.75)"><tspan x="0" y="0">i</tspan></text>
  <text class="st7" transform="translate(63.12 795.75)"><tspan x="0" y="0">o</tspan></text>
  <text class="st7" transform="translate(65.56 795.75)"><tspan x="0" y="0">n</tspan></text>
  <text class="st7" transform="translate(68.23 795.75)"><tspan x="0" y="0">a</tspan></text>
  <text class="st7" transform="translate(70.45 795.75)"><tspan x="0" y="0">l</tspan></text>
  <text class="st7" transform="translate(72.68 795.75)"><tspan x="0" y="0">V</tspan></text>
  <text class="st7" transform="translate(75.34 795.75)"><tspan x="0" y="0">e</tspan></text>
  <text class="st7" transform="translate(77.57 795.75)"><tspan x="0" y="0">r</tspan></text>
  <text class="st7" transform="translate(80.01 795.75)"><tspan x="0" y="0">s</tspan></text>
  <text class="st7" transform="translate(82.24 795.75)"><tspan x="0" y="0">i</tspan></text>
  <text class="st7" transform="translate(83.57 795.75)"><tspan x="0" y="0">o</tspan></text>
  <text class="st7" transform="translate(86.01 795.75)"><tspan x="0" y="0">n</tspan></text>
  <g>
    <polyline class="st4" points="251.56 610.32 463.98 335.81 939.45 458.46 727.02 732.96 251.56 610.32"/>
    <polyline class="st4" points="251.56 610.32 251.56 383.55 463.98 109.04 463.98 335.81 251.56 610.32"/>
    <polyline class="st4" points="939.45 231.68 939.45 458.46 463.98 335.81 463.98 109.04 939.45 231.68"/>
    <polyline class="st5" points="939.45 231.68 939.45 458.46 727.02 732.96 727.02 506.19 939.45 231.68"/>
    <polyline class="st6" points="597.39 175.06 640.05 217.73 640.78 219.09 640.63 220.64 639.65 221.83 638.17 222.28 614.17 222.28 614.17 304.95 613.81 306.28 612.83 307.26 611.5 307.61 579.5 307.61 578.17 307.26 577.19 306.28 576.83 304.95 576.83 222.28 552.83 222.28 551.35 221.83 550.37 220.64 550.17 219.61 550.37 218.59 550.95 217.73 593.62 175.06 594.81 174.37 596.19 174.37 597.39 175.06"/>
    <line class="st0" x1="251.56" y1="383.55" x2="727.02" y2="506.19"/>
    <line class="st0" x1="727.02" y1="506.19" x2="939.45" y2="231.68"/>
    <line class="st0" x1="727.02" y1="732.96" x2="727.02" y2="506.19"/>
    <line class="st1" x1="251.56" y1="610.32" x2="252.82" y2="608.68"/>
    <line class="st1" x1="254.95" y1="605.93" x2="258.63" y2="601.18"/>
    <line class="st1" x1="261.07" y1="598.02" x2="264.75" y2="593.28"/>
    <line class="st1" x1="267.19" y1="590.11" x2="270.87" y2="585.37"/>
    <line class="st1" x1="273.31" y1="582.2" x2="276.99" y2="577.46"/>
    <line class="st1" x1="279.43" y1="574.29" x2="283.11" y2="569.55"/>
    <line class="st1" x1="285.55" y1="566.39" x2="289.23" y2="561.64"/>
    <line class="st1" x1="291.67" y1="558.48" x2="295.35" y2="553.73"/>
    <line class="st1" x1="297.79" y1="550.57" x2="301.47" y2="545.82"/>
    <line class="st1" x1="303.91" y1="542.66" x2="307.59" y2="537.91"/>
    <line class="st1" x1="310.03" y1="534.75" x2="313.71" y2="530.01"/>
    <line class="st1" x1="316.15" y1="526.84" x2="319.83" y2="522.1"/>
    <line class="st1" x1="322.27" y1="518.93" x2="325.95" y2="514.19"/>
    <line class="st1" x1="328.39" y1="511.03" x2="332.07" y2="506.28"/>
    <line class="st1" x1="334.51" y1="503.12" x2="338.19" y2="498.37"/>
    <line class="st1" x1="340.63" y1="495.21" x2="344.31" y2="490.46"/>
    <line class="st1" x1="346.75" y1="487.3" x2="350.43" y2="482.55"/>
    <line class="st1" x1="352.87" y1="479.39" x2="356.55" y2="474.65"/>
    <line class="st1" x1="358.99" y1="471.48" x2="362.67" y2="466.74"/>
    <line class="st1" x1="365.11" y1="463.57" x2="368.79" y2="458.83"/>
    <line class="st1" x1="371.23" y1="455.66" x2="374.91" y2="450.92"/>
    <line class="st1" x1="377.35" y1="447.76" x2="381.03" y2="443.01"/>
    <line class="st1" x1="383.47" y1="439.85" x2="387.15" y2="435.1"/>
    <line class="st1" x1="389.59" y1="431.94" x2="393.27" y2="427.19"/>
    <line class="st1" x1="395.71" y1="424.03" x2="399.39" y2="419.29"/>
    <line class="st1" x1="401.83" y1="416.12" x2="405.51" y2="411.38"/>
    <line class="st1" x1="407.95" y1="408.22" x2="411.63" y2="403.47"/>
    <line class="st1" x1="414.07" y1="400.31" x2="417.75" y2="395.56"/>
    <line class="st1" x1="420.19" y1="392.4" x2="423.87" y2="387.65"/>
    <line class="st1" x1="426.31" y1="384.49" x2="429.99" y2="379.74"/>
    <line class="st1" x1="432.43" y1="376.58" x2="436.11" y2="371.84"/>
    <line class="st1" x1="438.55" y1="368.67" x2="442.23" y2="363.93"/>
    <line class="st1" x1="444.67" y1="360.76" x2="448.35" y2="356.02"/>
    <line class="st1" x1="450.79" y1="352.85" x2="454.47" y2="348.11"/>
    <line class="st1" x1="456.91" y1="344.95" x2="460.59" y2="340.2"/>
    <line class="st1" x1="462.72" y1="337.45" x2="463.98" y2="335.81"/>
    <line class="st1" x1="463.98" y1="335.81" x2="467.39" y2="336.69"/>
    <line class="st1" x1="471.26" y1="337.69" x2="477.07" y2="339.19"/>
    <line class="st1" x1="480.94" y1="340.18" x2="486.75" y2="341.68"/>
    <line class="st1" x1="490.62" y1="342.68" x2="496.44" y2="344.18"/>
    <line class="st1" x1="500.31" y1="345.18" x2="506.12" y2="346.68"/>
    <line class="st1" x1="509.99" y1="347.68" x2="515.8" y2="349.18"/>
    <line class="st1" x1="519.67" y1="350.18" x2="525.48" y2="351.68"/>
    <line class="st1" x1="529.36" y1="352.67" x2="535.16" y2="354.17"/>
    <line class="st1" x1="539.04" y1="355.17" x2="544.85" y2="356.67"/>
    <line class="st1" x1="548.72" y1="357.67" x2="554.53" y2="359.17"/>
    <line class="st1" x1="558.41" y1="360.16" x2="564.21" y2="361.66"/>
    <line class="st1" x1="568.09" y1="362.67" x2="573.9" y2="364.16"/>
    <line class="st1" x1="577.77" y1="365.16" x2="583.58" y2="366.66"/>
    <line class="st1" x1="587.46" y1="367.66" x2="593.26" y2="369.16"/>
    <line class="st1" x1="597.14" y1="370.16" x2="602.95" y2="371.66"/>
    <line class="st1" x1="606.82" y1="372.65" x2="612.63" y2="374.15"/>
    <line class="st1" x1="616.5" y1="375.15" x2="622.31" y2="376.65"/>
    <line class="st1" x1="626.19" y1="377.65" x2="632" y2="379.15"/>
    <line class="st1" x1="635.87" y1="380.15" x2="641.68" y2="381.65"/>
    <line class="st1" x1="645.55" y1="382.65" x2="651.36" y2="384.14"/>
    <line class="st1" x1="655.23" y1="385.14" x2="661.05" y2="386.64"/>
    <line class="st1" x1="664.92" y1="387.64" x2="670.73" y2="389.14"/>
    <line class="st1" x1="674.6" y1="390.14" x2="680.41" y2="391.64"/>
    <line class="st1" x1="684.28" y1="392.64" x2="690.1" y2="394.14"/>
    <line class="st1" x1="693.97" y1="395.13" x2="699.78" y2="396.63"/>
    <line class="st1" x1="703.65" y1="397.63" x2="709.46" y2="399.13"/>
    <line class="st1" x1="713.33" y1="400.13" x2="719.15" y2="401.63"/>
    <line class="st1" x1="723.02" y1="402.63" x2="728.83" y2="404.13"/>
    <line class="st1" x1="732.7" y1="405.13" x2="738.51" y2="406.62"/>
    <line class="st1" x1="742.38" y1="407.62" x2="748.19" y2="409.12"/>
    <line class="st1" x1="752.07" y1="410.12" x2="757.88" y2="411.62"/>
    <line class="st1" x1="761.75" y1="412.62" x2="767.56" y2="414.12"/>
    <line class="st1" x1="771.43" y1="415.12" x2="777.24" y2="416.61"/>
    <line class="st1" x1="781.12" y1="417.61" x2="786.92" y2="419.11"/>
    <line class="st1" x1="790.8" y1="420.11" x2="796.61" y2="421.61"/>
    <line class="st1" x1="800.48" y1="422.61" x2="806.29" y2="424.11"/>
    <line class="st1" x1="810.17" y1="425.11" x2="815.97" y2="426.61"/>
    <line class="st1" x1="819.85" y1="427.6" x2="825.66" y2="429.1"/>
    <line class="st1" x1="829.53" y1="430.1" x2="835.34" y2="431.6"/>
    <line class="st1" x1="839.22" y1="432.6" x2="845.02" y2="434.1"/>
    <line class="st1" x1="848.9" y1="435.1" x2="854.71" y2="436.6"/>
    <line class="st1" x1="858.58" y1="437.6" x2="864.39" y2="439.1"/>
    <line class="st1" x1="868.26" y1="440.09" x2="874.07" y2="441.59"/>
    <line class="st1" x1="877.94" y1="442.59" x2="883.76" y2="444.09"/>
    <line class="st1" x1="887.63" y1="445.09" x2="893.44" y2="446.59"/>
    <line class="st1" x1="897.31" y1="447.59" x2="903.12" y2="449.09"/>
    <line class="st1" x1="906.99" y1="450.09" x2="912.81" y2="451.58"/>
    <line class="st1" x1="916.68" y1="452.58" x2="922.49" y2="454.08"/>
    <line class="st1" x1="926.36" y1="455.08" x2="932.17" y2="456.58"/>
    <line class="st1" x1="936.04" y1="457.58" x2="939.45" y2="458.46"/>
    <line class="st1" x1="463.98" y1="335.81" x2="463.98" y2="329.42"/>
    <line class="st1" x1="463.98" y1="325.42" x2="463.98" y2="319.43"/>
    <line class="st1" x1="463.98" y1="315.43" x2="463.98" y2="309.42"/>
    <line class="st1" x1="463.98" y1="305.43" x2="463.98" y2="299.42"/>
    <line class="st1" x1="463.98" y1="295.42" x2="463.98" y2="289.42"/>
    <line class="st1" x1="463.98" y1="285.42" x2="463.98" y2="279.42"/>
    <line class="st1" x1="463.98" y1="275.42" x2="463.98" y2="269.42"/>
    <line class="st1" x1="463.98" y1="265.42" x2="463.98" y2="259.42"/>
    <line class="st1" x1="463.98" y1="255.42" x2="463.98" y2="249.42"/>
    <line class="st1" x1="463.98" y1="245.42" x2="463.98" y2="239.42"/>
    <line class="st1" x1="463.98" y1="235.42" x2="463.98" y2="229.42"/>
    <line class="st1" x1="463.98" y1="225.42" x2="463.98" y2="219.42"/>
    <line class="st1" x1="463.98" y1="215.42" x2="463.98" y2="209.42"/>
    <line class="st1" x1="463.98" y1="205.42" x2="463.98" y2="199.42"/>
    <line class="st1" x1="463.98" y1="195.42" x2="463.98" y2="189.42"/>
    <line class="st1" x1="463.98" y1="185.42" x2="463.98" y2="179.42"/>
    <line class="st1" x1="463.98" y1="175.42" x2="463.98" y2="169.42"/>
    <line class="st1" x1="463.98" y1="165.42" x2="463.98" y2="159.42"/>
    <line class="st1" x1="463.98" y1="155.42" x2="463.98" y2="149.42"/>
    <line class="st1" x1="463.98" y1="145.42" x2="463.98" y2="139.42"/>
    <line class="st1" x1="463.98" y1="135.42" x2="463.98" y2="129.42"/>
    <line class="st1" x1="463.98" y1="125.42" x2="463.98" y2="119.42"/>
    <line class="st1" x1="463.98" y1="115.42" x2="463.98" y2="109.04"/>
    <line class="st3" x1="614.17" y1="304.95" x2="614.17" y2="222.28"/>
    <line class="st3" x1="614.17" y1="222.28" x2="638.17" y2="222.28"/>
    <line class="st3" x1="640.05" y1="217.73" x2="597.39" y2="175.06"/>
    <line class="st3" x1="593.62" y1="175.06" x2="550.95" y2="217.73"/>
    <line class="st3" x1="552.83" y1="222.28" x2="576.83" y2="222.28"/>
    <line class="st3" x1="576.83" y1="222.28" x2="576.83" y2="304.95"/>
    <line class="st3" x1="579.5" y1="307.61" x2="611.5" y2="307.61"/>
    <line class="st2" x1="463.98" y1="109.04" x2="251.56" y2="383.55"/>
    <line class="st2" x1="727.02" y1="732.96" x2="251.56" y2="610.32"/>
    <line class="st2" x1="939.45" y1="231.68" x2="463.98" y2="109.04"/>
    <line class="st2" x1="251.56" y1="610.32" x2="251.56" y2="383.55"/>
    <line class="st2" x1="939.45" y1="458.46" x2="727.02" y2="732.96"/>
    <line class="st2" x1="939.45" y1="458.46" x2="939.45" y2="231.68"/>
  </g>
</svg>