<?xml version="1.0" encoding="UTF-8"?>
<svg id="Ebene_1" xmlns="http://www.w3.org/2000/svg" version="1.1" viewBox="0 0 1190.55 841.89">
  <!-- Generator: Adobe Illustrator 29.0.1, SVG Export Plug-In . SVG Version: 2.1.0 Build 192)  -->
  <defs>
    <style>
      .st0 {
        stroke: #bfbfbf;
      }

      .st0, .st1 {
        stroke-width: .51px;
      }

      .st0, .st1, .st2, .st3, .st4 {
        fill: none;
        stroke-linecap: round;
        stroke-linejoin: round;
      }

      .st5 {
        fill: #fff;
      }

      .st5, .st6, .st7 {
        fill-rule: evenodd;
      }

      .st6 {
        fill: #bfbfbf;
        opacity: .25;
      }

      .st1 {
        stroke: #dfdfdf;
      }

      .st2 {
        stroke: #8083bf;
      }

      .st2, .st4 {
        stroke-width: .37px;
      }

      .st7 {
        fill: #382f73;
      }

      .st3 {
        stroke: #00010f;
        stroke-width: .71px;
      }

      .st4 {
        stroke: #382f73;
      }
    </style>
  </defs>
  <polyline class="st5" points="251.56 610.32 463.98 335.81 939.45 458.46 727.02 732.96 251.56 610.32"/>
  <polyline class="st5" points="269.84 529.99 251.56 525.28 269.84 501.65 251.56 496.93 269.84 473.3 251.56 468.58 269.84 444.96 251.56 440.24 269.84 416.61 251.56 411.89 269.84 388.26 251.56 383.55 463.98 109.04 463.98 335.81 269.84 586.69 251.56 581.97 269.84 558.34 251.56 553.62 269.84 529.99"/>
  <polyline class="st5" points="939.45 231.68 921.16 255.31 939.45 260.03 921.16 283.66 939.45 288.38 921.16 312.01 939.45 316.72 921.16 340.35 939.45 345.07 921.16 368.7 939.45 373.42 921.16 397.05 939.45 401.76 921.16 425.39 939.45 430.11 921.16 453.74 463.98 335.81 463.98 109.04 939.45 231.68"/>
  <polyline class="st6" points="921.16 255.31 939.45 260.03 921.16 283.66 939.45 288.38 921.16 312.01 939.45 316.72 921.16 340.35 939.45 345.07 921.16 368.7 939.45 373.42 921.16 397.05 939.45 401.76 921.16 425.39 939.45 430.11 921.16 453.74 939.45 458.46 727.02 732.96 727.02 506.19 921.16 255.31"/>
  <line class="st0" x1="727.02" y1="732.96" x2="727.02" y2="506.19"/>
  <line class="st1" x1="269.84" y1="586.69" x2="271.11" y2="585.05"/>
  <line class="st1" x1="273.28" y1="582.25" x2="276.95" y2="577.51"/>
  <line class="st1" x1="279.4" y1="574.34" x2="283.07" y2="569.6"/>
  <line class="st1" x1="285.52" y1="566.43" x2="289.19" y2="561.69"/>
  <line class="st1" x1="291.64" y1="558.53" x2="295.31" y2="553.78"/>
  <line class="st1" x1="297.76" y1="550.62" x2="301.43" y2="545.87"/>
  <line class="st1" x1="303.88" y1="542.71" x2="307.55" y2="537.96"/>
  <line class="st1" x1="310" y1="534.8" x2="313.67" y2="530.05"/>
  <line class="st1" x1="316.12" y1="526.89" x2="319.79" y2="522.15"/>
  <line class="st1" x1="322.24" y1="518.98" x2="325.91" y2="514.24"/>
  <line class="st1" x1="328.36" y1="511.07" x2="332.03" y2="506.33"/>
  <line class="st1" x1="334.48" y1="503.16" x2="338.15" y2="498.42"/>
  <line class="st1" x1="340.6" y1="495.26" x2="344.27" y2="490.51"/>
  <line class="st1" x1="346.72" y1="487.35" x2="350.39" y2="482.6"/>
  <line class="st1" x1="352.84" y1="479.44" x2="356.51" y2="474.69"/>
  <line class="st1" x1="358.96" y1="471.53" x2="362.63" y2="466.78"/>
  <line class="st1" x1="365.08" y1="463.62" x2="368.75" y2="458.88"/>
  <line class="st1" x1="371.2" y1="455.71" x2="374.87" y2="450.97"/>
  <line class="st1" x1="377.32" y1="447.8" x2="380.99" y2="443.06"/>
  <line class="st1" x1="383.44" y1="439.9" x2="387.11" y2="435.15"/>
  <line class="st1" x1="389.56" y1="431.99" x2="393.23" y2="427.24"/>
  <line class="st1" x1="395.68" y1="424.08" x2="399.35" y2="419.33"/>
  <line class="st1" x1="401.8" y1="416.17" x2="405.47" y2="411.42"/>
  <line class="st1" x1="407.92" y1="408.26" x2="411.59" y2="403.52"/>
  <line class="st1" x1="414.04" y1="400.35" x2="417.71" y2="395.61"/>
  <line class="st1" x1="420.16" y1="392.45" x2="423.83" y2="387.7"/>
  <line class="st1" x1="426.28" y1="384.54" x2="429.95" y2="379.79"/>
  <line class="st1" x1="432.4" y1="376.63" x2="436.07" y2="371.88"/>
  <line class="st1" x1="438.52" y1="368.72" x2="442.19" y2="363.97"/>
  <line class="st1" x1="444.64" y1="360.81" x2="448.31" y2="356.07"/>
  <line class="st1" x1="450.76" y1="352.9" x2="454.43" y2="348.16"/>
  <line class="st1" x1="456.88" y1="344.99" x2="460.55" y2="340.25"/>
  <line class="st1" x1="462.72" y1="337.45" x2="463.98" y2="335.81"/>
  <line class="st1" x1="463.98" y1="335.81" x2="467.92" y2="336.83"/>
  <line class="st1" x1="471.8" y1="337.83" x2="477.61" y2="339.32"/>
  <line class="st1" x1="481.48" y1="340.32" x2="487.29" y2="341.82"/>
  <line class="st1" x1="491.16" y1="342.82" x2="496.97" y2="344.32"/>
  <line class="st1" x1="500.85" y1="345.32" x2="506.66" y2="346.82"/>
  <line class="st1" x1="510.53" y1="347.82" x2="516.34" y2="349.32"/>
  <line class="st1" x1="520.21" y1="350.31" x2="526.02" y2="351.81"/>
  <line class="st1" x1="529.9" y1="352.81" x2="535.71" y2="354.31"/>
  <line class="st1" x1="539.58" y1="355.31" x2="545.39" y2="356.81"/>
  <line class="st1" x1="549.26" y1="357.81" x2="555.07" y2="359.31"/>
  <line class="st1" x1="558.94" y1="360.31" x2="564.76" y2="361.8"/>
  <line class="st1" x1="568.63" y1="362.8" x2="574.44" y2="364.3"/>
  <line class="st1" x1="578.31" y1="365.3" x2="584.12" y2="366.8"/>
  <line class="st1" x1="587.99" y1="367.8" x2="593.81" y2="369.3"/>
  <line class="st1" x1="597.68" y1="370.3" x2="603.49" y2="371.8"/>
  <line class="st1" x1="607.36" y1="372.79" x2="613.17" y2="374.29"/>
  <line class="st1" x1="617.04" y1="375.29" x2="622.85" y2="376.79"/>
  <line class="st1" x1="626.73" y1="377.79" x2="632.54" y2="379.29"/>
  <line class="st1" x1="636.41" y1="380.29" x2="642.22" y2="381.78"/>
  <line class="st1" x1="646.09" y1="382.79" x2="651.9" y2="384.29"/>
  <line class="st1" x1="655.78" y1="385.28" x2="661.58" y2="386.78"/>
  <line class="st1" x1="665.46" y1="387.78" x2="671.27" y2="389.28"/>
  <line class="st1" x1="675.14" y1="390.28" x2="680.95" y2="391.78"/>
  <line class="st1" x1="684.83" y1="392.77" x2="690.63" y2="394.27"/>
  <line class="st1" x1="694.51" y1="395.27" x2="700.32" y2="396.77"/>
  <line class="st1" x1="704.19" y1="397.77" x2="710" y2="399.27"/>
  <line class="st1" x1="713.88" y1="400.27" x2="719.68" y2="401.77"/>
  <line class="st1" x1="723.56" y1="402.77" x2="729.37" y2="404.27"/>
  <line class="st1" x1="733.24" y1="405.26" x2="739.05" y2="406.76"/>
  <line class="st1" x1="742.92" y1="407.76" x2="748.73" y2="409.26"/>
  <line class="st1" x1="752.61" y1="410.26" x2="758.42" y2="411.76"/>
  <line class="st1" x1="762.29" y1="412.76" x2="768.1" y2="414.26"/>
  <line class="st1" x1="771.97" y1="415.26" x2="777.78" y2="416.75"/>
  <line class="st1" x1="781.65" y1="417.75" x2="787.47" y2="419.25"/>
  <line class="st1" x1="791.34" y1="420.25" x2="797.15" y2="421.75"/>
  <line class="st1" x1="801.02" y1="422.75" x2="806.83" y2="424.25"/>
  <line class="st1" x1="810.7" y1="425.25" x2="816.52" y2="426.75"/>
  <line class="st1" x1="820.39" y1="427.74" x2="826.2" y2="429.24"/>
  <line class="st1" x1="830.07" y1="430.24" x2="835.88" y2="431.74"/>
  <line class="st1" x1="839.75" y1="432.74" x2="845.56" y2="434.24"/>
  <line class="st1" x1="849.44" y1="435.24" x2="855.25" y2="436.74"/>
  <line class="st1" x1="859.12" y1="437.74" x2="864.93" y2="439.23"/>
  <line class="st1" x1="868.8" y1="440.23" x2="874.61" y2="441.73"/>
  <line class="st1" x1="878.49" y1="442.73" x2="884.3" y2="444.23"/>
  <line class="st1" x1="888.17" y1="445.23" x2="893.98" y2="446.73"/>
  <line class="st1" x1="897.85" y1="447.73" x2="903.66" y2="449.22"/>
  <line class="st1" x1="907.54" y1="450.22" x2="913.34" y2="451.72"/>
  <line class="st1" x1="917.22" y1="452.72" x2="921.16" y2="453.74"/>
  <line class="st3" x1="251.56" y1="383.55" x2="269.84" y2="388.26"/>
  <line class="st0" x1="727.02" y1="506.19" x2="921.16" y2="255.31"/>
  <line class="st3" x1="921.16" y1="255.31" x2="939.45" y2="231.68"/>
  <line class="st0" x1="269.84" y1="388.26" x2="727.02" y2="506.19"/>
  <line class="st4" x1="727.02" y1="704.62" x2="723.08" y2="703.6"/>
  <line class="st4" x1="719.2" y1="702.6" x2="713.39" y2="701.1"/>
  <line class="st4" x1="709.52" y1="700.1" x2="703.71" y2="698.61"/>
  <line class="st4" x1="699.84" y1="697.6" x2="694.03" y2="696.11"/>
  <line class="st4" x1="690.16" y1="695.11" x2="684.34" y2="693.61"/>
  <line class="st4" x1="680.47" y1="692.61" x2="674.66" y2="691.11"/>
  <line class="st4" x1="670.79" y1="690.11" x2="664.98" y2="688.61"/>
  <line class="st4" x1="661.11" y1="687.62" x2="655.29" y2="686.12"/>
  <line class="st4" x1="651.42" y1="685.12" x2="645.61" y2="683.62"/>
  <line class="st4" x1="641.74" y1="682.62" x2="635.93" y2="681.12"/>
  <line class="st4" x1="632.06" y1="680.12" x2="626.25" y2="678.62"/>
  <line class="st4" x1="622.37" y1="677.62" x2="616.56" y2="676.12"/>
  <line class="st4" x1="612.69" y1="675.13" x2="606.88" y2="673.63"/>
  <line class="st4" x1="603.01" y1="672.63" x2="597.2" y2="671.13"/>
  <line class="st4" x1="593.32" y1="670.13" x2="587.52" y2="668.63"/>
  <line class="st4" x1="583.64" y1="667.63" x2="577.83" y2="666.13"/>
  <line class="st4" x1="573.96" y1="665.13" x2="568.15" y2="663.64"/>
  <line class="st4" x1="564.27" y1="662.64" x2="558.47" y2="661.14"/>
  <line class="st4" x1="554.59" y1="660.14" x2="548.78" y2="658.64"/>
  <line class="st4" x1="544.91" y1="657.64" x2="539.1" y2="656.14"/>
  <line class="st4" x1="535.22" y1="655.14" x2="529.42" y2="653.64"/>
  <line class="st4" x1="525.54" y1="652.65" x2="519.73" y2="651.15"/>
  <line class="st4" x1="515.86" y1="650.15" x2="510.05" y2="648.65"/>
  <line class="st4" x1="506.18" y1="647.65" x2="500.37" y2="646.15"/>
  <line class="st4" x1="496.49" y1="645.15" x2="490.68" y2="643.66"/>
  <line class="st4" x1="486.81" y1="642.65" x2="481" y2="641.16"/>
  <line class="st4" x1="477.13" y1="640.16" x2="471.32" y2="638.66"/>
  <line class="st4" x1="467.45" y1="637.66" x2="461.63" y2="636.16"/>
  <line class="st4" x1="457.76" y1="635.16" x2="451.95" y2="633.66"/>
  <line class="st4" x1="448.08" y1="632.67" x2="442.27" y2="631.17"/>
  <line class="st4" x1="438.4" y1="630.17" x2="432.58" y2="628.67"/>
  <line class="st4" x1="428.71" y1="627.67" x2="422.9" y2="626.17"/>
  <line class="st4" x1="419.03" y1="625.17" x2="413.22" y2="623.67"/>
  <line class="st4" x1="409.35" y1="622.67" x2="403.54" y2="621.17"/>
  <line class="st4" x1="399.66" y1="620.18" x2="393.85" y2="618.68"/>
  <line class="st4" x1="389.98" y1="617.68" x2="384.17" y2="616.18"/>
  <line class="st4" x1="380.3" y1="615.18" x2="374.49" y2="613.68"/>
  <line class="st4" x1="370.61" y1="612.68" x2="364.81" y2="611.18"/>
  <line class="st4" x1="360.93" y1="610.18" x2="355.12" y2="608.69"/>
  <line class="st4" x1="351.25" y1="607.69" x2="345.44" y2="606.19"/>
  <line class="st4" x1="341.56" y1="605.19" x2="335.76" y2="603.69"/>
  <line class="st4" x1="331.88" y1="602.69" x2="326.07" y2="601.19"/>
  <line class="st4" x1="322.2" y1="600.19" x2="316.39" y2="598.7"/>
  <line class="st4" x1="312.51" y1="597.7" x2="306.71" y2="596.2"/>
  <line class="st4" x1="302.83" y1="595.2" x2="297.02" y2="593.7"/>
  <line class="st4" x1="293.15" y1="592.7" x2="287.34" y2="591.2"/>
  <line class="st4" x1="283.46" y1="590.2" x2="277.66" y2="588.7"/>
  <line class="st4" x1="273.78" y1="587.71" x2="269.84" y2="586.69"/>
  <line class="st4" x1="727.02" y1="676.27" x2="723.08" y2="675.25"/>
  <line class="st4" x1="719.2" y1="674.26" x2="713.39" y2="672.76"/>
  <line class="st4" x1="709.52" y1="671.76" x2="703.71" y2="670.26"/>
  <line class="st4" x1="699.84" y1="669.26" x2="694.03" y2="667.76"/>
  <line class="st4" x1="690.16" y1="666.76" x2="684.34" y2="665.26"/>
  <line class="st4" x1="680.47" y1="664.26" x2="674.66" y2="662.76"/>
  <line class="st4" x1="670.79" y1="661.77" x2="664.98" y2="660.27"/>
  <line class="st4" x1="661.11" y1="659.27" x2="655.29" y2="657.77"/>
  <line class="st4" x1="651.42" y1="656.77" x2="645.61" y2="655.27"/>
  <line class="st4" x1="641.74" y1="654.27" x2="635.93" y2="652.77"/>
  <line class="st4" x1="632.06" y1="651.77" x2="626.25" y2="650.28"/>
  <line class="st4" x1="622.37" y1="649.28" x2="616.56" y2="647.78"/>
  <line class="st4" x1="612.69" y1="646.78" x2="606.88" y2="645.28"/>
  <line class="st4" x1="603.01" y1="644.28" x2="597.2" y2="642.78"/>
  <line class="st4" x1="593.32" y1="641.78" x2="587.52" y2="640.29"/>
  <line class="st4" x1="583.64" y1="639.29" x2="577.83" y2="637.79"/>
  <line class="st4" x1="573.96" y1="636.79" x2="568.15" y2="635.29"/>
  <line class="st4" x1="564.27" y1="634.29" x2="558.47" y2="632.79"/>
  <line class="st4" x1="554.59" y1="631.79" x2="548.78" y2="630.29"/>
  <line class="st4" x1="544.91" y1="629.3" x2="539.1" y2="627.8"/>
  <line class="st4" x1="535.22" y1="626.8" x2="529.42" y2="625.3"/>
  <line class="st4" x1="525.54" y1="624.3" x2="519.73" y2="622.8"/>
  <line class="st4" x1="515.86" y1="621.8" x2="510.05" y2="620.3"/>
  <line class="st4" x1="506.18" y1="619.3" x2="500.37" y2="617.81"/>
  <line class="st4" x1="496.49" y1="616.81" x2="490.68" y2="615.31"/>
  <line class="st4" x1="486.81" y1="614.31" x2="481" y2="612.81"/>
  <line class="st4" x1="477.13" y1="611.81" x2="471.32" y2="610.31"/>
  <line class="st4" x1="467.45" y1="609.31" x2="461.63" y2="607.81"/>
  <line class="st4" x1="457.76" y1="606.82" x2="451.95" y2="605.32"/>
  <line class="st4" x1="448.08" y1="604.32" x2="442.27" y2="602.82"/>
  <line class="st4" x1="438.4" y1="601.82" x2="432.58" y2="600.32"/>
  <line class="st4" x1="428.71" y1="599.32" x2="422.9" y2="597.82"/>
  <line class="st4" x1="419.03" y1="596.82" x2="413.22" y2="595.32"/>
  <line class="st4" x1="409.35" y1="594.33" x2="403.54" y2="592.83"/>
  <line class="st4" x1="399.66" y1="591.83" x2="393.85" y2="590.33"/>
  <line class="st4" x1="389.98" y1="589.33" x2="384.17" y2="587.83"/>
  <line class="st4" x1="380.3" y1="586.83" x2="374.49" y2="585.34"/>
  <line class="st4" x1="370.61" y1="584.33" x2="364.81" y2="582.84"/>
  <line class="st4" x1="360.93" y1="581.84" x2="355.12" y2="580.34"/>
  <line class="st4" x1="351.25" y1="579.34" x2="345.44" y2="577.84"/>
  <line class="st4" x1="341.56" y1="576.84" x2="335.76" y2="575.34"/>
  <line class="st4" x1="331.88" y1="574.35" x2="326.07" y2="572.85"/>
  <line class="st4" x1="322.2" y1="571.85" x2="316.39" y2="570.35"/>
  <line class="st4" x1="312.51" y1="569.35" x2="306.71" y2="567.85"/>
  <line class="st4" x1="302.83" y1="566.85" x2="297.02" y2="565.35"/>
  <line class="st4" x1="293.15" y1="564.35" x2="287.34" y2="562.86"/>
  <line class="st4" x1="283.46" y1="561.86" x2="277.66" y2="560.36"/>
  <line class="st4" x1="273.78" y1="559.36" x2="269.84" y2="558.34"/>
  <line class="st4" x1="727.02" y1="647.92" x2="723.08" y2="646.91"/>
  <line class="st4" x1="719.2" y1="645.91" x2="713.39" y2="644.41"/>
  <line class="st4" x1="709.52" y1="643.41" x2="703.71" y2="641.91"/>
  <line class="st4" x1="699.84" y1="640.91" x2="694.03" y2="639.41"/>
  <line class="st4" x1="690.16" y1="638.41" x2="684.34" y2="636.92"/>
  <line class="st4" x1="680.47" y1="635.92" x2="674.66" y2="634.42"/>
  <line class="st4" x1="670.79" y1="633.42" x2="664.98" y2="631.92"/>
  <line class="st4" x1="661.11" y1="630.92" x2="655.29" y2="629.42"/>
  <line class="st4" x1="651.42" y1="628.42" x2="645.61" y2="626.93"/>
  <line class="st4" x1="641.74" y1="625.92" x2="635.93" y2="624.43"/>
  <line class="st4" x1="632.06" y1="623.43" x2="626.25" y2="621.93"/>
  <line class="st4" x1="622.37" y1="620.93" x2="616.56" y2="619.43"/>
  <line class="st4" x1="612.69" y1="618.43" x2="606.88" y2="616.93"/>
  <line class="st4" x1="603.01" y1="615.94" x2="597.2" y2="614.44"/>
  <line class="st4" x1="593.32" y1="613.44" x2="587.52" y2="611.94"/>
  <line class="st4" x1="583.64" y1="610.94" x2="577.83" y2="609.44"/>
  <line class="st4" x1="573.96" y1="608.44" x2="568.15" y2="606.94"/>
  <line class="st4" x1="564.27" y1="605.94" x2="558.47" y2="604.45"/>
  <line class="st4" x1="554.59" y1="603.45" x2="548.78" y2="601.95"/>
  <line class="st4" x1="544.91" y1="600.95" x2="539.1" y2="599.45"/>
  <line class="st4" x1="535.22" y1="598.45" x2="529.42" y2="596.95"/>
  <line class="st4" x1="525.54" y1="595.95" x2="519.73" y2="594.45"/>
  <line class="st4" x1="515.86" y1="593.46" x2="510.05" y2="591.96"/>
  <line class="st4" x1="506.18" y1="590.96" x2="500.37" y2="589.46"/>
  <line class="st4" x1="496.49" y1="588.46" x2="490.68" y2="586.96"/>
  <line class="st4" x1="486.81" y1="585.96" x2="481" y2="584.46"/>
  <line class="st4" x1="477.13" y1="583.46" x2="471.32" y2="581.96"/>
  <line class="st4" x1="467.45" y1="580.97" x2="461.63" y2="579.47"/>
  <line class="st4" x1="457.76" y1="578.47" x2="451.95" y2="576.97"/>
  <line class="st4" x1="448.08" y1="575.97" x2="442.27" y2="574.47"/>
  <line class="st4" x1="438.4" y1="573.47" x2="432.58" y2="571.98"/>
  <line class="st4" x1="428.71" y1="570.98" x2="422.9" y2="569.48"/>
  <line class="st4" x1="419.03" y1="568.48" x2="413.22" y2="566.98"/>
  <line class="st4" x1="409.35" y1="565.98" x2="403.54" y2="564.48"/>
  <line class="st4" x1="399.66" y1="563.48" x2="393.85" y2="561.98"/>
  <line class="st4" x1="389.98" y1="560.99" x2="384.17" y2="559.49"/>
  <line class="st4" x1="380.3" y1="558.49" x2="374.49" y2="556.99"/>
  <line class="st4" x1="370.61" y1="555.99" x2="364.81" y2="554.49"/>
  <line class="st4" x1="360.93" y1="553.49" x2="355.12" y2="551.99"/>
  <line class="st4" x1="351.25" y1="550.99" x2="345.44" y2="549.49"/>
  <line class="st4" x1="341.56" y1="548.5" x2="335.76" y2="547"/>
  <line class="st4" x1="331.88" y1="546" x2="326.07" y2="544.5"/>
  <line class="st4" x1="322.2" y1="543.5" x2="316.39" y2="542"/>
  <line class="st4" x1="312.51" y1="541" x2="306.71" y2="539.5"/>
  <line class="st4" x1="302.83" y1="538.5" x2="297.02" y2="537.01"/>
  <line class="st4" x1="293.15" y1="536.01" x2="287.34" y2="534.51"/>
  <line class="st4" x1="283.46" y1="533.51" x2="277.66" y2="532.01"/>
  <line class="st4" x1="273.78" y1="531.01" x2="269.84" y2="529.99"/>
  <line class="st4" x1="727.02" y1="619.58" x2="723.08" y2="618.56"/>
  <line class="st4" x1="719.2" y1="617.56" x2="713.39" y2="616.06"/>
  <line class="st4" x1="709.52" y1="615.06" x2="703.71" y2="613.57"/>
  <line class="st4" x1="699.84" y1="612.57" x2="694.03" y2="611.07"/>
  <line class="st4" x1="690.16" y1="610.07" x2="684.34" y2="608.57"/>
  <line class="st4" x1="680.47" y1="607.57" x2="674.66" y2="606.07"/>
  <line class="st4" x1="670.79" y1="605.07" x2="664.98" y2="603.57"/>
  <line class="st4" x1="661.11" y1="602.58" x2="655.29" y2="601.08"/>
  <line class="st4" x1="651.42" y1="600.08" x2="645.61" y2="598.58"/>
  <line class="st4" x1="641.74" y1="597.58" x2="635.93" y2="596.08"/>
  <line class="st4" x1="632.06" y1="595.08" x2="626.25" y2="593.58"/>
  <line class="st4" x1="622.37" y1="592.58" x2="616.56" y2="591.08"/>
  <line class="st4" x1="612.69" y1="590.09" x2="606.88" y2="588.59"/>
  <line class="st4" x1="603.01" y1="587.59" x2="597.2" y2="586.09"/>
  <line class="st4" x1="593.32" y1="585.09" x2="587.52" y2="583.59"/>
  <line class="st4" x1="583.64" y1="582.59" x2="577.83" y2="581.09"/>
  <line class="st4" x1="573.96" y1="580.09" x2="568.15" y2="578.6"/>
  <line class="st4" x1="564.27" y1="577.6" x2="558.47" y2="576.1"/>
  <line class="st4" x1="554.59" y1="575.1" x2="548.78" y2="573.6"/>
  <line class="st4" x1="544.91" y1="572.6" x2="539.1" y2="571.1"/>
  <line class="st4" x1="535.22" y1="570.1" x2="529.42" y2="568.61"/>
  <line class="st4" x1="525.54" y1="567.61" x2="519.73" y2="566.11"/>
  <line class="st4" x1="515.86" y1="565.11" x2="510.05" y2="563.61"/>
  <line class="st4" x1="506.18" y1="562.61" x2="500.37" y2="561.11"/>
  <line class="st4" x1="496.49" y1="560.11" x2="490.68" y2="558.62"/>
  <line class="st4" x1="486.81" y1="557.62" x2="481" y2="556.12"/>
  <line class="st4" x1="477.13" y1="555.12" x2="471.32" y2="553.62"/>
  <line class="st4" x1="467.45" y1="552.62" x2="461.63" y2="551.12"/>
  <line class="st4" x1="457.76" y1="550.12" x2="451.95" y2="548.62"/>
  <line class="st4" x1="448.08" y1="547.63" x2="442.27" y2="546.13"/>
  <line class="st4" x1="438.4" y1="545.13" x2="432.58" y2="543.63"/>
  <line class="st4" x1="428.71" y1="542.63" x2="422.9" y2="541.13"/>
  <line class="st4" x1="419.03" y1="540.13" x2="413.22" y2="538.63"/>
  <line class="st4" x1="409.35" y1="537.63" x2="403.54" y2="536.13"/>
  <line class="st4" x1="399.66" y1="535.14" x2="393.85" y2="533.64"/>
  <line class="st4" x1="389.98" y1="532.64" x2="384.17" y2="531.14"/>
  <line class="st4" x1="380.3" y1="530.14" x2="374.49" y2="528.64"/>
  <line class="st4" x1="370.61" y1="527.64" x2="364.81" y2="526.15"/>
  <line class="st4" x1="360.93" y1="525.14" x2="355.12" y2="523.65"/>
  <line class="st4" x1="351.25" y1="522.65" x2="345.44" y2="521.15"/>
  <line class="st4" x1="341.56" y1="520.15" x2="335.76" y2="518.65"/>
  <line class="st4" x1="331.88" y1="517.65" x2="326.07" y2="516.15"/>
  <line class="st4" x1="322.2" y1="515.16" x2="316.39" y2="513.66"/>
  <line class="st4" x1="312.51" y1="512.66" x2="306.71" y2="511.16"/>
  <line class="st4" x1="302.83" y1="510.16" x2="297.02" y2="508.66"/>
  <line class="st4" x1="293.15" y1="507.66" x2="287.34" y2="506.16"/>
  <line class="st4" x1="283.46" y1="505.16" x2="277.66" y2="503.66"/>
  <line class="st4" x1="273.78" y1="502.67" x2="269.84" y2="501.65"/>
  <line class="st4" x1="727.02" y1="591.23" x2="723.08" y2="590.21"/>
  <line class="st4" x1="719.2" y1="589.22" x2="713.39" y2="587.72"/>
  <line class="st4" x1="709.52" y1="586.72" x2="703.71" y2="585.22"/>
  <line class="st4" x1="699.84" y1="584.22" x2="694.03" y2="582.72"/>
  <line class="st4" x1="690.16" y1="581.72" x2="684.34" y2="580.22"/>
  <line class="st4" x1="680.47" y1="579.22" x2="674.66" y2="577.72"/>
  <line class="st4" x1="670.79" y1="576.73" x2="664.98" y2="575.23"/>
  <line class="st4" x1="661.11" y1="574.23" x2="655.29" y2="572.73"/>
  <line class="st4" x1="651.42" y1="571.73" x2="645.61" y2="570.23"/>
  <line class="st4" x1="641.74" y1="569.23" x2="635.93" y2="567.74"/>
  <line class="st4" x1="632.06" y1="566.73" x2="626.25" y2="565.24"/>
  <line class="st4" x1="622.37" y1="564.24" x2="616.56" y2="562.74"/>
  <line class="st4" x1="612.69" y1="561.74" x2="606.88" y2="560.24"/>
  <line class="st4" x1="603.01" y1="559.24" x2="597.2" y2="557.74"/>
  <line class="st4" x1="593.32" y1="556.75" x2="587.52" y2="555.25"/>
  <line class="st4" x1="583.64" y1="554.25" x2="577.83" y2="552.75"/>
  <line class="st4" x1="573.96" y1="551.75" x2="568.15" y2="550.25"/>
  <line class="st4" x1="564.27" y1="549.25" x2="558.47" y2="547.75"/>
  <line class="st4" x1="554.59" y1="546.75" x2="548.78" y2="545.25"/>
  <line class="st4" x1="544.91" y1="544.26" x2="539.1" y2="542.76"/>
  <line class="st4" x1="535.22" y1="541.76" x2="529.42" y2="540.26"/>
  <line class="st4" x1="525.54" y1="539.26" x2="519.73" y2="537.76"/>
  <line class="st4" x1="515.86" y1="536.76" x2="510.05" y2="535.26"/>
  <line class="st4" x1="506.18" y1="534.26" x2="500.37" y2="532.77"/>
  <line class="st4" x1="496.49" y1="531.77" x2="490.68" y2="530.27"/>
  <line class="st4" x1="486.81" y1="529.27" x2="481" y2="527.77"/>
  <line class="st4" x1="477.13" y1="526.77" x2="471.32" y2="525.27"/>
  <line class="st4" x1="467.45" y1="524.27" x2="461.63" y2="522.77"/>
  <line class="st4" x1="457.76" y1="521.78" x2="451.95" y2="520.28"/>
  <line class="st4" x1="448.08" y1="519.28" x2="442.27" y2="517.78"/>
  <line class="st4" x1="438.4" y1="516.78" x2="432.58" y2="515.28"/>
  <line class="st4" x1="428.71" y1="514.28" x2="422.9" y2="512.79"/>
  <line class="st4" x1="419.03" y1="511.78" x2="413.22" y2="510.29"/>
  <line class="st4" x1="409.35" y1="509.29" x2="403.54" y2="507.79"/>
  <line class="st4" x1="399.66" y1="506.79" x2="393.85" y2="505.29"/>
  <line class="st4" x1="389.98" y1="504.29" x2="384.17" y2="502.79"/>
  <line class="st4" x1="380.3" y1="501.8" x2="374.49" y2="500.3"/>
  <line class="st4" x1="370.61" y1="499.3" x2="364.81" y2="497.8"/>
  <line class="st4" x1="360.93" y1="496.8" x2="355.12" y2="495.3"/>
  <line class="st4" x1="351.25" y1="494.3" x2="345.44" y2="492.8"/>
  <line class="st4" x1="341.56" y1="491.8" x2="335.76" y2="490.3"/>
  <line class="st4" x1="331.88" y1="489.31" x2="326.07" y2="487.81"/>
  <line class="st4" x1="322.2" y1="486.81" x2="316.39" y2="485.31"/>
  <line class="st4" x1="312.51" y1="484.31" x2="306.71" y2="482.81"/>
  <line class="st4" x1="302.83" y1="481.81" x2="297.02" y2="480.31"/>
  <line class="st4" x1="293.15" y1="479.31" x2="287.34" y2="477.82"/>
  <line class="st4" x1="283.46" y1="476.82" x2="277.66" y2="475.32"/>
  <line class="st4" x1="273.78" y1="474.32" x2="269.84" y2="473.3"/>
  <line class="st4" x1="727.02" y1="562.88" x2="723.08" y2="561.87"/>
  <line class="st4" x1="719.2" y1="560.87" x2="713.39" y2="559.37"/>
  <line class="st4" x1="709.52" y1="558.37" x2="703.71" y2="556.87"/>
  <line class="st4" x1="699.84" y1="555.87" x2="694.03" y2="554.38"/>
  <line class="st4" x1="690.16" y1="553.37" x2="684.34" y2="551.88"/>
  <line class="st4" x1="680.47" y1="550.88" x2="674.66" y2="549.38"/>
  <line class="st4" x1="670.79" y1="548.38" x2="664.98" y2="546.88"/>
  <line class="st4" x1="661.11" y1="545.88" x2="655.29" y2="544.38"/>
  <line class="st4" x1="651.42" y1="543.39" x2="645.61" y2="541.89"/>
  <line class="st4" x1="641.74" y1="540.89" x2="635.93" y2="539.39"/>
  <line class="st4" x1="632.06" y1="538.39" x2="626.25" y2="536.89"/>
  <line class="st4" x1="622.37" y1="535.89" x2="616.56" y2="534.39"/>
  <line class="st4" x1="612.69" y1="533.39" x2="606.88" y2="531.89"/>
  <line class="st4" x1="603.01" y1="530.9" x2="597.2" y2="529.4"/>
  <line class="st4" x1="593.32" y1="528.4" x2="587.52" y2="526.9"/>
  <line class="st4" x1="583.64" y1="525.9" x2="577.83" y2="524.4"/>
  <line class="st4" x1="573.96" y1="523.4" x2="568.15" y2="521.9"/>
  <line class="st4" x1="564.27" y1="520.9" x2="558.47" y2="519.41"/>
  <line class="st4" x1="554.59" y1="518.41" x2="548.78" y2="516.91"/>
  <line class="st4" x1="544.91" y1="515.91" x2="539.1" y2="514.41"/>
  <line class="st4" x1="535.22" y1="513.41" x2="529.42" y2="511.91"/>
  <line class="st4" x1="525.54" y1="510.91" x2="519.73" y2="509.41"/>
  <line class="st4" x1="515.86" y1="508.42" x2="510.05" y2="506.92"/>
  <line class="st4" x1="506.18" y1="505.92" x2="500.37" y2="504.42"/>
  <line class="st4" x1="496.49" y1="503.42" x2="490.68" y2="501.92"/>
  <line class="st4" x1="486.81" y1="500.92" x2="481" y2="499.42"/>
  <line class="st4" x1="477.13" y1="498.42" x2="471.32" y2="496.93"/>
  <line class="st4" x1="467.45" y1="495.93" x2="461.63" y2="494.43"/>
  <line class="st4" x1="457.76" y1="493.43" x2="451.95" y2="491.93"/>
  <line class="st4" x1="448.08" y1="490.93" x2="442.27" y2="489.43"/>
  <line class="st4" x1="438.4" y1="488.43" x2="432.58" y2="486.94"/>
  <line class="st4" x1="428.71" y1="485.94" x2="422.9" y2="484.44"/>
  <line class="st4" x1="419.03" y1="483.44" x2="413.22" y2="481.94"/>
  <line class="st4" x1="409.35" y1="480.94" x2="403.54" y2="479.44"/>
  <line class="st4" x1="399.66" y1="478.44" x2="393.85" y2="476.94"/>
  <line class="st4" x1="389.98" y1="475.95" x2="384.17" y2="474.45"/>
  <line class="st4" x1="380.3" y1="473.45" x2="374.49" y2="471.95"/>
  <line class="st4" x1="370.61" y1="470.95" x2="364.81" y2="469.45"/>
  <line class="st4" x1="360.93" y1="468.45" x2="355.12" y2="466.95"/>
  <line class="st4" x1="351.25" y1="465.95" x2="345.44" y2="464.45"/>
  <line class="st4" x1="341.56" y1="463.46" x2="335.76" y2="461.96"/>
  <line class="st4" x1="331.88" y1="460.96" x2="326.07" y2="459.46"/>
  <line class="st4" x1="322.2" y1="458.46" x2="316.39" y2="456.96"/>
  <line class="st4" x1="312.51" y1="455.96" x2="306.71" y2="454.47"/>
  <line class="st4" x1="302.83" y1="453.46" x2="297.02" y2="451.97"/>
  <line class="st4" x1="293.15" y1="450.97" x2="287.34" y2="449.47"/>
  <line class="st4" x1="283.46" y1="448.47" x2="277.66" y2="446.97"/>
  <line class="st4" x1="273.78" y1="445.97" x2="269.84" y2="444.96"/>
  <line class="st4" x1="727.02" y1="534.54" x2="723.08" y2="533.52"/>
  <line class="st4" x1="719.2" y1="532.52" x2="713.39" y2="531.02"/>
  <line class="st4" x1="709.52" y1="530.02" x2="703.71" y2="528.53"/>
  <line class="st4" x1="699.84" y1="527.53" x2="694.03" y2="526.03"/>
  <line class="st4" x1="690.16" y1="525.03" x2="684.34" y2="523.53"/>
  <line class="st4" x1="680.47" y1="522.53" x2="674.66" y2="521.03"/>
  <line class="st4" x1="670.79" y1="520.03" x2="664.98" y2="518.53"/>
  <line class="st4" x1="661.11" y1="517.54" x2="655.29" y2="516.04"/>
  <line class="st4" x1="651.42" y1="515.04" x2="645.61" y2="513.54"/>
  <line class="st4" x1="641.74" y1="512.54" x2="635.93" y2="511.04"/>
  <line class="st4" x1="632.06" y1="510.04" x2="626.25" y2="508.54"/>
  <line class="st4" x1="622.37" y1="507.54" x2="616.56" y2="506.04"/>
  <line class="st4" x1="612.69" y1="505.05" x2="606.88" y2="503.55"/>
  <line class="st4" x1="603.01" y1="502.55" x2="597.2" y2="501.05"/>
  <line class="st4" x1="593.32" y1="500.05" x2="587.52" y2="498.55"/>
  <line class="st4" x1="583.64" y1="497.55" x2="577.83" y2="496.06"/>
  <line class="st4" x1="573.96" y1="495.05" x2="568.15" y2="493.56"/>
  <line class="st4" x1="564.27" y1="492.56" x2="558.47" y2="491.06"/>
  <line class="st4" x1="554.59" y1="490.06" x2="548.78" y2="488.56"/>
  <line class="st4" x1="544.91" y1="487.56" x2="539.1" y2="486.06"/>
  <line class="st4" x1="535.22" y1="485.07" x2="529.42" y2="483.57"/>
  <line class="st4" x1="525.54" y1="482.57" x2="519.73" y2="481.07"/>
  <line class="st4" x1="515.86" y1="480.07" x2="510.05" y2="478.57"/>
  <line class="st4" x1="506.18" y1="477.57" x2="500.37" y2="476.07"/>
  <line class="st4" x1="496.49" y1="475.07" x2="490.68" y2="473.58"/>
  <line class="st4" x1="486.81" y1="472.58" x2="481" y2="471.08"/>
  <line class="st4" x1="477.13" y1="470.08" x2="471.32" y2="468.58"/>
  <line class="st4" x1="467.45" y1="467.58" x2="461.63" y2="466.08"/>
  <line class="st4" x1="457.76" y1="465.08" x2="451.95" y2="463.58"/>
  <line class="st4" x1="448.08" y1="462.59" x2="442.27" y2="461.09"/>
  <line class="st4" x1="438.4" y1="460.09" x2="432.58" y2="458.59"/>
  <line class="st4" x1="428.71" y1="457.59" x2="422.9" y2="456.09"/>
  <line class="st4" x1="419.03" y1="455.09" x2="413.22" y2="453.59"/>
  <line class="st4" x1="409.35" y1="452.59" x2="403.54" y2="451.09"/>
  <line class="st4" x1="399.66" y1="450.1" x2="393.85" y2="448.6"/>
  <line class="st4" x1="389.98" y1="447.6" x2="384.17" y2="446.1"/>
  <line class="st4" x1="380.3" y1="445.1" x2="374.49" y2="443.6"/>
  <line class="st4" x1="370.61" y1="442.6" x2="364.81" y2="441.11"/>
  <line class="st4" x1="360.93" y1="440.1" x2="355.12" y2="438.61"/>
  <line class="st4" x1="351.25" y1="437.61" x2="345.44" y2="436.11"/>
  <line class="st4" x1="341.56" y1="435.11" x2="335.76" y2="433.61"/>
  <line class="st4" x1="331.88" y1="432.61" x2="326.07" y2="431.11"/>
  <line class="st4" x1="322.2" y1="430.12" x2="316.39" y2="428.62"/>
  <line class="st4" x1="312.51" y1="427.62" x2="306.71" y2="426.12"/>
  <line class="st4" x1="302.83" y1="425.12" x2="297.02" y2="423.62"/>
  <line class="st4" x1="293.15" y1="422.62" x2="287.34" y2="421.12"/>
  <line class="st4" x1="283.46" y1="420.12" x2="277.66" y2="418.62"/>
  <line class="st4" x1="273.78" y1="417.63" x2="269.84" y2="416.61"/>
  <line class="st4" x1="727.02" y1="534.54" x2="728.28" y2="532.9"/>
  <line class="st4" x1="730.45" y1="530.1" x2="734.12" y2="525.35"/>
  <line class="st4" x1="736.57" y1="522.19" x2="740.24" y2="517.45"/>
  <line class="st4" x1="742.69" y1="514.28" x2="746.36" y2="509.54"/>
  <line class="st4" x1="748.81" y1="506.37" x2="752.48" y2="501.63"/>
  <line class="st4" x1="754.93" y1="498.46" x2="758.6" y2="493.72"/>
  <line class="st4" x1="761.05" y1="490.56" x2="764.72" y2="485.81"/>
  <line class="st4" x1="767.17" y1="482.65" x2="770.84" y2="477.9"/>
  <line class="st4" x1="773.29" y1="474.74" x2="776.96" y2="469.99"/>
  <line class="st4" x1="779.41" y1="466.83" x2="783.08" y2="462.08"/>
  <line class="st4" x1="785.53" y1="458.92" x2="789.2" y2="454.18"/>
  <line class="st4" x1="791.65" y1="451.01" x2="795.33" y2="446.27"/>
  <line class="st4" x1="797.77" y1="443.1" x2="801.45" y2="438.36"/>
  <line class="st4" x1="803.89" y1="435.2" x2="807.57" y2="430.45"/>
  <line class="st4" x1="810.01" y1="427.29" x2="813.69" y2="422.54"/>
  <line class="st4" x1="816.13" y1="419.38" x2="819.81" y2="414.64"/>
  <line class="st4" x1="822.25" y1="411.47" x2="825.93" y2="406.73"/>
  <line class="st4" x1="828.37" y1="403.56" x2="832.05" y2="398.82"/>
  <line class="st4" x1="834.49" y1="395.65" x2="838.17" y2="390.91"/>
  <line class="st4" x1="840.61" y1="387.75" x2="844.29" y2="383"/>
  <line class="st4" x1="846.73" y1="379.84" x2="850.41" y2="375.09"/>
  <line class="st4" x1="852.85" y1="371.93" x2="856.53" y2="367.18"/>
  <line class="st4" x1="858.97" y1="364.02" x2="862.65" y2="359.27"/>
  <line class="st4" x1="865.09" y1="356.11" x2="868.77" y2="351.37"/>
  <line class="st4" x1="871.21" y1="348.2" x2="874.89" y2="343.46"/>
  <line class="st4" x1="877.33" y1="340.29" x2="881.01" y2="335.55"/>
  <line class="st4" x1="883.45" y1="332.39" x2="887.13" y2="327.64"/>
  <line class="st4" x1="889.57" y1="324.48" x2="893.25" y2="319.73"/>
  <line class="st4" x1="895.69" y1="316.57" x2="899.37" y2="311.82"/>
  <line class="st4" x1="901.81" y1="308.66" x2="905.49" y2="303.91"/>
  <line class="st4" x1="907.93" y1="300.75" x2="911.61" y2="296.01"/>
  <line class="st4" x1="914.05" y1="292.84" x2="917.73" y2="288.1"/>
  <line class="st4" x1="919.89" y1="285.29" x2="921.16" y2="283.66"/>
  <line class="st4" x1="727.02" y1="562.88" x2="728.28" y2="561.25"/>
  <line class="st4" x1="730.45" y1="558.45" x2="734.12" y2="553.7"/>
  <line class="st4" x1="736.57" y1="550.54" x2="740.24" y2="545.79"/>
  <line class="st4" x1="742.69" y1="542.63" x2="746.36" y2="537.88"/>
  <line class="st4" x1="748.81" y1="534.72" x2="752.48" y2="529.97"/>
  <line class="st4" x1="754.93" y1="526.81" x2="758.6" y2="522.07"/>
  <line class="st4" x1="761.05" y1="518.9" x2="764.72" y2="514.16"/>
  <line class="st4" x1="767.17" y1="510.99" x2="770.84" y2="506.25"/>
  <line class="st4" x1="773.29" y1="503.09" x2="776.96" y2="498.34"/>
  <line class="st4" x1="779.41" y1="495.18" x2="783.08" y2="490.43"/>
  <line class="st4" x1="785.53" y1="487.27" x2="789.2" y2="482.52"/>
  <line class="st4" x1="791.65" y1="479.36" x2="795.33" y2="474.61"/>
  <line class="st4" x1="797.77" y1="471.45" x2="801.45" y2="466.71"/>
  <line class="st4" x1="803.89" y1="463.54" x2="807.57" y2="458.8"/>
  <line class="st4" x1="810.01" y1="455.64" x2="813.69" y2="450.89"/>
  <line class="st4" x1="816.13" y1="447.73" x2="819.81" y2="442.98"/>
  <line class="st4" x1="822.25" y1="439.82" x2="825.93" y2="435.07"/>
  <line class="st4" x1="828.37" y1="431.91" x2="832.05" y2="427.16"/>
  <line class="st4" x1="834.49" y1="424" x2="838.17" y2="419.26"/>
  <line class="st4" x1="840.61" y1="416.09" x2="844.29" y2="411.35"/>
  <line class="st4" x1="846.73" y1="408.18" x2="850.41" y2="403.44"/>
  <line class="st4" x1="852.85" y1="400.28" x2="856.53" y2="395.53"/>
  <line class="st4" x1="858.97" y1="392.37" x2="862.65" y2="387.62"/>
  <line class="st4" x1="865.09" y1="384.46" x2="868.77" y2="379.71"/>
  <line class="st4" x1="871.21" y1="376.55" x2="874.89" y2="371.8"/>
  <line class="st4" x1="877.33" y1="368.64" x2="881.01" y2="363.9"/>
  <line class="st4" x1="883.45" y1="360.73" x2="887.13" y2="355.99"/>
  <line class="st4" x1="889.57" y1="352.82" x2="893.25" y2="348.08"/>
  <line class="st4" x1="895.69" y1="344.91" x2="899.37" y2="340.17"/>
  <line class="st4" x1="901.81" y1="337.01" x2="905.49" y2="332.26"/>
  <line class="st4" x1="907.93" y1="329.1" x2="911.61" y2="324.35"/>
  <line class="st4" x1="914.05" y1="321.19" x2="917.73" y2="316.44"/>
  <line class="st4" x1="919.89" y1="313.64" x2="921.16" y2="312.01"/>
  <line class="st4" x1="727.02" y1="591.23" x2="728.28" y2="589.6"/>
  <line class="st4" x1="730.45" y1="586.79" x2="734.12" y2="582.05"/>
  <line class="st4" x1="736.57" y1="578.88" x2="740.24" y2="574.14"/>
  <line class="st4" x1="742.69" y1="570.98" x2="746.36" y2="566.23"/>
  <line class="st4" x1="748.81" y1="563.07" x2="752.48" y2="558.32"/>
  <line class="st4" x1="754.93" y1="555.16" x2="758.6" y2="550.41"/>
  <line class="st4" x1="761.05" y1="547.25" x2="764.72" y2="542.5"/>
  <line class="st4" x1="767.17" y1="539.34" x2="770.84" y2="534.6"/>
  <line class="st4" x1="773.29" y1="531.43" x2="776.96" y2="526.69"/>
  <line class="st4" x1="779.41" y1="523.52" x2="783.08" y2="518.78"/>
  <line class="st4" x1="785.53" y1="515.61" x2="789.2" y2="510.87"/>
  <line class="st4" x1="791.65" y1="507.71" x2="795.33" y2="502.96"/>
  <line class="st4" x1="797.77" y1="499.8" x2="801.45" y2="495.05"/>
  <line class="st4" x1="803.89" y1="491.89" x2="807.57" y2="487.15"/>
  <line class="st4" x1="810.01" y1="483.98" x2="813.69" y2="479.24"/>
  <line class="st4" x1="816.13" y1="476.07" x2="819.81" y2="471.33"/>
  <line class="st4" x1="822.25" y1="468.17" x2="825.93" y2="463.42"/>
  <line class="st4" x1="828.37" y1="460.26" x2="832.05" y2="455.51"/>
  <line class="st4" x1="834.49" y1="452.35" x2="838.17" y2="447.6"/>
  <line class="st4" x1="840.61" y1="444.44" x2="844.29" y2="439.69"/>
  <line class="st4" x1="846.73" y1="436.53" x2="850.41" y2="431.79"/>
  <line class="st4" x1="852.85" y1="428.62" x2="856.53" y2="423.88"/>
  <line class="st4" x1="858.97" y1="420.71" x2="862.65" y2="415.97"/>
  <line class="st4" x1="865.09" y1="412.8" x2="868.77" y2="408.06"/>
  <line class="st4" x1="871.21" y1="404.9" x2="874.89" y2="400.15"/>
  <line class="st4" x1="877.33" y1="396.99" x2="881.01" y2="392.24"/>
  <line class="st4" x1="883.45" y1="389.08" x2="887.13" y2="384.33"/>
  <line class="st4" x1="889.57" y1="381.17" x2="893.25" y2="376.42"/>
  <line class="st4" x1="895.69" y1="373.26" x2="899.37" y2="368.52"/>
  <line class="st4" x1="901.81" y1="365.35" x2="905.49" y2="360.61"/>
  <line class="st4" x1="907.93" y1="357.44" x2="911.61" y2="352.7"/>
  <line class="st4" x1="914.05" y1="349.54" x2="917.73" y2="344.79"/>
  <line class="st4" x1="919.89" y1="341.99" x2="921.16" y2="340.35"/>
  <line class="st4" x1="727.02" y1="619.58" x2="728.28" y2="617.94"/>
  <line class="st4" x1="730.45" y1="615.14" x2="734.12" y2="610.39"/>
  <line class="st4" x1="736.57" y1="607.23" x2="740.24" y2="602.49"/>
  <line class="st4" x1="742.69" y1="599.32" x2="746.36" y2="594.58"/>
  <line class="st4" x1="748.81" y1="591.41" x2="752.48" y2="586.67"/>
  <line class="st4" x1="754.93" y1="583.5" x2="758.6" y2="578.76"/>
  <line class="st4" x1="761.05" y1="575.6" x2="764.72" y2="570.85"/>
  <line class="st4" x1="767.17" y1="567.69" x2="770.84" y2="562.94"/>
  <line class="st4" x1="773.29" y1="559.78" x2="776.96" y2="555.03"/>
  <line class="st4" x1="779.41" y1="551.87" x2="783.08" y2="547.12"/>
  <line class="st4" x1="785.53" y1="543.96" x2="789.2" y2="539.22"/>
  <line class="st4" x1="791.65" y1="536.05" x2="795.33" y2="531.31"/>
  <line class="st4" x1="797.77" y1="528.14" x2="801.45" y2="523.4"/>
  <line class="st4" x1="803.89" y1="520.24" x2="807.57" y2="515.49"/>
  <line class="st4" x1="810.01" y1="512.33" x2="813.69" y2="507.58"/>
  <line class="st4" x1="816.13" y1="504.42" x2="819.81" y2="499.68"/>
  <line class="st4" x1="822.25" y1="496.51" x2="825.93" y2="491.77"/>
  <line class="st4" x1="828.37" y1="488.6" x2="832.05" y2="483.86"/>
  <line class="st4" x1="834.49" y1="480.69" x2="838.17" y2="475.95"/>
  <line class="st4" x1="840.61" y1="472.79" x2="844.29" y2="468.04"/>
  <line class="st4" x1="846.73" y1="464.88" x2="850.41" y2="460.13"/>
  <line class="st4" x1="852.85" y1="456.97" x2="856.53" y2="452.22"/>
  <line class="st4" x1="858.97" y1="449.06" x2="862.65" y2="444.31"/>
  <line class="st4" x1="865.09" y1="441.15" x2="868.77" y2="436.41"/>
  <line class="st4" x1="871.21" y1="433.24" x2="874.89" y2="428.5"/>
  <line class="st4" x1="877.33" y1="425.33" x2="881.01" y2="420.59"/>
  <line class="st4" x1="883.45" y1="417.42" x2="887.13" y2="412.68"/>
  <line class="st4" x1="889.57" y1="409.52" x2="893.25" y2="404.77"/>
  <line class="st4" x1="895.69" y1="401.61" x2="899.37" y2="396.86"/>
  <line class="st4" x1="901.81" y1="393.7" x2="905.49" y2="388.95"/>
  <line class="st4" x1="907.93" y1="385.79" x2="911.61" y2="381.04"/>
  <line class="st4" x1="914.05" y1="377.88" x2="917.73" y2="373.14"/>
  <line class="st4" x1="919.89" y1="370.33" x2="921.16" y2="368.7"/>
  <line class="st4" x1="727.02" y1="647.92" x2="728.28" y2="646.29"/>
  <line class="st4" x1="730.45" y1="643.49" x2="734.12" y2="638.74"/>
  <line class="st4" x1="736.57" y1="635.58" x2="740.24" y2="630.83"/>
  <line class="st4" x1="742.69" y1="627.67" x2="746.36" y2="622.92"/>
  <line class="st4" x1="748.81" y1="619.76" x2="752.48" y2="615.01"/>
  <line class="st4" x1="754.93" y1="611.85" x2="758.6" y2="607.11"/>
  <line class="st4" x1="761.05" y1="603.94" x2="764.72" y2="599.2"/>
  <line class="st4" x1="767.17" y1="596.03" x2="770.84" y2="591.29"/>
  <line class="st4" x1="773.29" y1="588.12" x2="776.96" y2="583.38"/>
  <line class="st4" x1="779.41" y1="580.22" x2="783.08" y2="575.47"/>
  <line class="st4" x1="785.53" y1="572.31" x2="789.2" y2="567.56"/>
  <line class="st4" x1="791.65" y1="564.4" x2="795.33" y2="559.65"/>
  <line class="st4" x1="797.77" y1="556.49" x2="801.45" y2="551.74"/>
  <line class="st4" x1="803.89" y1="548.58" x2="807.57" y2="543.84"/>
  <line class="st4" x1="810.01" y1="540.68" x2="813.69" y2="535.93"/>
  <line class="st4" x1="816.13" y1="532.77" x2="819.81" y2="528.02"/>
  <line class="st4" x1="822.25" y1="524.86" x2="825.93" y2="520.11"/>
  <line class="st4" x1="828.37" y1="516.95" x2="832.05" y2="512.2"/>
  <line class="st4" x1="834.49" y1="509.04" x2="838.17" y2="504.3"/>
  <line class="st4" x1="840.61" y1="501.13" x2="844.29" y2="496.39"/>
  <line class="st4" x1="846.73" y1="493.22" x2="850.41" y2="488.48"/>
  <line class="st4" x1="852.85" y1="485.31" x2="856.53" y2="480.57"/>
  <line class="st4" x1="858.97" y1="477.41" x2="862.65" y2="472.66"/>
  <line class="st4" x1="865.09" y1="469.5" x2="868.77" y2="464.75"/>
  <line class="st4" x1="871.21" y1="461.59" x2="874.89" y2="456.84"/>
  <line class="st4" x1="877.33" y1="453.68" x2="881.01" y2="448.93"/>
  <line class="st4" x1="883.45" y1="445.77" x2="887.13" y2="441.03"/>
  <line class="st4" x1="889.57" y1="437.86" x2="893.25" y2="433.12"/>
  <line class="st4" x1="895.69" y1="429.95" x2="899.37" y2="425.21"/>
  <line class="st4" x1="901.81" y1="422.05" x2="905.49" y2="417.3"/>
  <line class="st4" x1="907.93" y1="414.14" x2="911.61" y2="409.39"/>
  <line class="st4" x1="914.05" y1="406.23" x2="917.73" y2="401.48"/>
  <line class="st4" x1="919.89" y1="398.68" x2="921.16" y2="397.05"/>
  <line class="st4" x1="727.02" y1="676.27" x2="728.28" y2="674.64"/>
  <line class="st4" x1="730.45" y1="671.83" x2="734.12" y2="667.09"/>
  <line class="st4" x1="736.57" y1="663.92" x2="740.24" y2="659.18"/>
  <line class="st4" x1="742.69" y1="656.01" x2="746.36" y2="651.27"/>
  <line class="st4" x1="748.81" y1="648.11" x2="752.48" y2="643.36"/>
  <line class="st4" x1="754.93" y1="640.2" x2="758.6" y2="635.45"/>
  <line class="st4" x1="761.05" y1="632.29" x2="764.72" y2="627.54"/>
  <line class="st4" x1="767.17" y1="624.38" x2="770.84" y2="619.63"/>
  <line class="st4" x1="773.29" y1="616.47" x2="776.96" y2="611.73"/>
  <line class="st4" x1="779.41" y1="608.56" x2="783.08" y2="603.82"/>
  <line class="st4" x1="785.53" y1="600.65" x2="789.2" y2="595.91"/>
  <line class="st4" x1="791.65" y1="592.75" x2="795.33" y2="588"/>
  <line class="st4" x1="797.77" y1="584.84" x2="801.45" y2="580.09"/>
  <line class="st4" x1="803.89" y1="576.93" x2="807.57" y2="572.19"/>
  <line class="st4" x1="810.01" y1="569.02" x2="813.69" y2="564.28"/>
  <line class="st4" x1="816.13" y1="561.11" x2="819.81" y2="556.37"/>
  <line class="st4" x1="822.25" y1="553.2" x2="825.93" y2="548.46"/>
  <line class="st4" x1="828.37" y1="545.3" x2="832.05" y2="540.55"/>
  <line class="st4" x1="834.49" y1="537.39" x2="838.17" y2="532.64"/>
  <line class="st4" x1="840.61" y1="529.48" x2="844.29" y2="524.73"/>
  <line class="st4" x1="846.73" y1="521.57" x2="850.41" y2="516.82"/>
  <line class="st4" x1="852.85" y1="513.66" x2="856.53" y2="508.92"/>
  <line class="st4" x1="858.97" y1="505.75" x2="862.65" y2="501.01"/>
  <line class="st4" x1="865.09" y1="497.84" x2="868.77" y2="493.1"/>
  <line class="st4" x1="871.21" y1="489.94" x2="874.89" y2="485.19"/>
  <line class="st4" x1="877.33" y1="482.03" x2="881.01" y2="477.28"/>
  <line class="st4" x1="883.45" y1="474.12" x2="887.13" y2="469.37"/>
  <line class="st4" x1="889.57" y1="466.21" x2="893.25" y2="461.46"/>
  <line class="st4" x1="895.69" y1="458.3" x2="899.37" y2="453.56"/>
  <line class="st4" x1="901.81" y1="450.39" x2="905.49" y2="445.65"/>
  <line class="st4" x1="907.93" y1="442.48" x2="911.61" y2="437.74"/>
  <line class="st4" x1="914.05" y1="434.57" x2="917.73" y2="429.83"/>
  <line class="st4" x1="919.89" y1="427.03" x2="921.16" y2="425.39"/>
  <line class="st4" x1="727.02" y1="704.62" x2="728.28" y2="702.98"/>
  <line class="st4" x1="730.45" y1="700.18" x2="734.12" y2="695.43"/>
  <line class="st4" x1="736.57" y1="692.27" x2="740.24" y2="687.52"/>
  <line class="st4" x1="742.69" y1="684.36" x2="746.36" y2="679.62"/>
  <line class="st4" x1="748.81" y1="676.45" x2="752.48" y2="671.71"/>
  <line class="st4" x1="754.93" y1="668.54" x2="758.6" y2="663.8"/>
  <line class="st4" x1="761.05" y1="660.64" x2="764.72" y2="655.89"/>
  <line class="st4" x1="767.17" y1="652.73" x2="770.84" y2="647.98"/>
  <line class="st4" x1="773.29" y1="644.82" x2="776.96" y2="640.07"/>
  <line class="st4" x1="779.41" y1="636.91" x2="783.08" y2="632.16"/>
  <line class="st4" x1="785.53" y1="629" x2="789.2" y2="624.26"/>
  <line class="st4" x1="791.65" y1="621.09" x2="795.33" y2="616.35"/>
  <line class="st4" x1="797.77" y1="613.18" x2="801.45" y2="608.44"/>
  <line class="st4" x1="803.89" y1="605.28" x2="807.57" y2="600.53"/>
  <line class="st4" x1="810.01" y1="597.37" x2="813.69" y2="592.62"/>
  <line class="st4" x1="816.13" y1="589.46" x2="819.81" y2="584.71"/>
  <line class="st4" x1="822.25" y1="581.55" x2="825.93" y2="576.81"/>
  <line class="st4" x1="828.37" y1="573.64" x2="832.05" y2="568.9"/>
  <line class="st4" x1="834.49" y1="565.73" x2="838.17" y2="560.99"/>
  <line class="st4" x1="840.61" y1="557.83" x2="844.29" y2="553.08"/>
  <line class="st4" x1="846.73" y1="549.92" x2="850.41" y2="545.17"/>
  <line class="st4" x1="852.85" y1="542.01" x2="856.53" y2="537.26"/>
  <line class="st4" x1="858.97" y1="534.1" x2="862.65" y2="529.35"/>
  <line class="st4" x1="865.09" y1="526.19" x2="868.77" y2="521.45"/>
  <line class="st4" x1="871.21" y1="518.28" x2="874.89" y2="513.54"/>
  <line class="st4" x1="877.33" y1="510.37" x2="881.01" y2="505.63"/>
  <line class="st4" x1="883.45" y1="502.46" x2="887.13" y2="497.72"/>
  <line class="st4" x1="889.57" y1="494.56" x2="893.25" y2="489.81"/>
  <line class="st4" x1="895.69" y1="486.65" x2="899.37" y2="481.9"/>
  <line class="st4" x1="901.81" y1="478.74" x2="905.49" y2="473.99"/>
  <line class="st4" x1="907.93" y1="470.83" x2="911.61" y2="466.08"/>
  <line class="st4" x1="914.05" y1="462.92" x2="917.73" y2="458.18"/>
  <line class="st4" x1="919.89" y1="455.37" x2="921.16" y2="453.74"/>
  <line class="st1" x1="463.98" y1="335.81" x2="463.98" y2="329.42"/>
  <line class="st1" x1="463.98" y1="325.42" x2="463.98" y2="319.43"/>
  <line class="st1" x1="463.98" y1="315.43" x2="463.98" y2="309.42"/>
  <line class="st1" x1="463.98" y1="305.43" x2="463.98" y2="299.42"/>
  <line class="st1" x1="463.98" y1="295.42" x2="463.98" y2="289.42"/>
  <line class="st1" x1="463.98" y1="285.42" x2="463.98" y2="279.42"/>
  <line class="st1" x1="463.98" y1="275.42" x2="463.98" y2="269.42"/>
  <line class="st1" x1="463.98" y1="265.42" x2="463.98" y2="259.42"/>
  <line class="st1" x1="463.98" y1="255.42" x2="463.98" y2="249.42"/>
  <line class="st1" x1="463.98" y1="245.42" x2="463.98" y2="239.42"/>
  <line class="st1" x1="463.98" y1="235.42" x2="463.98" y2="229.42"/>
  <line class="st1" x1="463.98" y1="225.42" x2="463.98" y2="219.42"/>
  <line class="st1" x1="463.98" y1="215.42" x2="463.98" y2="209.42"/>
  <line class="st1" x1="463.98" y1="205.42" x2="463.98" y2="199.42"/>
  <line class="st1" x1="463.98" y1="195.42" x2="463.98" y2="189.42"/>
  <line class="st1" x1="463.98" y1="185.42" x2="463.98" y2="179.42"/>
  <line class="st1" x1="463.98" y1="175.42" x2="463.98" y2="169.42"/>
  <line class="st1" x1="463.98" y1="165.42" x2="463.98" y2="159.42"/>
  <line class="st1" x1="463.98" y1="155.42" x2="463.98" y2="149.42"/>
  <line class="st1" x1="463.98" y1="145.42" x2="463.98" y2="139.42"/>
  <line class="st1" x1="463.98" y1="135.42" x2="463.98" y2="129.42"/>
  <line class="st1" x1="463.98" y1="125.42" x2="463.98" y2="119.42"/>
  <line class="st1" x1="463.98" y1="115.42" x2="463.98" y2="109.04"/>
  <line class="st2" x1="269.84" y1="388.26" x2="271.11" y2="386.63"/>
  <line class="st2" x1="273.28" y1="383.83" x2="276.95" y2="379.08"/>
  <line class="st2" x1="279.4" y1="375.92" x2="283.07" y2="371.17"/>
  <line class="st2" x1="285.52" y1="368.01" x2="289.19" y2="363.26"/>
  <line class="st2" x1="291.64" y1="360.1" x2="295.31" y2="355.35"/>
  <line class="st2" x1="297.76" y1="352.19" x2="301.43" y2="347.45"/>
  <line class="st2" x1="303.88" y1="344.28" x2="307.55" y2="339.54"/>
  <line class="st2" x1="310" y1="336.37" x2="313.67" y2="331.63"/>
  <line class="st2" x1="316.12" y1="328.47" x2="319.79" y2="323.72"/>
  <line class="st2" x1="322.24" y1="320.56" x2="325.91" y2="315.81"/>
  <line class="st2" x1="328.36" y1="312.65" x2="332.03" y2="307.9"/>
  <line class="st2" x1="334.48" y1="304.74" x2="338.15" y2="299.99"/>
  <line class="st2" x1="340.6" y1="296.83" x2="344.27" y2="292.09"/>
  <line class="st2" x1="346.72" y1="288.92" x2="350.39" y2="284.18"/>
  <line class="st2" x1="352.84" y1="281.01" x2="356.51" y2="276.27"/>
  <line class="st2" x1="358.96" y1="273.1" x2="362.63" y2="268.36"/>
  <line class="st2" x1="365.08" y1="265.2" x2="368.75" y2="260.45"/>
  <line class="st2" x1="371.2" y1="257.29" x2="374.87" y2="252.54"/>
  <line class="st2" x1="377.32" y1="249.38" x2="380.99" y2="244.63"/>
  <line class="st2" x1="383.44" y1="241.47" x2="387.11" y2="236.73"/>
  <line class="st2" x1="389.56" y1="233.56" x2="393.23" y2="228.82"/>
  <line class="st2" x1="395.68" y1="225.65" x2="399.35" y2="220.91"/>
  <line class="st2" x1="401.8" y1="217.75" x2="405.47" y2="213"/>
  <line class="st2" x1="407.92" y1="209.84" x2="411.59" y2="205.09"/>
  <line class="st2" x1="414.04" y1="201.93" x2="417.71" y2="197.18"/>
  <line class="st2" x1="420.16" y1="194.02" x2="423.83" y2="189.27"/>
  <line class="st2" x1="426.28" y1="186.11" x2="429.95" y2="181.37"/>
  <line class="st2" x1="432.4" y1="178.2" x2="436.07" y2="173.46"/>
  <line class="st2" x1="438.52" y1="170.29" x2="442.19" y2="165.55"/>
  <line class="st2" x1="444.64" y1="162.38" x2="448.31" y2="157.64"/>
  <line class="st2" x1="450.76" y1="154.48" x2="454.43" y2="149.73"/>
  <line class="st2" x1="456.88" y1="146.57" x2="460.55" y2="141.82"/>
  <line class="st2" x1="462.72" y1="139.02" x2="463.98" y2="137.38"/>
  <line class="st2" x1="269.84" y1="416.61" x2="271.11" y2="414.98"/>
  <line class="st2" x1="273.28" y1="412.17" x2="276.95" y2="407.43"/>
  <line class="st2" x1="279.4" y1="404.26" x2="283.07" y2="399.52"/>
  <line class="st2" x1="285.52" y1="396.35" x2="289.19" y2="391.61"/>
  <line class="st2" x1="291.64" y1="388.45" x2="295.31" y2="383.7"/>
  <line class="st2" x1="297.76" y1="380.54" x2="301.43" y2="375.79"/>
  <line class="st2" x1="303.88" y1="372.63" x2="307.55" y2="367.88"/>
  <line class="st2" x1="310" y1="364.72" x2="313.67" y2="359.98"/>
  <line class="st2" x1="316.12" y1="356.81" x2="319.79" y2="352.07"/>
  <line class="st2" x1="322.24" y1="348.9" x2="325.91" y2="344.16"/>
  <line class="st2" x1="328.36" y1="340.99" x2="332.03" y2="336.25"/>
  <line class="st2" x1="334.48" y1="333.09" x2="338.15" y2="328.34"/>
  <line class="st2" x1="340.6" y1="325.18" x2="344.27" y2="320.43"/>
  <line class="st2" x1="346.72" y1="317.27" x2="350.39" y2="312.52"/>
  <line class="st2" x1="352.84" y1="309.36" x2="356.51" y2="304.61"/>
  <line class="st2" x1="358.96" y1="301.45" x2="362.63" y2="296.71"/>
  <line class="st2" x1="365.08" y1="293.54" x2="368.75" y2="288.8"/>
  <line class="st2" x1="371.2" y1="285.63" x2="374.87" y2="280.89"/>
  <line class="st2" x1="377.32" y1="277.73" x2="380.99" y2="272.98"/>
  <line class="st2" x1="383.44" y1="269.82" x2="387.11" y2="265.07"/>
  <line class="st2" x1="389.56" y1="261.91" x2="393.23" y2="257.16"/>
  <line class="st2" x1="395.68" y1="254" x2="399.35" y2="249.25"/>
  <line class="st2" x1="401.8" y1="246.09" x2="405.47" y2="241.35"/>
  <line class="st2" x1="407.92" y1="238.18" x2="411.59" y2="233.44"/>
  <line class="st2" x1="414.04" y1="230.27" x2="417.71" y2="225.53"/>
  <line class="st2" x1="420.16" y1="222.37" x2="423.83" y2="217.62"/>
  <line class="st2" x1="426.28" y1="214.46" x2="429.95" y2="209.71"/>
  <line class="st2" x1="432.4" y1="206.55" x2="436.07" y2="201.8"/>
  <line class="st2" x1="438.52" y1="198.64" x2="442.19" y2="193.89"/>
  <line class="st2" x1="444.64" y1="190.73" x2="448.31" y2="185.99"/>
  <line class="st2" x1="450.76" y1="182.82" x2="454.43" y2="178.08"/>
  <line class="st2" x1="456.88" y1="174.91" x2="460.55" y2="170.17"/>
  <line class="st2" x1="462.72" y1="167.37" x2="463.98" y2="165.73"/>
  <line class="st2" x1="269.84" y1="444.96" x2="271.11" y2="443.32"/>
  <line class="st2" x1="273.28" y1="440.52" x2="276.95" y2="435.77"/>
  <line class="st2" x1="279.4" y1="432.61" x2="283.07" y2="427.86"/>
  <line class="st2" x1="285.52" y1="424.7" x2="289.19" y2="419.96"/>
  <line class="st2" x1="291.64" y1="416.79" x2="295.31" y2="412.05"/>
  <line class="st2" x1="297.76" y1="408.88" x2="301.43" y2="404.14"/>
  <line class="st2" x1="303.88" y1="400.98" x2="307.55" y2="396.23"/>
  <line class="st2" x1="310" y1="393.07" x2="313.67" y2="388.32"/>
  <line class="st2" x1="316.12" y1="385.16" x2="319.79" y2="380.41"/>
  <line class="st2" x1="322.24" y1="377.25" x2="325.91" y2="372.5"/>
  <line class="st2" x1="328.36" y1="369.34" x2="332.03" y2="364.6"/>
  <line class="st2" x1="334.48" y1="361.43" x2="338.15" y2="356.69"/>
  <line class="st2" x1="340.6" y1="353.52" x2="344.27" y2="348.78"/>
  <line class="st2" x1="346.72" y1="345.61" x2="350.39" y2="340.87"/>
  <line class="st2" x1="352.84" y1="337.71" x2="356.51" y2="332.96"/>
  <line class="st2" x1="358.96" y1="329.8" x2="362.63" y2="325.05"/>
  <line class="st2" x1="365.08" y1="321.89" x2="368.75" y2="317.14"/>
  <line class="st2" x1="371.2" y1="313.98" x2="374.87" y2="309.23"/>
  <line class="st2" x1="377.32" y1="306.07" x2="380.99" y2="301.33"/>
  <line class="st2" x1="383.44" y1="298.16" x2="387.11" y2="293.42"/>
  <line class="st2" x1="389.56" y1="290.25" x2="393.23" y2="285.51"/>
  <line class="st2" x1="395.68" y1="282.35" x2="399.35" y2="277.6"/>
  <line class="st2" x1="401.8" y1="274.44" x2="405.47" y2="269.69"/>
  <line class="st2" x1="407.92" y1="266.53" x2="411.59" y2="261.78"/>
  <line class="st2" x1="414.04" y1="258.62" x2="417.71" y2="253.88"/>
  <line class="st2" x1="420.16" y1="250.71" x2="423.83" y2="245.97"/>
  <line class="st2" x1="426.28" y1="242.8" x2="429.95" y2="238.06"/>
  <line class="st2" x1="432.4" y1="234.89" x2="436.07" y2="230.15"/>
  <line class="st2" x1="438.52" y1="226.99" x2="442.19" y2="222.24"/>
  <line class="st2" x1="444.64" y1="219.08" x2="448.31" y2="214.33"/>
  <line class="st2" x1="450.76" y1="211.17" x2="454.43" y2="206.42"/>
  <line class="st2" x1="456.88" y1="203.26" x2="460.55" y2="198.52"/>
  <line class="st2" x1="462.72" y1="195.71" x2="463.98" y2="194.08"/>
  <line class="st2" x1="269.84" y1="473.3" x2="271.11" y2="471.67"/>
  <line class="st2" x1="273.28" y1="468.87" x2="276.95" y2="464.12"/>
  <line class="st2" x1="279.4" y1="460.96" x2="283.07" y2="456.21"/>
  <line class="st2" x1="285.52" y1="453.05" x2="289.19" y2="448.3"/>
  <line class="st2" x1="291.64" y1="445.14" x2="295.31" y2="440.39"/>
  <line class="st2" x1="297.76" y1="437.23" x2="301.43" y2="432.49"/>
  <line class="st2" x1="303.88" y1="429.32" x2="307.55" y2="424.58"/>
  <line class="st2" x1="310" y1="421.41" x2="313.67" y2="416.67"/>
  <line class="st2" x1="316.12" y1="413.5" x2="319.79" y2="408.76"/>
  <line class="st2" x1="322.24" y1="405.6" x2="325.91" y2="400.85"/>
  <line class="st2" x1="328.36" y1="397.69" x2="332.03" y2="392.94"/>
  <line class="st2" x1="334.48" y1="389.78" x2="338.15" y2="385.03"/>
  <line class="st2" x1="340.6" y1="381.87" x2="344.27" y2="377.12"/>
  <line class="st2" x1="346.72" y1="373.96" x2="350.39" y2="369.22"/>
  <line class="st2" x1="352.84" y1="366.05" x2="356.51" y2="361.31"/>
  <line class="st2" x1="358.96" y1="358.14" x2="362.63" y2="353.4"/>
  <line class="st2" x1="365.08" y1="350.24" x2="368.75" y2="345.49"/>
  <line class="st2" x1="371.2" y1="342.33" x2="374.87" y2="337.58"/>
  <line class="st2" x1="377.32" y1="334.42" x2="380.99" y2="329.67"/>
  <line class="st2" x1="383.44" y1="326.51" x2="387.11" y2="321.76"/>
  <line class="st2" x1="389.56" y1="318.6" x2="393.23" y2="313.86"/>
  <line class="st2" x1="395.68" y1="310.69" x2="399.35" y2="305.95"/>
  <line class="st2" x1="401.8" y1="302.78" x2="405.47" y2="298.04"/>
  <line class="st2" x1="407.92" y1="294.87" x2="411.59" y2="290.13"/>
  <line class="st2" x1="414.04" y1="286.97" x2="417.71" y2="282.22"/>
  <line class="st2" x1="420.16" y1="279.06" x2="423.83" y2="274.31"/>
  <line class="st2" x1="426.28" y1="271.15" x2="429.95" y2="266.4"/>
  <line class="st2" x1="432.4" y1="263.24" x2="436.07" y2="258.5"/>
  <line class="st2" x1="438.52" y1="255.33" x2="442.19" y2="250.59"/>
  <line class="st2" x1="444.64" y1="247.42" x2="448.31" y2="242.68"/>
  <line class="st2" x1="450.76" y1="239.52" x2="454.43" y2="234.77"/>
  <line class="st2" x1="456.88" y1="231.61" x2="460.55" y2="226.86"/>
  <line class="st2" x1="462.72" y1="224.06" x2="463.98" y2="222.42"/>
  <line class="st2" x1="269.84" y1="501.65" x2="271.11" y2="500.02"/>
  <line class="st2" x1="273.28" y1="497.21" x2="276.95" y2="492.47"/>
  <line class="st2" x1="279.4" y1="489.3" x2="283.07" y2="484.56"/>
  <line class="st2" x1="285.52" y1="481.39" x2="289.19" y2="476.65"/>
  <line class="st2" x1="291.64" y1="473.49" x2="295.31" y2="468.74"/>
  <line class="st2" x1="297.76" y1="465.58" x2="301.43" y2="460.83"/>
  <line class="st2" x1="303.88" y1="457.67" x2="307.55" y2="452.92"/>
  <line class="st2" x1="310" y1="449.76" x2="313.67" y2="445.01"/>
  <line class="st2" x1="316.12" y1="441.85" x2="319.79" y2="437.11"/>
  <line class="st2" x1="322.24" y1="433.94" x2="325.91" y2="429.2"/>
  <line class="st2" x1="328.36" y1="426.03" x2="332.03" y2="421.29"/>
  <line class="st2" x1="334.48" y1="418.13" x2="338.15" y2="413.38"/>
  <line class="st2" x1="340.6" y1="410.22" x2="344.27" y2="405.47"/>
  <line class="st2" x1="346.72" y1="402.31" x2="350.39" y2="397.56"/>
  <line class="st2" x1="352.84" y1="394.4" x2="356.51" y2="389.65"/>
  <line class="st2" x1="358.96" y1="386.49" x2="362.63" y2="381.75"/>
  <line class="st2" x1="365.08" y1="378.58" x2="368.75" y2="373.84"/>
  <line class="st2" x1="371.2" y1="370.67" x2="374.87" y2="365.93"/>
  <line class="st2" x1="377.32" y1="362.76" x2="380.99" y2="358.02"/>
  <line class="st2" x1="383.44" y1="354.86" x2="387.11" y2="350.11"/>
  <line class="st2" x1="389.56" y1="346.95" x2="393.23" y2="342.2"/>
  <line class="st2" x1="395.68" y1="339.04" x2="399.35" y2="334.29"/>
  <line class="st2" x1="401.8" y1="331.13" x2="405.47" y2="326.38"/>
  <line class="st2" x1="407.92" y1="323.22" x2="411.59" y2="318.48"/>
  <line class="st2" x1="414.04" y1="315.32" x2="417.71" y2="310.57"/>
  <line class="st2" x1="420.16" y1="307.41" x2="423.83" y2="302.66"/>
  <line class="st2" x1="426.28" y1="299.5" x2="429.95" y2="294.75"/>
  <line class="st2" x1="432.4" y1="291.59" x2="436.07" y2="286.84"/>
  <line class="st2" x1="438.52" y1="283.68" x2="442.19" y2="278.93"/>
  <line class="st2" x1="444.64" y1="275.77" x2="448.31" y2="271.03"/>
  <line class="st2" x1="450.76" y1="267.86" x2="454.43" y2="263.12"/>
  <line class="st2" x1="456.88" y1="259.95" x2="460.55" y2="255.21"/>
  <line class="st2" x1="462.72" y1="252.4" x2="463.98" y2="250.77"/>
  <line class="st2" x1="269.84" y1="529.99" x2="271.11" y2="528.36"/>
  <line class="st2" x1="273.28" y1="525.56" x2="276.95" y2="520.81"/>
  <line class="st2" x1="279.4" y1="517.65" x2="283.07" y2="512.9"/>
  <line class="st2" x1="285.52" y1="509.74" x2="289.19" y2="505"/>
  <line class="st2" x1="291.64" y1="501.83" x2="295.31" y2="497.09"/>
  <line class="st2" x1="297.76" y1="493.92" x2="301.43" y2="489.18"/>
  <line class="st2" x1="303.88" y1="486.01" x2="307.55" y2="481.27"/>
  <line class="st2" x1="310" y1="478.11" x2="313.67" y2="473.36"/>
  <line class="st2" x1="316.12" y1="470.2" x2="319.79" y2="465.45"/>
  <line class="st2" x1="322.24" y1="462.29" x2="325.91" y2="457.54"/>
  <line class="st2" x1="328.36" y1="454.38" x2="332.03" y2="449.64"/>
  <line class="st2" x1="334.48" y1="446.47" x2="338.15" y2="441.73"/>
  <line class="st2" x1="340.6" y1="438.56" x2="344.27" y2="433.82"/>
  <line class="st2" x1="346.72" y1="430.65" x2="350.39" y2="425.91"/>
  <line class="st2" x1="352.84" y1="422.75" x2="356.51" y2="418"/>
  <line class="st2" x1="358.96" y1="414.84" x2="362.63" y2="410.09"/>
  <line class="st2" x1="365.08" y1="406.93" x2="368.75" y2="402.18"/>
  <line class="st2" x1="371.2" y1="399.02" x2="374.87" y2="394.27"/>
  <line class="st2" x1="377.32" y1="391.11" x2="380.99" y2="386.37"/>
  <line class="st2" x1="383.44" y1="383.2" x2="387.11" y2="378.46"/>
  <line class="st2" x1="389.56" y1="375.29" x2="393.23" y2="370.55"/>
  <line class="st2" x1="395.68" y1="367.38" x2="399.35" y2="362.64"/>
  <line class="st2" x1="401.8" y1="359.48" x2="405.47" y2="354.73"/>
  <line class="st2" x1="407.92" y1="351.57" x2="411.59" y2="346.83"/>
  <line class="st2" x1="414.04" y1="343.66" x2="417.71" y2="338.92"/>
  <line class="st2" x1="420.16" y1="335.75" x2="423.83" y2="331.01"/>
  <line class="st2" x1="426.28" y1="327.84" x2="429.95" y2="323.1"/>
  <line class="st2" x1="432.4" y1="319.94" x2="436.07" y2="315.19"/>
  <line class="st2" x1="438.52" y1="312.03" x2="442.19" y2="307.28"/>
  <line class="st2" x1="444.64" y1="304.12" x2="448.31" y2="299.37"/>
  <line class="st2" x1="450.76" y1="296.21" x2="454.43" y2="291.46"/>
  <line class="st2" x1="456.88" y1="288.3" x2="460.55" y2="283.56"/>
  <line class="st2" x1="462.72" y1="280.75" x2="463.98" y2="279.12"/>
  <line class="st2" x1="269.84" y1="558.34" x2="271.11" y2="556.71"/>
  <line class="st2" x1="273.28" y1="553.9" x2="276.95" y2="549.16"/>
  <line class="st2" x1="279.4" y1="546" x2="283.07" y2="541.25"/>
  <line class="st2" x1="285.52" y1="538.09" x2="289.19" y2="533.34"/>
  <line class="st2" x1="291.64" y1="530.18" x2="295.31" y2="525.43"/>
  <line class="st2" x1="297.76" y1="522.27" x2="301.43" y2="517.52"/>
  <line class="st2" x1="303.88" y1="514.36" x2="307.55" y2="509.62"/>
  <line class="st2" x1="310" y1="506.45" x2="313.67" y2="501.71"/>
  <line class="st2" x1="316.12" y1="498.54" x2="319.79" y2="493.8"/>
  <line class="st2" x1="322.24" y1="490.64" x2="325.91" y2="485.89"/>
  <line class="st2" x1="328.36" y1="482.73" x2="332.03" y2="477.98"/>
  <line class="st2" x1="334.48" y1="474.82" x2="338.15" y2="470.07"/>
  <line class="st2" x1="340.6" y1="466.91" x2="344.27" y2="462.16"/>
  <line class="st2" x1="346.72" y1="459" x2="350.39" y2="454.26"/>
  <line class="st2" x1="352.84" y1="451.09" x2="356.51" y2="446.35"/>
  <line class="st2" x1="358.96" y1="443.18" x2="362.63" y2="438.44"/>
  <line class="st2" x1="365.08" y1="435.27" x2="368.75" y2="430.53"/>
  <line class="st2" x1="371.2" y1="427.37" x2="374.87" y2="422.62"/>
  <line class="st2" x1="377.32" y1="419.46" x2="380.99" y2="414.71"/>
  <line class="st2" x1="383.44" y1="411.55" x2="387.11" y2="406.8"/>
  <line class="st2" x1="389.56" y1="403.64" x2="393.23" y2="398.89"/>
  <line class="st2" x1="395.68" y1="395.73" x2="399.35" y2="390.99"/>
  <line class="st2" x1="401.8" y1="387.82" x2="405.47" y2="383.08"/>
  <line class="st2" x1="407.92" y1="379.91" x2="411.59" y2="375.17"/>
  <line class="st2" x1="414.04" y1="372.01" x2="417.71" y2="367.26"/>
  <line class="st2" x1="420.16" y1="364.1" x2="423.83" y2="359.35"/>
  <line class="st2" x1="426.28" y1="356.19" x2="429.95" y2="351.45"/>
  <line class="st2" x1="432.4" y1="348.28" x2="436.07" y2="343.54"/>
  <line class="st2" x1="438.52" y1="340.37" x2="442.19" y2="335.63"/>
  <line class="st2" x1="444.64" y1="332.46" x2="448.31" y2="327.72"/>
  <line class="st2" x1="450.76" y1="324.56" x2="454.43" y2="319.81"/>
  <line class="st2" x1="456.88" y1="316.65" x2="460.55" y2="311.9"/>
  <line class="st2" x1="462.72" y1="309.1" x2="463.98" y2="307.46"/>
  <line class="st2" x1="463.98" y1="137.38" x2="467.92" y2="138.4"/>
  <line class="st2" x1="471.8" y1="139.4" x2="477.61" y2="140.9"/>
  <line class="st2" x1="481.48" y1="141.9" x2="487.29" y2="143.4"/>
  <line class="st2" x1="491.16" y1="144.4" x2="496.97" y2="145.89"/>
  <line class="st2" x1="500.85" y1="146.89" x2="506.66" y2="148.39"/>
  <line class="st2" x1="510.53" y1="149.39" x2="516.34" y2="150.89"/>
  <line class="st2" x1="520.21" y1="151.89" x2="526.02" y2="153.39"/>
  <line class="st2" x1="529.9" y1="154.39" x2="535.71" y2="155.89"/>
  <line class="st2" x1="539.58" y1="156.88" x2="545.39" y2="158.38"/>
  <line class="st2" x1="549.26" y1="159.38" x2="555.07" y2="160.88"/>
  <line class="st2" x1="558.94" y1="161.88" x2="564.76" y2="163.38"/>
  <line class="st2" x1="568.63" y1="164.38" x2="574.44" y2="165.88"/>
  <line class="st2" x1="578.31" y1="166.88" x2="584.12" y2="168.37"/>
  <line class="st2" x1="587.99" y1="169.37" x2="593.81" y2="170.87"/>
  <line class="st2" x1="597.68" y1="171.87" x2="603.49" y2="173.37"/>
  <line class="st2" x1="607.36" y1="174.37" x2="613.17" y2="175.87"/>
  <line class="st2" x1="617.04" y1="176.87" x2="622.85" y2="178.36"/>
  <line class="st2" x1="626.73" y1="179.36" x2="632.54" y2="180.86"/>
  <line class="st2" x1="636.41" y1="181.86" x2="642.22" y2="183.36"/>
  <line class="st2" x1="646.09" y1="184.36" x2="651.9" y2="185.86"/>
  <line class="st2" x1="655.78" y1="186.86" x2="661.58" y2="188.36"/>
  <line class="st2" x1="665.46" y1="189.36" x2="671.27" y2="190.85"/>
  <line class="st2" x1="675.14" y1="191.85" x2="680.95" y2="193.35"/>
  <line class="st2" x1="684.83" y1="194.35" x2="690.63" y2="195.85"/>
  <line class="st2" x1="694.51" y1="196.85" x2="700.32" y2="198.35"/>
  <line class="st2" x1="704.19" y1="199.35" x2="710" y2="200.84"/>
  <line class="st2" x1="713.88" y1="201.84" x2="719.68" y2="203.34"/>
  <line class="st2" x1="723.56" y1="204.34" x2="729.37" y2="205.84"/>
  <line class="st2" x1="733.24" y1="206.84" x2="739.05" y2="208.34"/>
  <line class="st2" x1="742.92" y1="209.34" x2="748.73" y2="210.84"/>
  <line class="st2" x1="752.61" y1="211.83" x2="758.42" y2="213.33"/>
  <line class="st2" x1="762.29" y1="214.33" x2="768.1" y2="215.83"/>
  <line class="st2" x1="771.97" y1="216.83" x2="777.78" y2="218.33"/>
  <line class="st2" x1="781.65" y1="219.33" x2="787.47" y2="220.83"/>
  <line class="st2" x1="791.34" y1="221.83" x2="797.15" y2="223.32"/>
  <line class="st2" x1="801.02" y1="224.32" x2="806.83" y2="225.82"/>
  <line class="st2" x1="810.7" y1="226.82" x2="816.52" y2="228.32"/>
  <line class="st2" x1="820.39" y1="229.32" x2="826.2" y2="230.82"/>
  <line class="st2" x1="830.07" y1="231.82" x2="835.88" y2="233.32"/>
  <line class="st2" x1="839.75" y1="234.31" x2="845.56" y2="235.81"/>
  <line class="st2" x1="849.44" y1="236.81" x2="855.25" y2="238.31"/>
  <line class="st2" x1="859.12" y1="239.31" x2="864.93" y2="240.81"/>
  <line class="st2" x1="868.8" y1="241.81" x2="874.61" y2="243.31"/>
  <line class="st2" x1="878.49" y1="244.31" x2="884.3" y2="245.8"/>
  <line class="st2" x1="888.17" y1="246.8" x2="893.98" y2="248.3"/>
  <line class="st2" x1="897.85" y1="249.3" x2="903.66" y2="250.8"/>
  <line class="st2" x1="907.54" y1="251.8" x2="913.34" y2="253.3"/>
  <line class="st2" x1="917.22" y1="254.3" x2="921.16" y2="255.31"/>
  <line class="st2" x1="463.98" y1="165.73" x2="467.92" y2="166.75"/>
  <line class="st2" x1="471.8" y1="167.75" x2="477.61" y2="169.25"/>
  <line class="st2" x1="481.48" y1="170.24" x2="487.29" y2="171.74"/>
  <line class="st2" x1="491.16" y1="172.74" x2="496.97" y2="174.24"/>
  <line class="st2" x1="500.85" y1="175.24" x2="506.66" y2="176.74"/>
  <line class="st2" x1="510.53" y1="177.74" x2="516.34" y2="179.24"/>
  <line class="st2" x1="520.21" y1="180.24" x2="526.02" y2="181.73"/>
  <line class="st2" x1="529.9" y1="182.73" x2="535.71" y2="184.23"/>
  <line class="st2" x1="539.58" y1="185.23" x2="545.39" y2="186.73"/>
  <line class="st2" x1="549.26" y1="187.73" x2="555.07" y2="189.23"/>
  <line class="st2" x1="558.94" y1="190.23" x2="564.76" y2="191.73"/>
  <line class="st2" x1="568.63" y1="192.72" x2="574.44" y2="194.22"/>
  <line class="st2" x1="578.31" y1="195.22" x2="584.12" y2="196.72"/>
  <line class="st2" x1="587.99" y1="197.72" x2="593.81" y2="199.22"/>
  <line class="st2" x1="597.68" y1="200.22" x2="603.49" y2="201.72"/>
  <line class="st2" x1="607.36" y1="202.72" x2="613.17" y2="204.21"/>
  <line class="st2" x1="617.04" y1="205.21" x2="622.85" y2="206.71"/>
  <line class="st2" x1="626.73" y1="207.71" x2="632.54" y2="209.21"/>
  <line class="st2" x1="636.41" y1="210.21" x2="642.22" y2="211.71"/>
  <line class="st2" x1="646.09" y1="212.71" x2="651.9" y2="214.2"/>
  <line class="st2" x1="655.78" y1="215.2" x2="661.58" y2="216.7"/>
  <line class="st2" x1="665.46" y1="217.7" x2="671.27" y2="219.2"/>
  <line class="st2" x1="675.14" y1="220.2" x2="680.95" y2="221.7"/>
  <line class="st2" x1="684.83" y1="222.7" x2="690.63" y2="224.2"/>
  <line class="st2" x1="694.51" y1="225.19" x2="700.32" y2="226.69"/>
  <line class="st2" x1="704.19" y1="227.69" x2="710" y2="229.19"/>
  <line class="st2" x1="713.88" y1="230.19" x2="719.68" y2="231.69"/>
  <line class="st2" x1="723.56" y1="232.69" x2="729.37" y2="234.19"/>
  <line class="st2" x1="733.24" y1="235.19" x2="739.05" y2="236.68"/>
  <line class="st2" x1="742.92" y1="237.68" x2="748.73" y2="239.18"/>
  <line class="st2" x1="752.61" y1="240.18" x2="758.42" y2="241.68"/>
  <line class="st2" x1="762.29" y1="242.68" x2="768.1" y2="244.18"/>
  <line class="st2" x1="771.97" y1="245.18" x2="777.78" y2="246.68"/>
  <line class="st2" x1="781.65" y1="247.67" x2="787.47" y2="249.17"/>
  <line class="st2" x1="791.34" y1="250.17" x2="797.15" y2="251.67"/>
  <line class="st2" x1="801.02" y1="252.67" x2="806.83" y2="254.17"/>
  <line class="st2" x1="810.7" y1="255.17" x2="816.52" y2="256.67"/>
  <line class="st2" x1="820.39" y1="257.67" x2="826.2" y2="259.16"/>
  <line class="st2" x1="830.07" y1="260.16" x2="835.88" y2="261.66"/>
  <line class="st2" x1="839.75" y1="262.66" x2="845.56" y2="264.16"/>
  <line class="st2" x1="849.44" y1="265.16" x2="855.25" y2="266.66"/>
  <line class="st2" x1="859.12" y1="267.66" x2="864.93" y2="269.15"/>
  <line class="st2" x1="868.8" y1="270.15" x2="874.61" y2="271.65"/>
  <line class="st2" x1="878.49" y1="272.65" x2="884.3" y2="274.15"/>
  <line class="st2" x1="888.17" y1="275.15" x2="893.98" y2="276.65"/>
  <line class="st2" x1="897.85" y1="277.65" x2="903.66" y2="279.15"/>
  <line class="st2" x1="907.54" y1="280.15" x2="913.34" y2="281.64"/>
  <line class="st2" x1="917.22" y1="282.64" x2="921.16" y2="283.66"/>
  <line class="st2" x1="463.98" y1="194.08" x2="467.92" y2="195.09"/>
  <line class="st2" x1="471.8" y1="196.09" x2="477.61" y2="197.59"/>
  <line class="st2" x1="481.48" y1="198.59" x2="487.29" y2="200.09"/>
  <line class="st2" x1="491.16" y1="201.09" x2="496.97" y2="202.59"/>
  <line class="st2" x1="500.85" y1="203.59" x2="506.66" y2="205.09"/>
  <line class="st2" x1="510.53" y1="206.08" x2="516.34" y2="207.58"/>
  <line class="st2" x1="520.21" y1="208.58" x2="526.02" y2="210.08"/>
  <line class="st2" x1="529.9" y1="211.08" x2="535.71" y2="212.58"/>
  <line class="st2" x1="539.58" y1="213.58" x2="545.39" y2="215.08"/>
  <line class="st2" x1="549.26" y1="216.08" x2="555.07" y2="217.57"/>
  <line class="st2" x1="558.94" y1="218.57" x2="564.76" y2="220.07"/>
  <line class="st2" x1="568.63" y1="221.07" x2="574.44" y2="222.57"/>
  <line class="st2" x1="578.31" y1="223.57" x2="584.12" y2="225.07"/>
  <line class="st2" x1="587.99" y1="226.07" x2="593.81" y2="227.56"/>
  <line class="st2" x1="597.68" y1="228.56" x2="603.49" y2="230.06"/>
  <line class="st2" x1="607.36" y1="231.06" x2="613.17" y2="232.56"/>
  <line class="st2" x1="617.04" y1="233.56" x2="622.85" y2="235.06"/>
  <line class="st2" x1="626.73" y1="236.06" x2="632.54" y2="237.56"/>
  <line class="st2" x1="636.41" y1="238.55" x2="642.22" y2="240.05"/>
  <line class="st2" x1="646.09" y1="241.05" x2="651.9" y2="242.55"/>
  <line class="st2" x1="655.78" y1="243.55" x2="661.58" y2="245.05"/>
  <line class="st2" x1="665.46" y1="246.05" x2="671.27" y2="247.55"/>
  <line class="st2" x1="675.14" y1="248.55" x2="680.95" y2="250.04"/>
  <line class="st2" x1="684.83" y1="251.04" x2="690.63" y2="252.54"/>
  <line class="st2" x1="694.51" y1="253.54" x2="700.32" y2="255.04"/>
  <line class="st2" x1="704.19" y1="256.04" x2="710" y2="257.54"/>
  <line class="st2" x1="713.88" y1="258.54" x2="719.68" y2="260.04"/>
  <line class="st2" x1="723.56" y1="261.03" x2="729.37" y2="262.53"/>
  <line class="st2" x1="733.24" y1="263.53" x2="739.05" y2="265.03"/>
  <line class="st2" x1="742.92" y1="266.03" x2="748.73" y2="267.53"/>
  <line class="st2" x1="752.61" y1="268.53" x2="758.42" y2="270.03"/>
  <line class="st2" x1="762.29" y1="271.03" x2="768.1" y2="272.52"/>
  <line class="st2" x1="771.97" y1="273.52" x2="777.78" y2="275.02"/>
  <line class="st2" x1="781.65" y1="276.02" x2="787.47" y2="277.52"/>
  <line class="st2" x1="791.34" y1="278.52" x2="797.15" y2="280.02"/>
  <line class="st2" x1="801.02" y1="281.02" x2="806.83" y2="282.52"/>
  <line class="st2" x1="810.7" y1="283.51" x2="816.52" y2="285.01"/>
  <line class="st2" x1="820.39" y1="286.01" x2="826.2" y2="287.51"/>
  <line class="st2" x1="830.07" y1="288.51" x2="835.88" y2="290.01"/>
  <line class="st2" x1="839.75" y1="291.01" x2="845.56" y2="292.5"/>
  <line class="st2" x1="849.44" y1="293.51" x2="855.25" y2="295"/>
  <line class="st2" x1="859.12" y1="296" x2="864.93" y2="297.5"/>
  <line class="st2" x1="868.8" y1="298.5" x2="874.61" y2="300"/>
  <line class="st2" x1="878.49" y1="301" x2="884.3" y2="302.5"/>
  <line class="st2" x1="888.17" y1="303.49" x2="893.98" y2="304.99"/>
  <line class="st2" x1="897.85" y1="305.99" x2="903.66" y2="307.49"/>
  <line class="st2" x1="907.54" y1="308.49" x2="913.34" y2="309.99"/>
  <line class="st2" x1="917.22" y1="310.99" x2="921.16" y2="312.01"/>
  <line class="st2" x1="463.98" y1="222.42" x2="467.92" y2="223.44"/>
  <line class="st2" x1="471.8" y1="224.44" x2="477.61" y2="225.94"/>
  <line class="st2" x1="481.48" y1="226.94" x2="487.29" y2="228.44"/>
  <line class="st2" x1="491.16" y1="229.44" x2="496.97" y2="230.93"/>
  <line class="st2" x1="500.85" y1="231.93" x2="506.66" y2="233.43"/>
  <line class="st2" x1="510.53" y1="234.43" x2="516.34" y2="235.93"/>
  <line class="st2" x1="520.21" y1="236.93" x2="526.02" y2="238.43"/>
  <line class="st2" x1="529.9" y1="239.43" x2="535.71" y2="240.92"/>
  <line class="st2" x1="539.58" y1="241.92" x2="545.39" y2="243.42"/>
  <line class="st2" x1="549.26" y1="244.42" x2="555.07" y2="245.92"/>
  <line class="st2" x1="558.94" y1="246.92" x2="564.76" y2="248.42"/>
  <line class="st2" x1="568.63" y1="249.42" x2="574.44" y2="250.92"/>
  <line class="st2" x1="578.31" y1="251.92" x2="584.12" y2="253.41"/>
  <line class="st2" x1="587.99" y1="254.41" x2="593.81" y2="255.91"/>
  <line class="st2" x1="597.68" y1="256.91" x2="603.49" y2="258.41"/>
  <line class="st2" x1="607.36" y1="259.41" x2="613.17" y2="260.91"/>
  <line class="st2" x1="617.04" y1="261.91" x2="622.85" y2="263.4"/>
  <line class="st2" x1="626.73" y1="264.4" x2="632.54" y2="265.9"/>
  <line class="st2" x1="636.41" y1="266.9" x2="642.22" y2="268.4"/>
  <line class="st2" x1="646.09" y1="269.4" x2="651.9" y2="270.9"/>
  <line class="st2" x1="655.78" y1="271.9" x2="661.58" y2="273.4"/>
  <line class="st2" x1="665.46" y1="274.39" x2="671.27" y2="275.89"/>
  <line class="st2" x1="675.14" y1="276.89" x2="680.95" y2="278.39"/>
  <line class="st2" x1="684.83" y1="279.39" x2="690.63" y2="280.89"/>
  <line class="st2" x1="694.51" y1="281.89" x2="700.32" y2="283.39"/>
  <line class="st2" x1="704.19" y1="284.39" x2="710" y2="285.88"/>
  <line class="st2" x1="713.88" y1="286.88" x2="719.68" y2="288.38"/>
  <line class="st2" x1="723.56" y1="289.38" x2="729.37" y2="290.88"/>
  <line class="st2" x1="733.24" y1="291.88" x2="739.05" y2="293.38"/>
  <line class="st2" x1="742.92" y1="294.38" x2="748.73" y2="295.88"/>
  <line class="st2" x1="752.61" y1="296.87" x2="758.42" y2="298.37"/>
  <line class="st2" x1="762.29" y1="299.37" x2="768.1" y2="300.87"/>
  <line class="st2" x1="771.97" y1="301.87" x2="777.78" y2="303.37"/>
  <line class="st2" x1="781.65" y1="304.37" x2="787.47" y2="305.87"/>
  <line class="st2" x1="791.34" y1="306.86" x2="797.15" y2="308.36"/>
  <line class="st2" x1="801.02" y1="309.36" x2="806.83" y2="310.86"/>
  <line class="st2" x1="810.7" y1="311.86" x2="816.52" y2="313.36"/>
  <line class="st2" x1="820.39" y1="314.36" x2="826.2" y2="315.86"/>
  <line class="st2" x1="830.07" y1="316.86" x2="835.88" y2="318.35"/>
  <line class="st2" x1="839.75" y1="319.35" x2="845.56" y2="320.85"/>
  <line class="st2" x1="849.44" y1="321.85" x2="855.25" y2="323.35"/>
  <line class="st2" x1="859.12" y1="324.35" x2="864.93" y2="325.85"/>
  <line class="st2" x1="868.8" y1="326.85" x2="874.61" y2="328.35"/>
  <line class="st2" x1="878.49" y1="329.34" x2="884.3" y2="330.84"/>
  <line class="st2" x1="888.17" y1="331.84" x2="893.98" y2="333.34"/>
  <line class="st2" x1="897.85" y1="334.34" x2="903.66" y2="335.84"/>
  <line class="st2" x1="907.54" y1="336.84" x2="913.34" y2="338.34"/>
  <line class="st2" x1="917.22" y1="339.34" x2="921.16" y2="340.35"/>
  <line class="st2" x1="463.98" y1="250.77" x2="467.92" y2="251.79"/>
  <line class="st2" x1="471.8" y1="252.79" x2="477.61" y2="254.29"/>
  <line class="st2" x1="481.48" y1="255.28" x2="487.29" y2="256.78"/>
  <line class="st2" x1="491.16" y1="257.78" x2="496.97" y2="259.28"/>
  <line class="st2" x1="500.85" y1="260.28" x2="506.66" y2="261.78"/>
  <line class="st2" x1="510.53" y1="262.78" x2="516.34" y2="264.28"/>
  <line class="st2" x1="520.21" y1="265.28" x2="526.02" y2="266.77"/>
  <line class="st2" x1="529.9" y1="267.77" x2="535.71" y2="269.27"/>
  <line class="st2" x1="539.58" y1="270.27" x2="545.39" y2="271.77"/>
  <line class="st2" x1="549.26" y1="272.77" x2="555.07" y2="274.27"/>
  <line class="st2" x1="558.94" y1="275.27" x2="564.76" y2="276.76"/>
  <line class="st2" x1="568.63" y1="277.76" x2="574.44" y2="279.26"/>
  <line class="st2" x1="578.31" y1="280.26" x2="584.12" y2="281.76"/>
  <line class="st2" x1="587.99" y1="282.76" x2="593.81" y2="284.26"/>
  <line class="st2" x1="597.68" y1="285.26" x2="603.49" y2="286.76"/>
  <line class="st2" x1="607.36" y1="287.75" x2="613.17" y2="289.25"/>
  <line class="st2" x1="617.04" y1="290.25" x2="622.85" y2="291.75"/>
  <line class="st2" x1="626.73" y1="292.75" x2="632.54" y2="294.25"/>
  <line class="st2" x1="636.41" y1="295.25" x2="642.22" y2="296.75"/>
  <line class="st2" x1="646.09" y1="297.75" x2="651.9" y2="299.25"/>
  <line class="st2" x1="655.78" y1="300.24" x2="661.58" y2="301.74"/>
  <line class="st2" x1="665.46" y1="302.74" x2="671.27" y2="304.24"/>
  <line class="st2" x1="675.14" y1="305.24" x2="680.95" y2="306.74"/>
  <line class="st2" x1="684.83" y1="307.74" x2="690.63" y2="309.23"/>
  <line class="st2" x1="694.51" y1="310.24" x2="700.32" y2="311.73"/>
  <line class="st2" x1="704.19" y1="312.73" x2="710" y2="314.23"/>
  <line class="st2" x1="713.88" y1="315.23" x2="719.68" y2="316.73"/>
  <line class="st2" x1="723.56" y1="317.73" x2="729.37" y2="319.23"/>
  <line class="st2" x1="733.24" y1="320.22" x2="739.05" y2="321.72"/>
  <line class="st2" x1="742.92" y1="322.72" x2="748.73" y2="324.22"/>
  <line class="st2" x1="752.61" y1="325.22" x2="758.42" y2="326.72"/>
  <line class="st2" x1="762.29" y1="327.72" x2="768.1" y2="329.22"/>
  <line class="st2" x1="771.97" y1="330.22" x2="777.78" y2="331.71"/>
  <line class="st2" x1="781.65" y1="332.71" x2="787.47" y2="334.21"/>
  <line class="st2" x1="791.34" y1="335.21" x2="797.15" y2="336.71"/>
  <line class="st2" x1="801.02" y1="337.71" x2="806.83" y2="339.21"/>
  <line class="st2" x1="810.7" y1="340.21" x2="816.52" y2="341.71"/>
  <line class="st2" x1="820.39" y1="342.7" x2="826.2" y2="344.2"/>
  <line class="st2" x1="830.07" y1="345.2" x2="835.88" y2="346.7"/>
  <line class="st2" x1="839.75" y1="347.7" x2="845.56" y2="349.2"/>
  <line class="st2" x1="849.44" y1="350.2" x2="855.25" y2="351.7"/>
  <line class="st2" x1="859.12" y1="352.7" x2="864.93" y2="354.2"/>
  <line class="st2" x1="868.8" y1="355.19" x2="874.61" y2="356.69"/>
  <line class="st2" x1="878.49" y1="357.69" x2="884.3" y2="359.19"/>
  <line class="st2" x1="888.17" y1="360.19" x2="893.98" y2="361.69"/>
  <line class="st2" x1="897.85" y1="362.69" x2="903.66" y2="364.18"/>
  <line class="st2" x1="907.54" y1="365.19" x2="913.34" y2="366.68"/>
  <line class="st2" x1="917.22" y1="367.68" x2="921.16" y2="368.7"/>
  <line class="st2" x1="463.98" y1="279.12" x2="467.92" y2="280.13"/>
  <line class="st2" x1="471.8" y1="281.13" x2="477.61" y2="282.63"/>
  <line class="st2" x1="481.48" y1="283.63" x2="487.29" y2="285.13"/>
  <line class="st2" x1="491.16" y1="286.13" x2="496.97" y2="287.63"/>
  <line class="st2" x1="500.85" y1="288.63" x2="506.66" y2="290.12"/>
  <line class="st2" x1="510.53" y1="291.12" x2="516.34" y2="292.62"/>
  <line class="st2" x1="520.21" y1="293.62" x2="526.02" y2="295.12"/>
  <line class="st2" x1="529.9" y1="296.12" x2="535.71" y2="297.62"/>
  <line class="st2" x1="539.58" y1="298.62" x2="545.39" y2="300.12"/>
  <line class="st2" x1="549.26" y1="301.11" x2="555.07" y2="302.61"/>
  <line class="st2" x1="558.94" y1="303.61" x2="564.76" y2="305.11"/>
  <line class="st2" x1="568.63" y1="306.11" x2="574.44" y2="307.61"/>
  <line class="st2" x1="578.31" y1="308.61" x2="584.12" y2="310.11"/>
  <line class="st2" x1="587.99" y1="311.11" x2="593.81" y2="312.61"/>
  <line class="st2" x1="597.68" y1="313.6" x2="603.49" y2="315.1"/>
  <line class="st2" x1="607.36" y1="316.1" x2="613.17" y2="317.6"/>
  <line class="st2" x1="617.04" y1="318.6" x2="622.85" y2="320.1"/>
  <line class="st2" x1="626.73" y1="321.1" x2="632.54" y2="322.59"/>
  <line class="st2" x1="636.41" y1="323.6" x2="642.22" y2="325.09"/>
  <line class="st2" x1="646.09" y1="326.09" x2="651.9" y2="327.59"/>
  <line class="st2" x1="655.78" y1="328.59" x2="661.58" y2="330.09"/>
  <line class="st2" x1="665.46" y1="331.09" x2="671.27" y2="332.59"/>
  <line class="st2" x1="675.14" y1="333.58" x2="680.95" y2="335.08"/>
  <line class="st2" x1="684.83" y1="336.08" x2="690.63" y2="337.58"/>
  <line class="st2" x1="694.51" y1="338.58" x2="700.32" y2="340.08"/>
  <line class="st2" x1="704.19" y1="341.08" x2="710" y2="342.58"/>
  <line class="st2" x1="713.88" y1="343.58" x2="719.68" y2="345.08"/>
  <line class="st2" x1="723.56" y1="346.07" x2="729.37" y2="347.57"/>
  <line class="st2" x1="733.24" y1="348.57" x2="739.05" y2="350.07"/>
  <line class="st2" x1="742.92" y1="351.07" x2="748.73" y2="352.57"/>
  <line class="st2" x1="752.61" y1="353.57" x2="758.42" y2="355.07"/>
  <line class="st2" x1="762.29" y1="356.07" x2="768.1" y2="357.56"/>
  <line class="st2" x1="771.97" y1="358.56" x2="777.78" y2="360.06"/>
  <line class="st2" x1="781.65" y1="361.06" x2="787.47" y2="362.56"/>
  <line class="st2" x1="791.34" y1="363.56" x2="797.15" y2="365.06"/>
  <line class="st2" x1="801.02" y1="366.06" x2="806.83" y2="367.55"/>
  <line class="st2" x1="810.7" y1="368.55" x2="816.52" y2="370.05"/>
  <line class="st2" x1="820.39" y1="371.05" x2="826.2" y2="372.55"/>
  <line class="st2" x1="830.07" y1="373.55" x2="835.88" y2="375.05"/>
  <line class="st2" x1="839.75" y1="376.05" x2="845.56" y2="377.54"/>
  <line class="st2" x1="849.44" y1="378.54" x2="855.25" y2="380.04"/>
  <line class="st2" x1="859.12" y1="381.04" x2="864.93" y2="382.54"/>
  <line class="st2" x1="868.8" y1="383.54" x2="874.61" y2="385.04"/>
  <line class="st2" x1="878.49" y1="386.04" x2="884.3" y2="387.54"/>
  <line class="st2" x1="888.17" y1="388.53" x2="893.98" y2="390.03"/>
  <line class="st2" x1="897.85" y1="391.03" x2="903.66" y2="392.53"/>
  <line class="st2" x1="907.54" y1="393.53" x2="913.34" y2="395.03"/>
  <line class="st2" x1="917.22" y1="396.03" x2="921.16" y2="397.05"/>
  <line class="st2" x1="463.98" y1="307.46" x2="467.92" y2="308.48"/>
  <line class="st2" x1="471.8" y1="309.48" x2="477.61" y2="310.98"/>
  <line class="st2" x1="481.48" y1="311.98" x2="487.29" y2="313.48"/>
  <line class="st2" x1="491.16" y1="314.48" x2="496.97" y2="315.97"/>
  <line class="st2" x1="500.85" y1="316.97" x2="506.66" y2="318.47"/>
  <line class="st2" x1="510.53" y1="319.47" x2="516.34" y2="320.97"/>
  <line class="st2" x1="520.21" y1="321.97" x2="526.02" y2="323.47"/>
  <line class="st2" x1="529.9" y1="324.47" x2="535.71" y2="325.96"/>
  <line class="st2" x1="539.58" y1="326.96" x2="545.39" y2="328.46"/>
  <line class="st2" x1="549.26" y1="329.46" x2="555.07" y2="330.96"/>
  <line class="st2" x1="558.94" y1="331.96" x2="564.76" y2="333.46"/>
  <line class="st2" x1="568.63" y1="334.46" x2="574.44" y2="335.95"/>
  <line class="st2" x1="578.31" y1="336.95" x2="584.12" y2="338.45"/>
  <line class="st2" x1="587.99" y1="339.45" x2="593.81" y2="340.95"/>
  <line class="st2" x1="597.68" y1="341.95" x2="603.49" y2="343.45"/>
  <line class="st2" x1="607.36" y1="344.45" x2="613.17" y2="345.95"/>
  <line class="st2" x1="617.04" y1="346.94" x2="622.85" y2="348.44"/>
  <line class="st2" x1="626.73" y1="349.44" x2="632.54" y2="350.94"/>
  <line class="st2" x1="636.41" y1="351.94" x2="642.22" y2="353.44"/>
  <line class="st2" x1="646.09" y1="354.44" x2="651.9" y2="355.94"/>
  <line class="st2" x1="655.78" y1="356.94" x2="661.58" y2="358.44"/>
  <line class="st2" x1="665.46" y1="359.43" x2="671.27" y2="360.93"/>
  <line class="st2" x1="675.14" y1="361.93" x2="680.95" y2="363.43"/>
  <line class="st2" x1="684.83" y1="364.43" x2="690.63" y2="365.93"/>
  <line class="st2" x1="694.51" y1="366.93" x2="700.32" y2="368.43"/>
  <line class="st2" x1="704.19" y1="369.43" x2="710" y2="370.92"/>
  <line class="st2" x1="713.88" y1="371.92" x2="719.68" y2="373.42"/>
  <line class="st2" x1="723.56" y1="374.42" x2="729.37" y2="375.92"/>
  <line class="st2" x1="733.24" y1="376.92" x2="739.05" y2="378.42"/>
  <line class="st2" x1="742.92" y1="379.42" x2="748.73" y2="380.91"/>
  <line class="st2" x1="752.61" y1="381.91" x2="758.42" y2="383.41"/>
  <line class="st2" x1="762.29" y1="384.41" x2="768.1" y2="385.91"/>
  <line class="st2" x1="771.97" y1="386.91" x2="777.78" y2="388.41"/>
  <line class="st2" x1="781.65" y1="389.41" x2="787.47" y2="390.91"/>
  <line class="st2" x1="791.34" y1="391.9" x2="797.15" y2="393.4"/>
  <line class="st2" x1="801.02" y1="394.4" x2="806.83" y2="395.9"/>
  <line class="st2" x1="810.7" y1="396.9" x2="816.52" y2="398.4"/>
  <line class="st2" x1="820.39" y1="399.4" x2="826.2" y2="400.9"/>
  <line class="st2" x1="830.07" y1="401.9" x2="835.88" y2="403.39"/>
  <line class="st2" x1="839.75" y1="404.39" x2="845.56" y2="405.89"/>
  <line class="st2" x1="849.44" y1="406.89" x2="855.25" y2="408.39"/>
  <line class="st2" x1="859.12" y1="409.39" x2="864.93" y2="410.89"/>
  <line class="st2" x1="868.8" y1="411.89" x2="874.61" y2="413.39"/>
  <line class="st2" x1="878.49" y1="414.38" x2="884.3" y2="415.88"/>
  <line class="st2" x1="888.17" y1="416.88" x2="893.98" y2="418.38"/>
  <line class="st2" x1="897.85" y1="419.38" x2="903.66" y2="420.88"/>
  <line class="st2" x1="907.54" y1="421.88" x2="913.34" y2="423.37"/>
  <line class="st2" x1="917.22" y1="424.38" x2="921.16" y2="425.39"/>
  <path class="st7" d="M712.92,322.41l3.46.11,3.44-.43,3.21-.9,2.93-1.35,2.59-1.74,2.15-2.09,1.64-2.39,1.03-2.64.34-2.72-.35-2.61-.99-2.43-1.57-2.2-2.1-1.9-2.57-1.55-2.99-1.13-3.36-.65-3.46-.11-3.43.42-3.21.91-2.94,1.35-2.58,1.74-2.15,2.09-1.63,2.39-1.03,2.64-.35,2.72.35,2.61.99,2.43,1.57,2.2,2.1,1.9,2.57,1.55,3,1.13,3.36.65M699.17,389.3l3.17.46,3-.11,2.76-.65,2.44-1.17,2.04-1.65,1.57-2.11,1.01-2.55.37-2.81-.27-2.88-.87-2.87-1.42-2.77-1.92-2.6-2.37-2.34-2.8-2.03-3.08-1.57-3.25-1.05-3.17-.46-3,.11-2.76.65-2.44,1.17-2.04,1.65-1.57,2.11-1.01,2.55-.37,2.81.27,2.88.87,2.87,1.42,2.77,1.92,2.6,2.37,2.34,2.8,2.03,3.08,1.58,3.25,1.05M693.24,393.22l-4.02-2.01-3.71-2.54-3.33-3.02-2.09-2.41-1.83-2.61-1.49-2.7-1.14-2.78-.02-.03-.03-.05-.35-.94-.48-1.47-1.28-4.09-1.63-5.24-1.75-5.34-.86-2.43-.82-2.12-.76-1.7-.35-.65-.32-.51-1.13-1.29-1.45-1.29-1.63-1.23-1.66-1.13-2.83-1.73-1.2-.67-9.53-8.05-.38.06-4.64.62-7.23.88-19.18,2.14-10.41,1.03-9.95.86-8.71.59-3.65.16-3.05.05-5.04-.04-4.27-.08-3.58-.17-2.96-.3-2.43-.47-1.97-.69-1.56-.93-1.31-1.25,75.44-15.02-58.76-49.64,1.75-.46,1.81-.06,2.05.35,2.35.76,2.74,1.17,3.21,1.58,3.77,1.99,4.43,2.41,2.65,1.52,3.12,1.9,7.34,4.73,8.29,5.57,8.61,5.94,15.75,11.15,5.9,4.27,3.76,2.78.3.24,12.23-2.44h1.38s3.31-.15,3.31-.15l2-.19,2.02-.29,1.89-.43,1.61-.58.53-.29.62-.41,1.48-1.12,1.74-1.46,1.93-1.71,4.11-3.83,3.96-3.8,3.1-2.97,1.13-1.05.76-.66.05-.03h.03s2.34-1.89,2.34-1.89l2.61-1.64,2.87-1.4,3-1.09,4.38-1.03,4.47-.42,4.49.19,4.97.96,4.43,1.67,3.81,2.29,3.11,2.81,2.32,3.25,1.46,3.6.38,1.91.14,1.95-.12,2.03-.39,2-.65,2-.88,1.91-2.42,3.53-3.18,3.08-3.82,2.57-4.34,1.99-4.74,1.34-5.08.62-5.11-.16-4.13-.75.1.21-9.47-2.46-7.23-1.76-2.9-.63-1.1-.21-.8-.11-2.39-.04-2.59.3-2.76.59-2.89.82-2.98,1-3.02,1.14-3.02,1.22-2.98,1.25,2.01,2.53,2.06,2.53,2.09,2.45,2.12,2.32,2.13,2.11,2.13,1.85,2.13,1.52,2.11,1.12.76.29,1.06.35,2.84.85,7.18,1.96,9.48,2.42-.2.14,3.97,1.35,4.56,2.33,4.14,3,3.5,3.46,2.84,3.84,2.1,4.1,1.29,4.24.41,4.26-.15,2.1-.4,2.06-.63,1.93-.87,1.84-1.06,1.64-1.26,1.49-3.02,2.44-3.61,1.73-4.08.96-4.44.16-4.68-.68-4.81-1.56"/>
  <line class="st3" x1="269.84" y1="473.3" x2="251.56" y2="468.58"/>
  <line class="st3" x1="251.56" y1="468.58" x2="269.84" y2="444.96"/>
  <line class="st3" x1="269.84" y1="444.96" x2="251.56" y2="440.24"/>
  <line class="st3" x1="251.56" y1="440.24" x2="269.84" y2="416.61"/>
  <line class="st3" x1="269.84" y1="416.61" x2="251.56" y2="411.89"/>
  <line class="st3" x1="251.56" y1="411.89" x2="269.84" y2="388.26"/>
  <line class="st3" x1="251.56" y1="383.55" x2="463.98" y2="109.04"/>
  <line class="st3" x1="463.98" y1="109.04" x2="939.45" y2="231.68"/>
  <line class="st3" x1="921.16" y1="255.31" x2="939.45" y2="260.03"/>
  <line class="st3" x1="939.45" y1="260.03" x2="921.16" y2="283.66"/>
  <line class="st3" x1="921.16" y1="283.66" x2="939.45" y2="288.38"/>
  <line class="st3" x1="939.45" y1="288.38" x2="921.16" y2="312.01"/>
  <line class="st3" x1="921.16" y1="312.01" x2="939.45" y2="316.72"/>
  <line class="st3" x1="939.45" y1="316.72" x2="921.16" y2="340.35"/>
  <line class="st3" x1="269.84" y1="501.65" x2="251.56" y2="525.28"/>
  <line class="st3" x1="251.56" y1="525.28" x2="269.84" y2="529.99"/>
  <line class="st3" x1="269.84" y1="529.99" x2="251.56" y2="553.62"/>
  <line class="st3" x1="251.56" y1="553.62" x2="269.84" y2="558.34"/>
  <line class="st3" x1="269.84" y1="558.34" x2="251.56" y2="581.97"/>
  <line class="st3" x1="251.56" y1="581.97" x2="269.84" y2="586.69"/>
  <line class="st3" x1="269.84" y1="586.69" x2="251.56" y2="610.32"/>
  <line class="st3" x1="251.56" y1="610.32" x2="727.02" y2="732.96"/>
  <line class="st3" x1="727.02" y1="732.96" x2="939.45" y2="458.46"/>
  <line class="st3" x1="939.45" y1="458.46" x2="921.16" y2="453.74"/>
  <line class="st3" x1="921.16" y1="453.74" x2="939.45" y2="430.11"/>
  <line class="st3" x1="939.45" y1="430.11" x2="921.16" y2="425.39"/>
  <line class="st3" x1="921.16" y1="425.39" x2="939.45" y2="401.76"/>
  <line class="st3" x1="939.45" y1="401.76" x2="921.16" y2="397.05"/>
  <line class="st3" x1="921.16" y1="397.05" x2="939.45" y2="373.42"/>
  <line class="st3" x1="939.45" y1="373.42" x2="921.16" y2="368.7"/>
  <line class="st3" x1="269.84" y1="473.3" x2="251.56" y2="496.93"/>
  <line class="st3" x1="251.56" y1="496.93" x2="269.84" y2="501.65"/>
  <line class="st3" x1="921.16" y1="340.35" x2="939.45" y2="345.07"/>
  <line class="st3" x1="939.45" y1="345.07" x2="921.16" y2="368.7"/>
</svg>